M48
;Layer_Color=9474304
;FILE_FORMAT=2:4
INCH,LZ
;TYPE=PLATED
T1F00S00C0.0079
T2F00S00C0.0118
%
T01
X01172Y04045
X0115Y04145
X01207Y04229
X01208Y04274
X01251
X0126Y04208
X0122Y04355
Y04405
X01221Y04436
X01229Y04472
X013055Y0451
X01283Y04621
X01375Y04604
X01475Y04684
X0155Y04585
X01479Y04504
X01478Y04464
X01553Y04306
X01055Y04495
X0105Y046
X01595Y0462
X0165Y04565
X01628Y04538
X01641Y04502
X01566Y04527
X01577Y04366
X01615Y04315
X01658Y04257
X01697
X01696Y04295
X01755Y043203
X01828Y04324
X01804Y04291
X01848Y04246
X01824Y04415
X01775Y0447
X01735
Y0451
X01775
X01861Y04548
X01911Y04575
X01953Y04576
X01993
X02026Y0449
X0201Y04452
X01994Y0437
Y04326
X01943Y0437
X0201Y04172
X02026Y04095
X01868Y04045
Y03996
X01794Y03995
Y04044
X01595Y03996
X0159Y04225
X01655Y04195
X0167Y04425
X01709Y04596
X01741Y04614
X01775Y04684
X01876Y04624
X01775Y04714
X01776Y04765
X01815Y04835
X01915
Y04795
X02015
Y04835
X01715
X01575Y04863
X01576Y0491
Y0494
X01476Y04766
Y04714
X01415Y04795
X01315
X0119Y0481
X01085
T02
X013103Y043703
Y044097
X013497
Y043703
M30
