G04*
G04 #@! TF.GenerationSoftware,Altium Limited,Altium Designer,21.4.1 (30)*
G04*
G04 Layer_Color=8388736*
%FSLAX25Y25*%
%MOIN*%
G70*
G04*
G04 #@! TF.SameCoordinates,C40CE6D3-04EA-4A21-B757-E25C397C2047*
G04*
G04*
G04 #@! TF.FilePolarity,Negative*
G04*
G01*
G75*
%ADD16R,0.04422X0.04658*%
%ADD17R,0.04658X0.04422*%
%ADD18R,0.05131X0.06706*%
G04:AMPARAMS|DCode=19|XSize=29.65mil|YSize=27.69mil|CornerRadius=6.46mil|HoleSize=0mil|Usage=FLASHONLY|Rotation=270.000|XOffset=0mil|YOffset=0mil|HoleType=Round|Shape=RoundedRectangle|*
%AMROUNDEDRECTD19*
21,1,0.02965,0.01476,0,0,270.0*
21,1,0.01673,0.02769,0,0,270.0*
1,1,0.01292,-0.00738,-0.00837*
1,1,0.01292,-0.00738,0.00837*
1,1,0.01292,0.00738,0.00837*
1,1,0.01292,0.00738,-0.00837*
%
%ADD19ROUNDEDRECTD19*%
G04:AMPARAMS|DCode=20|XSize=43.43mil|YSize=18.24mil|CornerRadius=5.28mil|HoleSize=0mil|Usage=FLASHONLY|Rotation=0.000|XOffset=0mil|YOffset=0mil|HoleType=Round|Shape=RoundedRectangle|*
%AMROUNDEDRECTD20*
21,1,0.04343,0.00768,0,0,0.0*
21,1,0.03287,0.01824,0,0,0.0*
1,1,0.01056,0.01644,-0.00384*
1,1,0.01056,-0.01644,-0.00384*
1,1,0.01056,-0.01644,0.00384*
1,1,0.01056,0.01644,0.00384*
%
%ADD20ROUNDEDRECTD20*%
G04:AMPARAMS|DCode=21|XSize=43.43mil|YSize=18.24mil|CornerRadius=5.28mil|HoleSize=0mil|Usage=FLASHONLY|Rotation=90.000|XOffset=0mil|YOffset=0mil|HoleType=Round|Shape=RoundedRectangle|*
%AMROUNDEDRECTD21*
21,1,0.04343,0.00768,0,0,90.0*
21,1,0.03287,0.01824,0,0,90.0*
1,1,0.01056,0.00384,0.01644*
1,1,0.01056,0.00384,-0.01644*
1,1,0.01056,-0.00384,-0.01644*
1,1,0.01056,-0.00384,0.01644*
%
%ADD21ROUNDEDRECTD21*%
%ADD22R,0.08871X0.10839*%
%ADD23R,0.02375X0.07690*%
%ADD24R,0.06213X0.10642*%
%ADD25R,0.05859X0.06587*%
G04:AMPARAMS|DCode=26|XSize=26.11mil|YSize=15.87mil|CornerRadius=4.98mil|HoleSize=0mil|Usage=FLASHONLY|Rotation=270.000|XOffset=0mil|YOffset=0mil|HoleType=Round|Shape=RoundedRectangle|*
%AMROUNDEDRECTD26*
21,1,0.02611,0.00591,0,0,270.0*
21,1,0.01614,0.01587,0,0,270.0*
1,1,0.00997,-0.00295,-0.00807*
1,1,0.00997,-0.00295,0.00807*
1,1,0.00997,0.00295,0.00807*
1,1,0.00997,0.00295,-0.00807*
%
%ADD26ROUNDEDRECTD26*%
%ADD27R,0.04343X0.04619*%
%ADD28R,0.03175X0.01581*%
%ADD29R,0.03175X0.01384*%
%ADD30R,0.01778X0.03372*%
G04:AMPARAMS|DCode=31|XSize=39.89mil|YSize=20.6mil|CornerRadius=7.15mil|HoleSize=0mil|Usage=FLASHONLY|Rotation=0.000|XOffset=0mil|YOffset=0mil|HoleType=Round|Shape=RoundedRectangle|*
%AMROUNDEDRECTD31*
21,1,0.03989,0.00630,0,0,0.0*
21,1,0.02559,0.02060,0,0,0.0*
1,1,0.01430,0.01280,-0.00315*
1,1,0.01430,-0.01280,-0.00315*
1,1,0.01430,-0.01280,0.00315*
1,1,0.01430,0.01280,0.00315*
%
%ADD31ROUNDEDRECTD31*%
G04:AMPARAMS|DCode=32|XSize=39.89mil|YSize=20.6mil|CornerRadius=7.15mil|HoleSize=0mil|Usage=FLASHONLY|Rotation=90.000|XOffset=0mil|YOffset=0mil|HoleType=Round|Shape=RoundedRectangle|*
%AMROUNDEDRECTD32*
21,1,0.03989,0.00630,0,0,90.0*
21,1,0.02559,0.02060,0,0,90.0*
1,1,0.01430,0.00315,0.01280*
1,1,0.01430,0.00315,-0.01280*
1,1,0.01430,-0.00315,-0.01280*
1,1,0.01430,-0.00315,0.01280*
%
%ADD32ROUNDEDRECTD32*%
%ADD33R,0.09068X0.09068*%
%ADD34R,0.05800X0.15288*%
%ADD35R,0.04619X0.04343*%
%ADD36O,0.04343X0.07887*%
%ADD37O,0.03674X0.06548*%
%ADD38C,0.02769*%
G36*
X175165Y405240D02*
X173591D01*
X173457Y405236D01*
X173323Y405224D01*
X173189Y405209D01*
X173059Y405185D01*
X172929Y405154D01*
X172799Y405114D01*
X172673Y405071D01*
X172551Y405020D01*
X172429Y404961D01*
X172311Y404898D01*
X172197Y404827D01*
X172087Y404752D01*
X171980Y404669D01*
X171878Y404583D01*
X171780Y404492D01*
X171689Y404394D01*
X171602Y404291D01*
X171520Y404185D01*
X171445Y404075D01*
X171374Y403961D01*
X171311Y403842D01*
X171252Y403721D01*
X171201Y403598D01*
X171158Y403472D01*
X171118Y403342D01*
X171087Y403213D01*
X171063Y403083D01*
X171047Y402949D01*
X171035Y402815D01*
X171031Y402681D01*
Y398153D01*
X165815D01*
X165713Y398158D01*
X165610Y398165D01*
X165508Y398177D01*
X165405Y398197D01*
X165307Y398220D01*
X165205Y398248D01*
X165110Y398284D01*
X165016Y398323D01*
X164921Y398366D01*
X164831Y398417D01*
X164744Y398472D01*
X164657Y398528D01*
X164575Y398590D01*
X164496Y398657D01*
X164421Y398728D01*
X164350Y398803D01*
X164284Y398882D01*
X164220Y398965D01*
X164165Y399051D01*
X164110Y399138D01*
X164059Y399228D01*
X164016Y399323D01*
X163976Y399417D01*
X163941Y399512D01*
X163913Y399614D01*
X163890Y399713D01*
X163870Y399815D01*
X163858Y399917D01*
X163850Y400020D01*
X163847Y400122D01*
Y405240D01*
X163850Y405342D01*
X163858Y405445D01*
X163870Y405547D01*
X163890Y405650D01*
X163913Y405748D01*
X163941Y405850D01*
X163976Y405945D01*
X164016Y406039D01*
X164059Y406134D01*
X164110Y406224D01*
X164165Y406311D01*
X164220Y406398D01*
X164284Y406480D01*
X164350Y406559D01*
X164421Y406634D01*
X164496Y406705D01*
X164575Y406772D01*
X164657Y406835D01*
X164744Y406890D01*
X164831Y406945D01*
X164921Y406996D01*
X165016Y407039D01*
X165110Y407079D01*
X165205Y407114D01*
X165307Y407142D01*
X165405Y407165D01*
X165508Y407185D01*
X165610Y407197D01*
X165713Y407205D01*
X165815Y407209D01*
X167193D01*
Y411342D01*
X175165D01*
Y405240D01*
D02*
G37*
G36*
X175854Y411539D02*
X167193D01*
Y418075D01*
X175854D01*
Y411539D01*
D02*
G37*
G36*
X198689Y407209D02*
X200067D01*
X200169Y407205D01*
X200272Y407197D01*
X200374Y407185D01*
X200476Y407165D01*
X200575Y407142D01*
X200677Y407114D01*
X200772Y407079D01*
X200866Y407039D01*
X200961Y406996D01*
X201051Y406945D01*
X201138Y406890D01*
X201224Y406835D01*
X201307Y406772D01*
X201386Y406705D01*
X201461Y406634D01*
X201532Y406559D01*
X201598Y406480D01*
X201661Y406398D01*
X201716Y406311D01*
X201772Y406224D01*
X201823Y406134D01*
X201866Y406039D01*
X201905Y405945D01*
X201941Y405850D01*
X201969Y405748D01*
X201992Y405650D01*
X202012Y405547D01*
X202024Y405445D01*
X202031Y405342D01*
X202035Y405240D01*
Y400122D01*
X202031Y400020D01*
X202024Y399917D01*
X202012Y399815D01*
X201992Y399713D01*
X201969Y399614D01*
X201941Y399512D01*
X201905Y399417D01*
X201866Y399323D01*
X201823Y399228D01*
X201772Y399138D01*
X201716Y399051D01*
X201661Y398965D01*
X201598Y398882D01*
X201532Y398803D01*
X201461Y398728D01*
X201386Y398657D01*
X201307Y398590D01*
X201224Y398528D01*
X201138Y398472D01*
X201051Y398417D01*
X200961Y398366D01*
X200866Y398323D01*
X200772Y398284D01*
X200677Y398248D01*
X200575Y398220D01*
X200476Y398197D01*
X200374Y398177D01*
X200272Y398165D01*
X200169Y398158D01*
X200067Y398153D01*
X194850D01*
Y402681D01*
X194846Y402815D01*
X194835Y402949D01*
X194819Y403083D01*
X194795Y403213D01*
X194764Y403342D01*
X194724Y403472D01*
X194681Y403598D01*
X194630Y403721D01*
X194571Y403842D01*
X194508Y403961D01*
X194437Y404075D01*
X194362Y404185D01*
X194280Y404291D01*
X194193Y404394D01*
X194102Y404492D01*
X194004Y404583D01*
X193902Y404669D01*
X193795Y404752D01*
X193685Y404827D01*
X193571Y404898D01*
X193453Y404961D01*
X193331Y405020D01*
X193209Y405071D01*
X193083Y405114D01*
X192953Y405154D01*
X192823Y405185D01*
X192693Y405209D01*
X192559Y405224D01*
X192425Y405236D01*
X192291Y405240D01*
X190717D01*
Y411342D01*
X198689D01*
Y407209D01*
D02*
G37*
G36*
Y411539D02*
X190027D01*
Y418075D01*
X198689D01*
Y411539D01*
D02*
G37*
D16*
X195551Y452500D02*
D03*
X189449D02*
D03*
X188949Y442500D02*
D03*
X195051D02*
D03*
X123996Y451118D02*
D03*
X130098D02*
D03*
X190543Y421000D02*
D03*
X196646D02*
D03*
X188949Y447500D02*
D03*
X195051D02*
D03*
X182949Y438000D02*
D03*
X189051D02*
D03*
X135996Y451118D02*
D03*
X142098D02*
D03*
X147551Y461000D02*
D03*
X141449D02*
D03*
D17*
X149500Y445854D02*
D03*
Y451957D02*
D03*
D18*
X110500Y448020D02*
D03*
Y412980D02*
D03*
D19*
X137791Y421500D02*
D03*
X134209D02*
D03*
X137791Y426500D02*
D03*
X134209D02*
D03*
X159709Y414500D02*
D03*
X163291D02*
D03*
X111791Y460000D02*
D03*
X108209D02*
D03*
D20*
X139634Y443921D02*
D03*
Y439984D02*
D03*
Y438016D02*
D03*
X139634Y441953D02*
D03*
X139634Y436047D02*
D03*
Y434079D02*
D03*
X126366Y443921D02*
D03*
Y441953D02*
D03*
Y439984D02*
D03*
X126366Y436047D02*
D03*
X126366Y438016D02*
D03*
Y434079D02*
D03*
D21*
X130047Y446618D02*
D03*
X135953D02*
D03*
X135953Y431382D02*
D03*
X130047D02*
D03*
D22*
X133000Y439000D02*
D03*
D23*
X188059Y414000D02*
D03*
X185500D02*
D03*
X182941D02*
D03*
X180382D02*
D03*
X177823D02*
D03*
D24*
X179250Y401894D02*
D03*
X186632D02*
D03*
D25*
X198500Y427500D02*
D03*
X190839D02*
D03*
D26*
X175500Y430047D02*
D03*
X176878Y425953D02*
D03*
X174122D02*
D03*
D27*
X148992Y422500D02*
D03*
X143008D02*
D03*
X113492Y404500D02*
D03*
X107508D02*
D03*
X148992Y427500D02*
D03*
X143008D02*
D03*
X124492Y461000D02*
D03*
X118508D02*
D03*
D28*
X148636Y439953D02*
D03*
Y434047D02*
D03*
X154364D02*
D03*
Y439953D02*
D03*
D29*
X148636Y437984D02*
D03*
Y436016D02*
D03*
X154364D02*
D03*
Y437984D02*
D03*
D30*
X151500Y433250D02*
D03*
Y440750D02*
D03*
D31*
X167823Y452839D02*
D03*
Y450280D02*
D03*
Y447720D02*
D03*
Y445161D02*
D03*
X183177D02*
D03*
Y447720D02*
D03*
Y450280D02*
D03*
Y452839D02*
D03*
D32*
X171661Y441323D02*
D03*
X174221D02*
D03*
X176779D02*
D03*
X179339D02*
D03*
Y456677D02*
D03*
X176779D02*
D03*
X174221D02*
D03*
X171661D02*
D03*
D33*
X175500Y449000D02*
D03*
D34*
X197500Y491244D02*
D03*
Y471756D02*
D03*
X187500Y491244D02*
D03*
Y471756D02*
D03*
X177500Y491244D02*
D03*
Y471756D02*
D03*
X167500Y491244D02*
D03*
Y471756D02*
D03*
X157500Y491244D02*
D03*
Y471756D02*
D03*
X147500Y491244D02*
D03*
Y471756D02*
D03*
X137500Y491244D02*
D03*
Y471756D02*
D03*
X127500Y491244D02*
D03*
Y471756D02*
D03*
X117500Y491244D02*
D03*
Y471756D02*
D03*
X107500Y491244D02*
D03*
Y471756D02*
D03*
D35*
X159500Y403508D02*
D03*
Y409492D02*
D03*
D36*
X166799Y402681D02*
D03*
X199083D02*
D03*
D37*
X173394Y414807D02*
D03*
X192488D02*
D03*
D38*
X186000Y451000D02*
D03*
X182136Y459691D02*
D03*
X199000Y442500D02*
D03*
X198500Y432000D02*
D03*
X115000Y414500D02*
D03*
X105500Y449500D02*
D03*
X123000Y436000D02*
D03*
X200500Y419000D02*
D03*
X191500Y456500D02*
D03*
X124500Y420000D02*
D03*
X105000Y460000D02*
D03*
X156500Y405500D02*
D03*
X180500Y409000D02*
D03*
X165500Y433500D02*
D03*
X148000Y431500D02*
D03*
X164500Y421500D02*
D03*
X116000Y401500D02*
D03*
X144500Y448000D02*
D03*
X121500Y447500D02*
D03*
X128500Y461000D02*
D03*
X157500D02*
D03*
X153500Y457500D02*
D03*
X173500Y447000D02*
D03*
X177500Y451000D02*
D03*
X163000Y450000D02*
D03*
X172000Y461500D02*
D03*
X127500Y447500D02*
D03*
X153500Y442500D02*
D03*
X138000Y446000D02*
D03*
X159000Y424000D02*
D03*
X157500Y438000D02*
D03*
X123047Y440118D02*
D03*
X164500Y444000D02*
D03*
X170000Y459000D02*
D03*
X137500Y461000D02*
D03*
X108500Y481000D02*
D03*
X119000D02*
D03*
X161500Y483500D02*
D03*
X166000Y455000D02*
D03*
X181500Y442000D02*
D03*
X175500Y432500D02*
D03*
X131500Y479500D02*
D03*
X141500D02*
D03*
Y483500D02*
D03*
X111500D02*
D03*
X201500Y479500D02*
D03*
X191500D02*
D03*
X201500Y483500D02*
D03*
X191500D02*
D03*
X181500Y479500D02*
D03*
X173500Y451000D02*
D03*
X177500Y447000D02*
D03*
X171500Y483500D02*
D03*
X181500D02*
D03*
X151500Y479500D02*
D03*
M02*
