G04*
G04 #@! TF.GenerationSoftware,Altium Limited,Altium Designer,21.4.1 (30)*
G04*
G04 Layer_Color=16711935*
%FSLAX25Y25*%
%MOIN*%
G70*
G04*
G04 #@! TF.SameCoordinates,C40CE6D3-04EA-4A21-B757-E25C397C2047*
G04*
G04*
G04 #@! TF.FilePolarity,Positive*
G04*
G01*
G75*
%ADD10C,0.02000*%
%ADD11C,0.00787*%
%ADD13C,0.00500*%
%ADD15C,0.00300*%
%ADD59C,0.01000*%
%ADD73C,0.00100*%
%ADD74C,0.00394*%
D10*
X109000Y462400D02*
X108649Y463364D01*
X107761Y463877D01*
X106750Y463699D01*
X106090Y462913D01*
Y461887D01*
X106750Y461101D01*
X107761Y460923D01*
X108649Y461436D01*
X109000Y462400D01*
D11*
X110894Y407862D02*
X110106D01*
X110894D01*
X130244Y450417D02*
X129457D01*
X130244D01*
X188453Y420398D02*
X187665D01*
X188453D01*
X173728Y423079D02*
X172941D01*
X173728D01*
X163689Y453134D02*
X162902D01*
X163689D01*
X107894Y462209D02*
X107106D01*
X107894D01*
D13*
X189035Y454390D02*
X195965D01*
X189035Y450610D02*
X195965D01*
X189035D02*
Y454390D01*
X195965Y450610D02*
Y454390D01*
X195465Y440610D02*
Y444390D01*
X188535Y440610D02*
Y444390D01*
Y440610D02*
X195465D01*
X188535Y444390D02*
X195465D01*
X130512Y449228D02*
Y453008D01*
X123583Y449228D02*
Y453008D01*
Y449228D02*
X130512D01*
X123583Y453008D02*
X130512D01*
X197059Y419110D02*
Y422890D01*
X190130Y419110D02*
Y422890D01*
Y419110D02*
X197059D01*
X190130Y422890D02*
X197059D01*
X195465Y445610D02*
Y449390D01*
X188535Y445610D02*
Y449390D01*
Y445610D02*
X195465D01*
X188535Y449390D02*
X195465D01*
X189465Y436110D02*
Y439890D01*
X182535Y436110D02*
Y439890D01*
Y436110D02*
X189465D01*
X182535Y439890D02*
X189465D01*
X142512Y449228D02*
Y453008D01*
X135583Y449228D02*
Y453008D01*
Y449228D02*
X142512D01*
X135583Y453008D02*
X142512D01*
X147610Y452370D02*
X151390D01*
X147610Y445441D02*
X151390D01*
Y452370D01*
X147610Y445441D02*
Y452370D01*
X159610Y437965D02*
X163390D01*
X159610Y431035D02*
X163390D01*
X159610D02*
Y437965D01*
X163390Y431035D02*
Y437965D01*
X141035Y459110D02*
Y462890D01*
X147965Y459110D02*
Y462890D01*
X141035D02*
X147965D01*
X141035Y459110D02*
X147965D01*
X117469Y418295D02*
Y442705D01*
X103532D02*
X117469D01*
X103532Y418295D02*
Y442705D01*
Y418295D02*
X117469D01*
X139890Y431126D02*
Y446874D01*
X126110D02*
X139890D01*
X126110Y431126D02*
X139890D01*
X126110D02*
Y446874D01*
X168177Y414925D02*
X197705D01*
Y396185D02*
Y414925D01*
X168177Y396185D02*
X197705D01*
X168177D02*
Y414925D01*
X197705Y396185D02*
X224280D01*
X168177Y391736D02*
X197705D01*
X168177D02*
Y396185D01*
X197705Y391736D02*
Y396185D01*
X198606Y425039D02*
Y429961D01*
X190732Y425039D02*
Y429961D01*
Y425039D02*
X198606D01*
X190732Y429961D02*
X198606D01*
X176654Y465390D02*
X183346D01*
X176654Y461610D02*
X183346D01*
Y465390D01*
X176654Y461610D02*
Y465390D01*
X159890Y443653D02*
Y450347D01*
X156110Y443653D02*
Y450347D01*
Y443653D02*
X159890D01*
X156110Y450347D02*
X159890D01*
X173532Y426425D02*
X177469D01*
Y429575D01*
X173532D02*
X177469D01*
X173532Y426425D02*
Y429575D01*
X142654Y420610D02*
Y424390D01*
X149346Y420610D02*
Y424390D01*
X142654D02*
X149346D01*
X142654Y420610D02*
X149346D01*
X167626Y456874D02*
X183374D01*
Y441126D02*
Y456874D01*
X167626Y441126D02*
X183374D01*
X167626D02*
Y456874D01*
X107153Y406390D02*
X113847D01*
X107153Y402610D02*
X113847D01*
X107153D02*
Y406390D01*
X113847Y402610D02*
Y406390D01*
X161390Y403154D02*
Y409846D01*
X157610Y403154D02*
Y409846D01*
X161390D01*
X157610Y403154D02*
X161390D01*
X142654Y425610D02*
Y429390D01*
X149346Y425610D02*
Y429390D01*
X142654D02*
X149346D01*
X142654Y425610D02*
X149346D01*
X118154Y462890D02*
X124846D01*
X118154Y459110D02*
X124846D01*
X118154D02*
Y462890D01*
X124846Y459110D02*
Y462890D01*
D15*
X143500Y442665D02*
X146832Y439333D01*
X143500D02*
X146832Y442665D01*
X143500Y440999D02*
X146832D01*
X145166Y439333D02*
Y442665D01*
D59*
X203512Y397022D02*
Y400221D01*
X205111D01*
X205644Y399687D01*
Y398621D01*
X205111Y398088D01*
X203512D01*
X208843Y399687D02*
X208310Y400221D01*
X207244D01*
X206711Y399687D01*
Y397555D01*
X207244Y397022D01*
X208310D01*
X208843Y397555D01*
X209910Y400221D02*
Y397022D01*
X211509D01*
X212042Y397555D01*
Y398088D01*
X211509Y398621D01*
X209910D01*
X211509D01*
X212042Y399154D01*
Y399687D01*
X211509Y400221D01*
X209910D01*
X218440D02*
X216308D01*
Y397022D01*
X218440D01*
X216308Y398621D02*
X217374D01*
X219507Y400221D02*
Y397022D01*
X221106D01*
X221639Y397555D01*
Y399687D01*
X221106Y400221D01*
X219507D01*
X224838Y399687D02*
X224305Y400221D01*
X223239D01*
X222706Y399687D01*
Y397555D01*
X223239Y397022D01*
X224305D01*
X224838Y397555D01*
Y398621D01*
X223772D01*
X228037Y400221D02*
X225905D01*
Y397022D01*
X228037D01*
X225905Y398621D02*
X226971D01*
D73*
X102500Y471350D02*
Y491050D01*
X202500D01*
Y471350D02*
Y491050D01*
X102500Y471350D02*
X202500D01*
X150909Y441035D02*
X152091Y441035D01*
X150909Y441035D02*
X152091Y441035D01*
X148449Y439362D02*
Y440543D01*
Y439362D02*
Y440543D01*
Y437394D02*
X148449Y438575D01*
X148449Y437394D02*
X148449Y438575D01*
X148449Y435425D02*
X148449Y436606D01*
X148449Y435425D02*
X148449Y436606D01*
X148449Y433457D02*
Y434638D01*
Y433457D02*
Y434638D01*
X150909Y432965D02*
X152091Y432965D01*
X150909Y432965D02*
X152091Y432965D01*
X154551Y433457D02*
Y434638D01*
Y433457D02*
Y434638D01*
X154551Y435425D02*
X154551Y436606D01*
X154551Y435425D02*
X154551Y436606D01*
X154551Y437394D02*
X154551Y438575D01*
X154551Y437394D02*
X154551Y438575D01*
Y439362D02*
Y440543D01*
Y439362D02*
Y440543D01*
X148449Y432965D02*
X154551Y432965D01*
Y441035D01*
X148449Y441035D02*
X154551Y441035D01*
X148449Y432965D02*
Y441035D01*
Y436035D02*
X153449Y441035D01*
D74*
X102500Y491500D02*
X202500D01*
X102500Y471500D02*
Y491500D01*
Y471500D02*
X202500D01*
Y491500D01*
M02*
