G04*
G04 #@! TF.GenerationSoftware,Altium Limited,Altium Designer,21.4.1 (30)*
G04*
G04 Layer_Color=2752767*
%FSLAX25Y25*%
%MOIN*%
G70*
G04*
G04 #@! TF.SameCoordinates,C40CE6D3-04EA-4A21-B757-E25C397C2047*
G04*
G04*
G04 #@! TF.FilePolarity,Positive*
G04*
G01*
G75*
%ADD76C,0.00200*%
%ADD77C,0.00267*%
D76*
X134168Y440168D02*
Y441768D01*
X135768D01*
Y440168D01*
X134168D01*
Y436231D02*
Y437831D01*
X135768D01*
Y436231D01*
X134168D01*
X130231Y440168D02*
Y441768D01*
X131831D01*
Y440168D01*
X130231D01*
Y436231D02*
Y437831D01*
X131831D01*
Y436231D01*
X130231D01*
X173394Y414007D02*
X172594Y415607D01*
X174194D01*
X173394Y414007D01*
X192488D02*
X191688Y415607D01*
X193288D01*
X192488Y414007D01*
X185200Y450200D02*
Y451800D01*
X186800D01*
Y450200D01*
X185200D01*
X181336Y458891D02*
Y460491D01*
X182936D01*
Y458891D01*
X181336D01*
X198200Y441700D02*
Y443300D01*
X199800D01*
Y441700D01*
X198200D01*
X197700Y431200D02*
Y432800D01*
X199300D01*
Y431200D01*
X197700D01*
X114200Y413700D02*
Y415300D01*
X115800D01*
Y413700D01*
X114200D01*
X104700Y448700D02*
Y450300D01*
X106300D01*
Y448700D01*
X104700D01*
X122200Y435200D02*
Y436800D01*
X123800D01*
Y435200D01*
X122200D01*
X199700Y418200D02*
Y419800D01*
X201300D01*
Y418200D01*
X199700D01*
X190700Y455700D02*
Y457300D01*
X192300D01*
Y455700D01*
X190700D01*
X123700Y419200D02*
Y420800D01*
X125300D01*
Y419200D01*
X123700D01*
X104200Y459200D02*
Y460800D01*
X105800D01*
Y459200D01*
X104200D01*
X155700Y404700D02*
Y406300D01*
X157300D01*
Y404700D01*
X155700D01*
X179700Y408200D02*
Y409800D01*
X181300D01*
Y408200D01*
X179700D01*
X164700Y432700D02*
Y434300D01*
X166300D01*
Y432700D01*
X164700D01*
X147200Y430700D02*
Y432300D01*
X148800D01*
Y430700D01*
X147200D01*
X163700Y420700D02*
Y422300D01*
X165300D01*
Y420700D01*
X163700D01*
X115200Y400700D02*
Y402300D01*
X116800D01*
Y400700D01*
X115200D01*
X143700Y447200D02*
Y448800D01*
X145300D01*
Y447200D01*
X143700D01*
X120700Y446700D02*
Y448300D01*
X122300D01*
Y446700D01*
X120700D01*
X127700Y460200D02*
Y461800D01*
X129300D01*
Y460200D01*
X127700D01*
X156700D02*
Y461800D01*
X158300D01*
Y460200D01*
X156700D01*
X152700Y456700D02*
Y458300D01*
X154300D01*
Y456700D01*
X152700D01*
X172700Y446200D02*
Y447800D01*
X174300D01*
Y446200D01*
X172700D01*
X176700Y450200D02*
Y451800D01*
X178300D01*
Y450200D01*
X176700D01*
X162200Y449200D02*
Y450800D01*
X163800D01*
Y449200D01*
X162200D01*
X171200Y460700D02*
Y462300D01*
X172800D01*
Y460700D01*
X171200D01*
X126700Y446700D02*
Y448300D01*
X128300D01*
Y446700D01*
X126700D01*
X152700Y441700D02*
Y443300D01*
X154300D01*
Y441700D01*
X152700D01*
X137200Y445200D02*
Y446800D01*
X138800D01*
Y445200D01*
X137200D01*
X158200Y423200D02*
Y424800D01*
X159800D01*
Y423200D01*
X158200D01*
X156700Y437200D02*
Y438800D01*
X158300D01*
Y437200D01*
X156700D01*
X122247Y439318D02*
Y440918D01*
X123847D01*
Y439318D01*
X122247D01*
X163700Y443200D02*
Y444800D01*
X165300D01*
Y443200D01*
X163700D01*
X169200Y458200D02*
Y459800D01*
X170800D01*
Y458200D01*
X169200D01*
X136700Y460200D02*
Y461800D01*
X138300D01*
Y460200D01*
X136700D01*
X107700Y480200D02*
Y481800D01*
X109300D01*
Y480200D01*
X107700D01*
X118200D02*
Y481800D01*
X119800D01*
Y480200D01*
X118200D01*
X160700Y482700D02*
Y484300D01*
X162300D01*
Y482700D01*
X160700D01*
X165200Y454200D02*
Y455800D01*
X166800D01*
Y454200D01*
X165200D01*
X180700Y441200D02*
Y442800D01*
X182300D01*
Y441200D01*
X180700D01*
X174700Y431700D02*
Y433300D01*
X176300D01*
Y431700D01*
X174700D01*
X130700Y478700D02*
Y480300D01*
X132300D01*
Y478700D01*
X130700D01*
X140700D02*
Y480300D01*
X142300D01*
Y478700D01*
X140700D01*
Y482700D02*
Y484300D01*
X142300D01*
Y482700D01*
X140700D01*
X110700D02*
Y484300D01*
X112300D01*
Y482700D01*
X110700D01*
X200700Y478700D02*
Y480300D01*
X202300D01*
Y478700D01*
X200700D01*
X190700D02*
Y480300D01*
X192300D01*
Y478700D01*
X190700D01*
X200700Y482700D02*
Y484300D01*
X202300D01*
Y482700D01*
X200700D01*
X190700D02*
Y484300D01*
X192300D01*
Y482700D01*
X190700D01*
X180700Y478700D02*
Y480300D01*
X182300D01*
Y478700D01*
X180700D01*
X172700Y450200D02*
Y451800D01*
X174300D01*
Y450200D01*
X172700D01*
X176700Y446200D02*
Y447800D01*
X178300D01*
Y446200D01*
X176700D01*
X170700Y482700D02*
Y484300D01*
X172300D01*
Y482700D01*
X170700D01*
X180700D02*
Y484300D01*
X182300D01*
Y482700D01*
X180700D01*
X150700Y478700D02*
Y480300D01*
X152300D01*
Y478700D01*
X150700D01*
D77*
X167599Y402681D02*
X167046Y403442D01*
X166152Y403151D01*
Y402211D01*
X167046Y401920D01*
X167599Y402681D01*
X199883D02*
X199330Y403442D01*
X198435Y403151D01*
Y402211D01*
X199330Y401920D01*
X199883Y402681D01*
M02*
