G04*
G04 #@! TF.GenerationSoftware,Altium Limited,Altium Designer,21.4.1 (30)*
G04*
G04 Layer_Physical_Order=2*
G04 Layer_Color=32768*
%FSLAX25Y25*%
%MOIN*%
G70*
G04*
G04 #@! TF.SameCoordinates,C40CE6D3-04EA-4A21-B757-E25C397C2047*
G04*
G04*
G04 #@! TF.FilePolarity,Negative*
G04*
G01*
G75*
%ADD63C,0.04000*%
G04:AMPARAMS|DCode=64|XSize=71.811mil|YSize=71.811mil|CornerRadius=0mil|HoleSize=0mil|Usage=FLASHONLY|Rotation=0.000|XOffset=0mil|YOffset=0mil|HoleType=Round|Shape=Relief|Width=10mil|Gap=10mil|Entries=4|*
%AMTHD64*
7,0,0,0.07181,0.05181,0.01000,45*
%
%ADD64THD64*%
%AMTHOVALD65*
21,1,0.02465,0.08756,0,0,90.0*
1,1,0.08756,0.00000,-0.01232*
1,1,0.08756,0.00000,0.01232*
21,0,0.02465,0.06756,0,0,90.0*
1,0,0.06756,0.00000,-0.01232*
1,0,0.06756,0.00000,0.01232*
4,0,4,0.00354,-0.00879,0.03449,-0.03974,0.02742,-0.04682,-0.00354,-0.01586,0.00354,-0.00879,0.0*
4,0,4,0.00354,0.01586,-0.02742,0.04682,-0.03449,0.03974,-0.00354,0.00879,0.00354,0.01586,0.0*
4,0,4,0.00354,-0.01586,-0.02742,-0.04682,-0.03449,-0.03974,-0.00354,-0.00879,0.00354,-0.01586,0.0*
4,0,4,0.00354,0.00879,0.03449,0.03974,0.02742,0.04682,-0.00354,0.01586,0.00354,0.00879,0.0*
%
%ADD65THOVALD65*%

%AMTHOVALD66*
21,1,0.01575,0.08559,0,0,90.0*
1,1,0.08559,0.00000,-0.00787*
1,1,0.08559,0.00000,0.00787*
21,0,0.01575,0.06559,0,0,90.0*
1,0,0.06559,0.00000,-0.00787*
1,0,0.06559,0.00000,0.00787*
4,0,4,0.00354,-0.00434,0.03380,-0.03460,0.02673,-0.04167,-0.00354,-0.01141,0.00354,-0.00434,0.0*
4,0,4,0.00354,0.01141,-0.02673,0.04167,-0.03380,0.03460,-0.00354,0.00434,0.00354,0.01141,0.0*
4,0,4,0.00354,-0.01141,-0.02673,-0.04167,-0.03380,-0.03460,-0.00354,-0.00434,0.00354,-0.01141,0.0*
4,0,4,0.00354,0.00434,0.03380,0.03460,0.02673,0.04167,-0.00354,0.01141,0.00354,0.00434,0.0*
%
%ADD66THOVALD66*%

%ADD67C,0.05181*%
D63*
X100500Y395500D02*
X205000D01*
Y500000D01*
X100500D02*
X205000D01*
X100500Y395500D02*
Y500000D01*
D64*
X134968Y440968D02*
D03*
Y437031D02*
D03*
X131031Y440968D02*
D03*
Y437031D02*
D03*
X199000Y442500D02*
D03*
X200500Y419000D02*
D03*
X156500Y405500D02*
D03*
X180500Y409000D02*
D03*
X165500Y433500D02*
D03*
X148000Y431500D02*
D03*
X116000Y401500D02*
D03*
X144500Y448000D02*
D03*
X121500Y447500D02*
D03*
X128500Y461000D02*
D03*
X173500Y447000D02*
D03*
X177500Y451000D02*
D03*
X137500Y461000D02*
D03*
X161500Y483500D02*
D03*
X175500Y432500D02*
D03*
X181500Y479500D02*
D03*
X173500Y451000D02*
D03*
X177500Y447000D02*
D03*
D65*
X166799Y402681D02*
D03*
X199083D02*
D03*
D66*
X173394Y414807D02*
D03*
X192488D02*
D03*
D67*
X186000Y451000D02*
D03*
X182136Y459691D02*
D03*
X198500Y432000D02*
D03*
X115000Y414500D02*
D03*
X105500Y449500D02*
D03*
X123000Y436000D02*
D03*
X191500Y456500D02*
D03*
X124500Y420000D02*
D03*
X105000Y460000D02*
D03*
X164500Y421500D02*
D03*
X157500Y461000D02*
D03*
X153500Y457500D02*
D03*
X163000Y450000D02*
D03*
X172000Y461500D02*
D03*
X127500Y447500D02*
D03*
X153500Y442500D02*
D03*
X138000Y446000D02*
D03*
X159000Y424000D02*
D03*
X157500Y438000D02*
D03*
X123047Y440118D02*
D03*
X164500Y444000D02*
D03*
X170000Y459000D02*
D03*
X108500Y481000D02*
D03*
X119000D02*
D03*
X166000Y455000D02*
D03*
X181500Y442000D02*
D03*
X131500Y479500D02*
D03*
X141500D02*
D03*
Y483500D02*
D03*
X111500D02*
D03*
X201500Y479500D02*
D03*
X191500D02*
D03*
X201500Y483500D02*
D03*
X191500D02*
D03*
X171500D02*
D03*
X181500D02*
D03*
X151500Y479500D02*
D03*
M02*
