G04*
G04 #@! TF.GenerationSoftware,Altium Limited,Altium Designer,21.4.1 (30)*
G04*
G04 Layer_Color=16711935*
%FSLAX25Y25*%
%MOIN*%
G70*
G04*
G04 #@! TF.SameCoordinates,C40CE6D3-04EA-4A21-B757-E25C397C2047*
G04*
G04*
G04 #@! TF.FilePolarity,Negative*
G04*
G01*
G75*
%ADD17R,0.04658X0.04422*%
%ADD27R,0.04343X0.04619*%
%ADD35R,0.04619X0.04343*%
%ADD36O,0.04343X0.07887*%
%ADD37O,0.03674X0.06548*%
%ADD38C,0.02769*%
%ADD70R,0.03900X0.06100*%
D17*
X161500Y431449D02*
D03*
Y437551D02*
D03*
D27*
X177008Y463500D02*
D03*
X182992D02*
D03*
D35*
X158000Y449992D02*
D03*
Y444008D02*
D03*
D36*
X166799Y402681D02*
D03*
X199083D02*
D03*
D37*
X173394Y414807D02*
D03*
X192488D02*
D03*
D38*
X186000Y451000D02*
D03*
X182136Y459691D02*
D03*
X199000Y442500D02*
D03*
X198500Y432000D02*
D03*
X115000Y414500D02*
D03*
X105500Y449500D02*
D03*
X123000Y436000D02*
D03*
X200500Y419000D02*
D03*
X191500Y456500D02*
D03*
X124500Y420000D02*
D03*
X105000Y460000D02*
D03*
X156500Y405500D02*
D03*
X180500Y409000D02*
D03*
X165500Y433500D02*
D03*
X148000Y431500D02*
D03*
X164500Y421500D02*
D03*
X116000Y401500D02*
D03*
X144500Y448000D02*
D03*
X121500Y447500D02*
D03*
X128500Y461000D02*
D03*
X157500D02*
D03*
X153500Y457500D02*
D03*
X173500Y447000D02*
D03*
X177500Y451000D02*
D03*
X163000Y450000D02*
D03*
X172000Y461500D02*
D03*
X127500Y447500D02*
D03*
X153500Y442500D02*
D03*
X138000Y446000D02*
D03*
X159000Y424000D02*
D03*
X157500Y438000D02*
D03*
X123047Y440118D02*
D03*
X164500Y444000D02*
D03*
X170000Y459000D02*
D03*
X137500Y461000D02*
D03*
X108500Y481000D02*
D03*
X119000D02*
D03*
X161500Y483500D02*
D03*
X166000Y455000D02*
D03*
X181500Y442000D02*
D03*
X175500Y432500D02*
D03*
X131500Y479500D02*
D03*
X141500D02*
D03*
Y483500D02*
D03*
X111500D02*
D03*
X201500Y479500D02*
D03*
X191500D02*
D03*
X201500Y483500D02*
D03*
X191500D02*
D03*
X181500Y479500D02*
D03*
X173500Y451000D02*
D03*
X177500Y447000D02*
D03*
X171500Y483500D02*
D03*
X181500D02*
D03*
X151500Y479500D02*
D03*
D70*
X197500Y492500D02*
D03*
Y469900D02*
D03*
X187500Y492500D02*
D03*
Y469900D02*
D03*
X177500Y492500D02*
D03*
Y469900D02*
D03*
X167500Y492500D02*
D03*
Y469900D02*
D03*
X157500Y492500D02*
D03*
Y469900D02*
D03*
X147500Y492500D02*
D03*
Y469900D02*
D03*
X137500Y492500D02*
D03*
Y469900D02*
D03*
X127500Y492500D02*
D03*
Y469900D02*
D03*
X117500Y492500D02*
D03*
Y469900D02*
D03*
X107500Y492500D02*
D03*
Y469900D02*
D03*
M02*
