G04*
G04 #@! TF.GenerationSoftware,Altium Limited,Altium Designer,21.4.1 (30)*
G04*
G04 Layer_Color=128*
%FSLAX25Y25*%
%MOIN*%
G70*
G04*
G04 #@! TF.SameCoordinates,C40CE6D3-04EA-4A21-B757-E25C397C2047*
G04*
G04*
G04 #@! TF.FilePolarity,Positive*
G04*
G01*
G75*
%ADD76C,0.00200*%
D76*
X134378Y440968D02*
X135559D01*
X134968Y440378D02*
Y441559D01*
X134378Y437031D02*
X135559D01*
X134968Y436441D02*
Y437622D01*
X130441Y440968D02*
X131622D01*
X131031Y440378D02*
Y441559D01*
X130441Y437031D02*
X131622D01*
X131031Y436441D02*
Y437622D01*
X165421Y402681D02*
X168177D01*
X166799Y401303D02*
Y404059D01*
X172114Y414807D02*
X174673D01*
X173394Y413527D02*
Y416086D01*
X197705Y402681D02*
X200461D01*
X199083Y401303D02*
Y404059D01*
X191209Y414807D02*
X193768D01*
X192488Y413527D02*
Y416086D01*
X185409Y451000D02*
X186591D01*
X186000Y450410D02*
Y451590D01*
X181545Y459691D02*
X182726D01*
X182136Y459101D02*
Y460282D01*
X198409Y442500D02*
X199591D01*
X199000Y441910D02*
Y443090D01*
X197909Y432000D02*
X199091D01*
X198500Y431410D02*
Y432590D01*
X114409Y414500D02*
X115591D01*
X115000Y413909D02*
Y415091D01*
X104909Y449500D02*
X106091D01*
X105500Y448910D02*
Y450091D01*
X122409Y436000D02*
X123591D01*
X123000Y435409D02*
Y436590D01*
X199909Y419000D02*
X201091D01*
X200500Y418409D02*
Y419591D01*
X190909Y456500D02*
X192091D01*
X191500Y455909D02*
Y457091D01*
X123909Y420000D02*
X125091D01*
X124500Y419410D02*
Y420590D01*
X104409Y460000D02*
X105591D01*
X105000Y459410D02*
Y460591D01*
X155909Y405500D02*
X157091D01*
X156500Y404910D02*
Y406090D01*
X179909Y409000D02*
X181091D01*
X180500Y408410D02*
Y409590D01*
X164909Y433500D02*
X166091D01*
X165500Y432909D02*
Y434091D01*
X147409Y431500D02*
X148591D01*
X148000Y430909D02*
Y432091D01*
X163909Y421500D02*
X165091D01*
X164500Y420910D02*
Y422090D01*
X115409Y401500D02*
X116591D01*
X116000Y400910D02*
Y402091D01*
X143909Y448000D02*
X145091D01*
X144500Y447409D02*
Y448591D01*
X120909Y447500D02*
X122091D01*
X121500Y446910D02*
Y448091D01*
X127909Y461000D02*
X129091D01*
X128500Y460409D02*
Y461590D01*
X156909Y461000D02*
X158091D01*
X157500Y460409D02*
Y461590D01*
X152909Y457500D02*
X154091D01*
X153500Y456910D02*
Y458090D01*
X172909Y447000D02*
X174091D01*
X173500Y446410D02*
Y447590D01*
X176909Y451000D02*
X178091D01*
X177500Y450410D02*
Y451590D01*
X162409Y450000D02*
X163591D01*
X163000Y449409D02*
Y450591D01*
X171409Y461500D02*
X172591D01*
X172000Y460910D02*
Y462090D01*
X126909Y447500D02*
X128091D01*
X127500Y446910D02*
Y448091D01*
X152909Y442500D02*
X154091D01*
X153500Y441910D02*
Y443090D01*
X137409Y446000D02*
X138591D01*
X138000Y445409D02*
Y446591D01*
X158409Y424000D02*
X159591D01*
X159000Y423410D02*
Y424590D01*
X156909Y438000D02*
X158091D01*
X157500Y437409D02*
Y438590D01*
X122457Y440118D02*
X123638D01*
X123047Y439528D02*
Y440709D01*
X163909Y444000D02*
X165091D01*
X164500Y443409D02*
Y444591D01*
X169409Y459000D02*
X170591D01*
X170000Y458410D02*
Y459590D01*
X136909Y461000D02*
X138091D01*
X137500Y460409D02*
Y461590D01*
X107909Y481000D02*
X109091D01*
X108500Y480409D02*
Y481591D01*
X118409Y481000D02*
X119591D01*
X119000Y480409D02*
Y481591D01*
X160909Y483500D02*
X162091D01*
X161500Y482909D02*
Y484091D01*
X165409Y455000D02*
X166591D01*
X166000Y454410D02*
Y455590D01*
X180909Y442000D02*
X182091D01*
X181500Y441409D02*
Y442591D01*
X174909Y432500D02*
X176091D01*
X175500Y431910D02*
Y433090D01*
X130909Y479500D02*
X132091D01*
X131500Y478909D02*
Y480091D01*
X140909Y479500D02*
X142091D01*
X141500Y478909D02*
Y480091D01*
X140909Y483500D02*
X142091D01*
X141500Y482909D02*
Y484091D01*
X110909Y483500D02*
X112091D01*
X111500Y482909D02*
Y484091D01*
X200909Y479500D02*
X202091D01*
X201500Y478909D02*
Y480091D01*
X190909Y479500D02*
X192091D01*
X191500Y478909D02*
Y480091D01*
X200909Y483500D02*
X202091D01*
X201500Y482909D02*
Y484091D01*
X190909Y483500D02*
X192091D01*
X191500Y482909D02*
Y484091D01*
X180909Y479500D02*
X182091D01*
X181500Y478909D02*
Y480091D01*
X172909Y451000D02*
X174091D01*
X173500Y450410D02*
Y451590D01*
X176909Y447000D02*
X178091D01*
X177500Y446410D02*
Y447590D01*
X170909Y483500D02*
X172091D01*
X171500Y482909D02*
Y484091D01*
X180909Y483500D02*
X182091D01*
X181500Y482909D02*
Y484091D01*
X150909Y479500D02*
X152091D01*
X151500Y478909D02*
Y480091D01*
M02*
