G04*
G04 #@! TF.GenerationSoftware,Altium Limited,Altium Designer,21.4.1 (30)*
G04*
G04 Layer_Physical_Order=4*
G04 Layer_Color=16711680*
%FSLAX25Y25*%
%MOIN*%
G70*
G04*
G04 #@! TF.SameCoordinates,C40CE6D3-04EA-4A21-B757-E25C397C2047*
G04*
G04*
G04 #@! TF.FilePolarity,Positive*
G04*
G01*
G75*
%ADD40R,0.03858X0.03622*%
%ADD50R,0.03543X0.03819*%
%ADD58R,0.03819X0.03543*%
%ADD59C,0.01000*%
%ADD60C,0.01968*%
%ADD61O,0.03543X0.07087*%
%ADD62O,0.02874X0.05748*%
%ADD70R,0.03900X0.06100*%
G36*
X204500Y396000D02*
X101500D01*
X101000Y396500D01*
Y499500D01*
X204500D01*
Y396000D01*
D02*
G37*
%LPC*%
G36*
X160450Y496550D02*
X158000D01*
Y493000D01*
X160450D01*
Y496550D01*
D02*
G37*
G36*
X157000D02*
X154550D01*
Y493000D01*
X157000D01*
Y496550D01*
D02*
G37*
G36*
X149650Y495750D02*
X145350D01*
Y489250D01*
X149650D01*
Y495750D01*
D02*
G37*
G36*
X162000Y485441D02*
Y484000D01*
X163441D01*
X163182Y484624D01*
X162624Y485182D01*
X162000Y485441D01*
D02*
G37*
G36*
X160450Y492000D02*
X154550D01*
Y488450D01*
X156786D01*
Y487500D01*
X156841Y487227D01*
X156995Y486995D01*
X159686Y484305D01*
X159559Y484000D01*
X161000D01*
Y485441D01*
X160695Y485314D01*
X158214Y487796D01*
Y488450D01*
X160450D01*
Y492000D01*
D02*
G37*
G36*
X199650Y495750D02*
X195350D01*
Y489250D01*
X196786D01*
Y487500D01*
X196841Y487227D01*
X196995Y486995D01*
X200316Y483675D01*
Y483264D01*
X200496Y482829D01*
X200829Y482496D01*
X201264Y482316D01*
X201736D01*
X202171Y482496D01*
X202504Y482829D01*
X202684Y483264D01*
Y483736D01*
X202504Y484171D01*
X202171Y484504D01*
X201736Y484684D01*
X201325D01*
X198214Y487796D01*
Y489250D01*
X199650D01*
Y495750D01*
D02*
G37*
G36*
X189650D02*
X185350D01*
Y489250D01*
X186786D01*
Y487500D01*
X186841Y487227D01*
X186995Y486995D01*
X190316Y483675D01*
Y483264D01*
X190496Y482829D01*
X190829Y482496D01*
X191264Y482316D01*
X191736D01*
X192171Y482496D01*
X192504Y482829D01*
X192684Y483264D01*
Y483736D01*
X192504Y484171D01*
X192171Y484504D01*
X191736Y484684D01*
X191325D01*
X188214Y487796D01*
Y489250D01*
X189650D01*
Y495750D01*
D02*
G37*
G36*
X179650D02*
X175350D01*
Y489250D01*
X176786D01*
Y487500D01*
X176841Y487227D01*
X176995Y486995D01*
X180316Y483675D01*
Y483264D01*
X180496Y482829D01*
X180829Y482496D01*
X181264Y482316D01*
X181736D01*
X182171Y482496D01*
X182504Y482829D01*
X182684Y483264D01*
Y483736D01*
X182504Y484171D01*
X182171Y484504D01*
X181736Y484684D01*
X181325D01*
X178214Y487796D01*
Y489250D01*
X179650D01*
Y495750D01*
D02*
G37*
G36*
X169650D02*
X165350D01*
Y489250D01*
X166786D01*
Y487500D01*
X166841Y487227D01*
X166995Y486995D01*
X170316Y483675D01*
Y483264D01*
X170496Y482829D01*
X170829Y482496D01*
X171264Y482316D01*
X171736D01*
X172171Y482496D01*
X172504Y482829D01*
X172684Y483264D01*
Y483736D01*
X172504Y484171D01*
X172171Y484504D01*
X171736Y484684D01*
X171325D01*
X168214Y487796D01*
Y489250D01*
X169650D01*
Y495750D01*
D02*
G37*
G36*
X139650D02*
X135350D01*
Y489250D01*
X136786D01*
Y487500D01*
X136841Y487227D01*
X136995Y486995D01*
X140316Y483675D01*
Y483264D01*
X140496Y482829D01*
X140829Y482496D01*
X141264Y482316D01*
X141736D01*
X142171Y482496D01*
X142504Y482829D01*
X142684Y483264D01*
Y483736D01*
X142504Y484171D01*
X142171Y484504D01*
X141736Y484684D01*
X141325D01*
X138214Y487796D01*
Y489250D01*
X139650D01*
Y495750D01*
D02*
G37*
G36*
X109650D02*
X105350D01*
Y489250D01*
X106786D01*
Y487500D01*
X106841Y487227D01*
X106995Y486995D01*
X110316Y483675D01*
Y483264D01*
X110496Y482829D01*
X110829Y482496D01*
X111264Y482316D01*
X111736D01*
X112171Y482496D01*
X112504Y482829D01*
X112684Y483264D01*
Y483736D01*
X112504Y484171D01*
X112171Y484504D01*
X111736Y484684D01*
X111325D01*
X108214Y487796D01*
Y489250D01*
X109650D01*
Y495750D01*
D02*
G37*
G36*
X163441Y483000D02*
X162000D01*
Y481559D01*
X162624Y481818D01*
X163182Y482376D01*
X163441Y483000D01*
D02*
G37*
G36*
X161000D02*
X159559D01*
X159818Y482376D01*
X160376Y481818D01*
X161000Y481559D01*
Y483000D01*
D02*
G37*
G36*
X182000Y481441D02*
Y480000D01*
X183441D01*
X183182Y480624D01*
X182624Y481182D01*
X182000Y481441D01*
D02*
G37*
G36*
X181000D02*
X180376Y481182D01*
X179818Y480624D01*
X179559Y480000D01*
X181000D01*
Y481441D01*
D02*
G37*
G36*
X183441Y479000D02*
X182000D01*
Y477559D01*
X182624Y477818D01*
X183182Y478376D01*
X183441Y479000D01*
D02*
G37*
G36*
X181000D02*
X179559D01*
X179686Y478695D01*
X176995Y476005D01*
X176841Y475773D01*
X176786Y475500D01*
Y473950D01*
X174550D01*
Y470400D01*
X180450D01*
Y473950D01*
X178214D01*
Y475204D01*
X180695Y477686D01*
X181000Y477559D01*
Y479000D01*
D02*
G37*
G36*
X201736Y480684D02*
X201264D01*
X200829Y480504D01*
X200496Y480171D01*
X200316Y479736D01*
Y479325D01*
X196995Y476005D01*
X196841Y475773D01*
X196786Y475500D01*
Y473150D01*
X195350D01*
Y466650D01*
X199650D01*
Y473150D01*
X198214D01*
Y475204D01*
X201325Y478316D01*
X201736D01*
X202171Y478496D01*
X202504Y478829D01*
X202684Y479264D01*
Y479736D01*
X202504Y480171D01*
X202171Y480504D01*
X201736Y480684D01*
D02*
G37*
G36*
X191736D02*
X191264D01*
X190829Y480504D01*
X190496Y480171D01*
X190316Y479736D01*
Y479325D01*
X186995Y476005D01*
X186841Y475773D01*
X186786Y475500D01*
Y473150D01*
X185350D01*
Y466650D01*
X189650D01*
Y473150D01*
X188214D01*
Y475204D01*
X191325Y478316D01*
X191736D01*
X192171Y478496D01*
X192504Y478829D01*
X192684Y479264D01*
Y479736D01*
X192504Y480171D01*
X192171Y480504D01*
X191736Y480684D01*
D02*
G37*
G36*
X151736D02*
X151264D01*
X150829Y480504D01*
X150496Y480171D01*
X150316Y479736D01*
Y479325D01*
X146995Y476005D01*
X146841Y475773D01*
X146786Y475500D01*
Y473150D01*
X145350D01*
Y466650D01*
X149650D01*
Y473150D01*
X148214D01*
Y475204D01*
X151325Y478316D01*
X151736D01*
X152171Y478496D01*
X152504Y478829D01*
X152684Y479264D01*
Y479736D01*
X152504Y480171D01*
X152171Y480504D01*
X151736Y480684D01*
D02*
G37*
G36*
X141736D02*
X141264D01*
X140829Y480504D01*
X140496Y480171D01*
X140316Y479736D01*
Y479325D01*
X136995Y476005D01*
X136841Y475773D01*
X136786Y475500D01*
Y473150D01*
X135350D01*
Y466650D01*
X139650D01*
Y473150D01*
X138214D01*
Y475204D01*
X141325Y478316D01*
X141736D01*
X142171Y478496D01*
X142504Y478829D01*
X142684Y479264D01*
Y479736D01*
X142504Y480171D01*
X142171Y480504D01*
X141736Y480684D01*
D02*
G37*
G36*
X131736D02*
X131264D01*
X130829Y480504D01*
X130496Y480171D01*
X130316Y479736D01*
Y479325D01*
X126995Y476005D01*
X126841Y475773D01*
X126786Y475500D01*
Y473150D01*
X125350D01*
Y466650D01*
X129650D01*
Y473150D01*
X128214D01*
Y475204D01*
X131325Y478316D01*
X131736D01*
X132171Y478496D01*
X132504Y478829D01*
X132684Y479264D01*
Y479736D01*
X132504Y480171D01*
X132171Y480504D01*
X131736Y480684D01*
D02*
G37*
G36*
X119236Y482184D02*
X118764D01*
X118329Y482004D01*
X117996Y481671D01*
X117816Y481236D01*
Y480764D01*
X117917Y480520D01*
X116995Y479599D01*
X116841Y479367D01*
X116786Y479094D01*
Y473150D01*
X115350D01*
Y466650D01*
X119650D01*
Y473150D01*
X118214D01*
Y478798D01*
X119231Y479816D01*
X119236D01*
X119671Y479996D01*
X120004Y480329D01*
X120184Y480764D01*
Y481236D01*
X120004Y481671D01*
X119671Y482004D01*
X119236Y482184D01*
D02*
G37*
G36*
X108736D02*
X108264D01*
X107829Y482004D01*
X107496Y481671D01*
X107316Y481236D01*
Y480764D01*
X107417Y480520D01*
X106995Y480099D01*
X106841Y479867D01*
X106786Y479594D01*
Y473150D01*
X105350D01*
Y466650D01*
X109650D01*
Y473150D01*
X108214D01*
Y479298D01*
X108731Y479816D01*
X108736D01*
X109171Y479996D01*
X109504Y480329D01*
X109684Y480764D01*
Y481236D01*
X109504Y481671D01*
X109171Y482004D01*
X108736Y482184D01*
D02*
G37*
G36*
X138000Y462941D02*
Y461500D01*
X139441D01*
X139182Y462124D01*
X138624Y462682D01*
X138000Y462941D01*
D02*
G37*
G36*
X137000D02*
X136376Y462682D01*
X135818Y462124D01*
X135559Y461500D01*
X137000D01*
Y462941D01*
D02*
G37*
G36*
X129000D02*
Y461500D01*
X130441D01*
X130182Y462124D01*
X129624Y462682D01*
X129000Y462941D01*
D02*
G37*
G36*
X128000D02*
X127376Y462682D01*
X126818Y462124D01*
X126559Y461500D01*
X128000D01*
Y462941D01*
D02*
G37*
G36*
X180450Y469400D02*
X174550D01*
Y465850D01*
X174636D01*
X175036Y465609D01*
X175036Y465350D01*
Y464214D01*
X174000D01*
X173727Y464159D01*
X173495Y464005D01*
X172175Y462684D01*
X171764D01*
X171329Y462504D01*
X170996Y462171D01*
X170816Y461736D01*
Y461264D01*
X170996Y460829D01*
X171329Y460496D01*
X171764Y460316D01*
X172236D01*
X172671Y460496D01*
X173004Y460829D01*
X173184Y461264D01*
Y461675D01*
X174296Y462786D01*
X175036D01*
Y461390D01*
X178980D01*
Y465350D01*
X178980Y465609D01*
X179380Y465850D01*
X180450D01*
Y469400D01*
D02*
G37*
G36*
X159650Y473150D02*
X155350D01*
Y466650D01*
X156786D01*
Y461961D01*
X156496Y461671D01*
X156316Y461236D01*
Y460764D01*
X156496Y460329D01*
X156829Y459996D01*
X157264Y459816D01*
X157736D01*
X158171Y459996D01*
X158504Y460329D01*
X158684Y460764D01*
Y461236D01*
X158504Y461671D01*
X158214Y461961D01*
Y466650D01*
X159650D01*
Y473150D01*
D02*
G37*
G36*
X139441Y460500D02*
X138000D01*
Y459059D01*
X138624Y459318D01*
X139182Y459876D01*
X139441Y460500D01*
D02*
G37*
G36*
X137000D02*
X135559D01*
X135818Y459876D01*
X136376Y459318D01*
X137000Y459059D01*
Y460500D01*
D02*
G37*
G36*
X130441D02*
X129000D01*
Y459059D01*
X129624Y459318D01*
X130182Y459876D01*
X130441Y460500D01*
D02*
G37*
G36*
X128000D02*
X126559D01*
X126818Y459876D01*
X127376Y459318D01*
X128000Y459059D01*
Y460500D01*
D02*
G37*
G36*
X105236Y461184D02*
X104764D01*
X104329Y461004D01*
X103996Y460671D01*
X103816Y460236D01*
Y459764D01*
X103996Y459329D01*
X104329Y458996D01*
X104764Y458816D01*
X105236D01*
X105671Y458996D01*
X106004Y459329D01*
X106184Y459764D01*
Y460236D01*
X106004Y460671D01*
X105671Y461004D01*
X105236Y461184D01*
D02*
G37*
G36*
X184964Y465610D02*
X181020D01*
Y461390D01*
X182278D01*
Y460876D01*
X181900D01*
X181465Y460695D01*
X181132Y460362D01*
X180951Y459927D01*
Y459456D01*
X181132Y459021D01*
X181465Y458687D01*
X181900Y458507D01*
X182371D01*
X182807Y458687D01*
X183140Y459021D01*
X183320Y459456D01*
Y459866D01*
X183497Y460043D01*
X183651Y460275D01*
X183706Y460548D01*
Y461390D01*
X184964D01*
Y465610D01*
D02*
G37*
G36*
X169650Y473150D02*
X165350D01*
Y466650D01*
X166786D01*
Y465296D01*
X159704Y458214D01*
X154461D01*
X154171Y458504D01*
X153736Y458684D01*
X153264D01*
X152829Y458504D01*
X152496Y458171D01*
X152316Y457736D01*
Y457264D01*
X152496Y456829D01*
X152829Y456496D01*
X153264Y456316D01*
X153736D01*
X154171Y456496D01*
X154461Y456786D01*
X160000D01*
X160273Y456841D01*
X160505Y456995D01*
X168005Y464495D01*
X168159Y464727D01*
X168214Y465000D01*
Y466650D01*
X169650D01*
Y473150D01*
D02*
G37*
G36*
X191736Y457684D02*
X191264D01*
X190829Y457504D01*
X190496Y457171D01*
X190316Y456736D01*
Y456264D01*
X190496Y455829D01*
X190829Y455496D01*
X191264Y455316D01*
X191736D01*
X192171Y455496D01*
X192504Y455829D01*
X192684Y456264D01*
Y456736D01*
X192504Y457171D01*
X192171Y457504D01*
X191736Y457684D01*
D02*
G37*
G36*
X166236Y456184D02*
X165764D01*
X165329Y456004D01*
X164996Y455671D01*
X164816Y455236D01*
Y454764D01*
X164996Y454329D01*
X165329Y453996D01*
X165764Y453816D01*
X166236D01*
X166671Y453996D01*
X167004Y454329D01*
X167184Y454764D01*
Y455236D01*
X167004Y455671D01*
X166671Y456004D01*
X166236Y456184D01*
D02*
G37*
G36*
X177000Y452941D02*
X176376Y452682D01*
X175818Y452124D01*
X175771Y452010D01*
X175229D01*
X175182Y452124D01*
X174624Y452682D01*
X174000Y452941D01*
Y451000D01*
X173500D01*
Y450500D01*
X171559D01*
X171818Y449876D01*
X172376Y449318D01*
X172490Y449271D01*
Y448729D01*
X172376Y448682D01*
X171818Y448124D01*
X171559Y447500D01*
X173500D01*
Y447000D01*
X174000D01*
Y445059D01*
X174624Y445318D01*
X175182Y445876D01*
X175229Y445990D01*
X175771D01*
X175818Y445876D01*
X176376Y445318D01*
X177000Y445059D01*
Y447000D01*
X177500D01*
Y447500D01*
X179441D01*
X179182Y448124D01*
X178624Y448682D01*
X178510Y448729D01*
Y449271D01*
X178624Y449318D01*
X179182Y449876D01*
X179441Y450500D01*
X177500D01*
Y451000D01*
X177000D01*
Y452941D01*
D02*
G37*
G36*
X178000D02*
Y451500D01*
X179441D01*
X179182Y452124D01*
X178624Y452682D01*
X178000Y452941D01*
D02*
G37*
G36*
X173000D02*
X172376Y452682D01*
X171818Y452124D01*
X171559Y451500D01*
X173000D01*
Y452941D01*
D02*
G37*
G36*
X160109Y451964D02*
X155891D01*
Y448021D01*
X160109D01*
Y449286D01*
X162039D01*
X162329Y448996D01*
X162764Y448816D01*
X163236D01*
X163671Y448996D01*
X164004Y449329D01*
X164184Y449764D01*
Y450236D01*
X164004Y450671D01*
X163671Y451004D01*
X163236Y451184D01*
X162764D01*
X162329Y451004D01*
X162039Y450714D01*
X160109D01*
Y451964D01*
D02*
G37*
G36*
X145000Y449941D02*
Y448500D01*
X146441D01*
X146182Y449124D01*
X145624Y449682D01*
X145000Y449941D01*
D02*
G37*
G36*
X144000D02*
X143376Y449682D01*
X142818Y449124D01*
X142559Y448500D01*
X144000D01*
Y449941D01*
D02*
G37*
G36*
X105736Y450684D02*
X105264D01*
X104829Y450504D01*
X104496Y450171D01*
X104316Y449736D01*
Y449264D01*
X104496Y448829D01*
X104829Y448496D01*
X105264Y448316D01*
X105736D01*
X106171Y448496D01*
X106504Y448829D01*
X106684Y449264D01*
Y449736D01*
X106504Y450171D01*
X106171Y450504D01*
X105736Y450684D01*
D02*
G37*
G36*
X122000Y449441D02*
Y448000D01*
X123441D01*
X123182Y448624D01*
X122624Y449182D01*
X122000Y449441D01*
D02*
G37*
G36*
X121000D02*
X120376Y449182D01*
X119818Y448624D01*
X119559Y448000D01*
X121000D01*
Y449441D01*
D02*
G37*
G36*
X127736Y448684D02*
X127264D01*
X126829Y448504D01*
X126496Y448171D01*
X126316Y447736D01*
Y447264D01*
X126496Y446829D01*
X126829Y446496D01*
X127264Y446316D01*
X127736D01*
X128171Y446496D01*
X128504Y446829D01*
X128684Y447264D01*
Y447736D01*
X128504Y448171D01*
X128171Y448504D01*
X127736Y448684D01*
D02*
G37*
G36*
X146441Y447500D02*
X145000D01*
Y446059D01*
X145624Y446318D01*
X146182Y446876D01*
X146441Y447500D01*
D02*
G37*
G36*
X144000D02*
X142559D01*
X142818Y446876D01*
X143376Y446318D01*
X144000Y446059D01*
Y447500D01*
D02*
G37*
G36*
X123441Y447000D02*
X122000D01*
Y445559D01*
X122624Y445818D01*
X123182Y446376D01*
X123441Y447000D01*
D02*
G37*
G36*
X121000D02*
X119559D01*
X119818Y446376D01*
X120376Y445818D01*
X121000Y445559D01*
Y447000D01*
D02*
G37*
G36*
X179441Y446500D02*
X178000D01*
Y445059D01*
X178624Y445318D01*
X179182Y445876D01*
X179441Y446500D01*
D02*
G37*
G36*
X173000D02*
X171559D01*
X171818Y445876D01*
X172376Y445318D01*
X173000Y445059D01*
Y446500D01*
D02*
G37*
G36*
X138236Y447184D02*
X137764D01*
X137329Y447004D01*
X136996Y446671D01*
X136816Y446236D01*
Y445764D01*
X136996Y445329D01*
X137329Y444996D01*
X137764Y444816D01*
X138236D01*
X138671Y444996D01*
X139004Y445329D01*
X139184Y445764D01*
Y446236D01*
X139004Y446671D01*
X138671Y447004D01*
X138236Y447184D01*
D02*
G37*
G36*
X199500Y444441D02*
Y443000D01*
X200941D01*
X200682Y443624D01*
X200124Y444182D01*
X199500Y444441D01*
D02*
G37*
G36*
X198500D02*
X197876Y444182D01*
X197318Y443624D01*
X197059Y443000D01*
X198500D01*
Y444441D01*
D02*
G37*
G36*
X170236Y460184D02*
X169764D01*
X169329Y460004D01*
X168996Y459671D01*
X168816Y459236D01*
Y458764D01*
X168996Y458329D01*
X169286Y458039D01*
Y449796D01*
X164675Y445184D01*
X164264D01*
X163829Y445004D01*
X163496Y444671D01*
X163316Y444236D01*
Y443764D01*
X163496Y443329D01*
X163829Y442996D01*
X164264Y442816D01*
X164736D01*
X165171Y442996D01*
X165504Y443329D01*
X165684Y443764D01*
Y444175D01*
X170505Y448995D01*
X170659Y449227D01*
X170714Y449500D01*
Y458039D01*
X171004Y458329D01*
X171184Y458764D01*
Y459236D01*
X171004Y459671D01*
X170671Y460004D01*
X170236Y460184D01*
D02*
G37*
G36*
X160109Y445979D02*
X155891D01*
Y444722D01*
X155008D01*
X154735Y444667D01*
X154503Y444513D01*
X153675Y443684D01*
X153264D01*
X152829Y443504D01*
X152496Y443171D01*
X152316Y442736D01*
Y442264D01*
X152496Y441829D01*
X152829Y441496D01*
X153264Y441316D01*
X153736D01*
X154171Y441496D01*
X154504Y441829D01*
X154684Y442264D01*
Y442675D01*
X155304Y443294D01*
X155891D01*
Y442036D01*
X160109D01*
Y445979D01*
D02*
G37*
G36*
X135468Y442909D02*
Y441468D01*
X136909D01*
X136651Y442092D01*
X136092Y442651D01*
X135468Y442909D01*
D02*
G37*
G36*
X130531D02*
X129907Y442651D01*
X129349Y442092D01*
X129091Y441468D01*
X130531D01*
Y442909D01*
D02*
G37*
G36*
X181736Y443184D02*
X181264D01*
X180829Y443004D01*
X180496Y442671D01*
X180316Y442236D01*
Y441764D01*
X180496Y441329D01*
X180829Y440996D01*
X181264Y440816D01*
X181736D01*
X182171Y440996D01*
X182504Y441329D01*
X182684Y441764D01*
Y442236D01*
X182504Y442671D01*
X182171Y443004D01*
X181736Y443184D01*
D02*
G37*
G36*
X200941Y442000D02*
X199500D01*
Y440559D01*
X200124Y440818D01*
X200682Y441376D01*
X200941Y442000D01*
D02*
G37*
G36*
X198500D02*
X197059D01*
X197318Y441376D01*
X197876Y440818D01*
X198500Y440559D01*
Y442000D01*
D02*
G37*
G36*
X129650Y495750D02*
X125350D01*
Y489250D01*
X126786D01*
Y485796D01*
X121995Y481005D01*
X121841Y480773D01*
X121786Y480500D01*
Y463796D01*
X114995Y457005D01*
X114841Y456773D01*
X114786Y456500D01*
Y441000D01*
X114841Y440727D01*
X114995Y440495D01*
X115877Y439613D01*
X116109Y439459D01*
X116382Y439404D01*
X122086D01*
X122376Y439114D01*
X122812Y438934D01*
X123283D01*
X123718Y439114D01*
X124051Y439447D01*
X124231Y439882D01*
Y440354D01*
X124051Y440789D01*
X123718Y441122D01*
X123283Y441302D01*
X122812D01*
X122376Y441122D01*
X122086Y440832D01*
X116678D01*
X116214Y441296D01*
Y456204D01*
X123005Y462995D01*
X123159Y463227D01*
X123214Y463500D01*
Y480204D01*
X128005Y484995D01*
X128159Y485227D01*
X128214Y485500D01*
Y489250D01*
X129650D01*
Y495750D01*
D02*
G37*
G36*
X163629Y439562D02*
X159371D01*
Y438714D01*
X158461D01*
X158171Y439004D01*
X157736Y439184D01*
X157264D01*
X156829Y439004D01*
X156539Y438714D01*
X147500D01*
X147227Y438659D01*
X146995Y438505D01*
X123704Y415214D01*
X115961D01*
X115671Y415504D01*
X115236Y415684D01*
X114764D01*
X114329Y415504D01*
X113996Y415171D01*
X113816Y414736D01*
Y414264D01*
X113996Y413829D01*
X114329Y413496D01*
X114764Y413316D01*
X115236D01*
X115671Y413496D01*
X115961Y413786D01*
X124000D01*
X124273Y413841D01*
X124505Y413995D01*
X147796Y437286D01*
X156539D01*
X156829Y436996D01*
X157264Y436816D01*
X157736D01*
X158171Y436996D01*
X158461Y437286D01*
X159371D01*
Y435540D01*
X163629D01*
Y439562D01*
D02*
G37*
G36*
X136909Y436531D02*
X135468D01*
Y435091D01*
X136092Y435349D01*
X136651Y435907D01*
X136909Y436531D01*
D02*
G37*
G36*
X131531Y442909D02*
Y440968D01*
X131031D01*
Y440468D01*
X129091D01*
X129349Y439844D01*
X129907Y439286D01*
X129995Y439250D01*
Y438750D01*
X129907Y438714D01*
X129349Y438155D01*
X129091Y437531D01*
X131031D01*
Y437031D01*
X131531D01*
Y435091D01*
X132155Y435349D01*
X132714Y435907D01*
X132750Y435995D01*
X133250D01*
X133286Y435907D01*
X133844Y435349D01*
X134468Y435091D01*
Y437031D01*
X134968D01*
Y437531D01*
X136909D01*
X136651Y438155D01*
X136092Y438714D01*
X136005Y438750D01*
Y439250D01*
X136092Y439286D01*
X136651Y439844D01*
X136909Y440468D01*
X134968D01*
Y440968D01*
X134468D01*
Y442909D01*
X133844Y442651D01*
X133286Y442092D01*
X133250Y442005D01*
X132750D01*
X132714Y442092D01*
X132155Y442651D01*
X131531Y442909D01*
D02*
G37*
G36*
X130531Y436531D02*
X129091D01*
X129349Y435907D01*
X129907Y435349D01*
X130531Y435091D01*
Y436531D01*
D02*
G37*
G36*
X119650Y495750D02*
X115350D01*
Y489250D01*
X116786D01*
Y485796D01*
X111495Y480505D01*
X111341Y480273D01*
X111286Y480000D01*
Y438000D01*
X111341Y437727D01*
X111495Y437495D01*
X113495Y435495D01*
X113727Y435341D01*
X114000Y435286D01*
X122039D01*
X122329Y434996D01*
X122764Y434816D01*
X123236D01*
X123671Y434996D01*
X124004Y435329D01*
X124184Y435764D01*
Y436236D01*
X124004Y436671D01*
X123671Y437004D01*
X123236Y437184D01*
X122764D01*
X122329Y437004D01*
X122039Y436714D01*
X114296D01*
X112714Y438296D01*
Y479704D01*
X118005Y484995D01*
X118159Y485227D01*
X118214Y485500D01*
Y489250D01*
X119650D01*
Y495750D01*
D02*
G37*
G36*
X166000Y435441D02*
Y434000D01*
X167441D01*
X167182Y434624D01*
X166624Y435182D01*
X166000Y435441D01*
D02*
G37*
G36*
X176000Y434441D02*
Y433000D01*
X177441D01*
X177182Y433624D01*
X176624Y434182D01*
X176000Y434441D01*
D02*
G37*
G36*
X175000D02*
X174376Y434182D01*
X173818Y433624D01*
X173559Y433000D01*
X175000D01*
Y434441D01*
D02*
G37*
G36*
X148500Y433441D02*
Y432000D01*
X149941D01*
X149682Y432624D01*
X149124Y433182D01*
X148500Y433441D01*
D02*
G37*
G36*
X147500D02*
X146876Y433182D01*
X146318Y432624D01*
X146059Y432000D01*
X147500D01*
Y433441D01*
D02*
G37*
G36*
X161000Y434260D02*
X158571D01*
Y431949D01*
X161000D01*
Y434260D01*
D02*
G37*
G36*
X167441Y433000D02*
X166000D01*
Y431559D01*
X166624Y431818D01*
X167182Y432376D01*
X167441Y433000D01*
D02*
G37*
G36*
X165000Y435441D02*
X164376Y435182D01*
X163818Y434624D01*
X163667Y434260D01*
X162000D01*
Y431449D01*
Y428638D01*
X164429D01*
Y431346D01*
X164845Y431624D01*
X165000Y431559D01*
Y433500D01*
Y435441D01*
D02*
G37*
G36*
X198736Y433184D02*
X198264D01*
X197829Y433004D01*
X197496Y432671D01*
X197316Y432236D01*
Y431764D01*
X197496Y431329D01*
X197829Y430996D01*
X198264Y430816D01*
X198736D01*
X199171Y430996D01*
X199504Y431329D01*
X199684Y431764D01*
Y432236D01*
X199504Y432671D01*
X199171Y433004D01*
X198736Y433184D01*
D02*
G37*
G36*
X177441Y432000D02*
X176000D01*
Y430559D01*
X176624Y430818D01*
X177182Y431376D01*
X177441Y432000D01*
D02*
G37*
G36*
X175000D02*
X173559D01*
X173818Y431376D01*
X174376Y430818D01*
X175000Y430559D01*
Y432000D01*
D02*
G37*
G36*
X149941Y431000D02*
X148500D01*
Y429559D01*
X149124Y429818D01*
X149682Y430376D01*
X149941Y431000D01*
D02*
G37*
G36*
X147500D02*
X146059D01*
X146318Y430376D01*
X146876Y429818D01*
X147500Y429559D01*
Y431000D01*
D02*
G37*
G36*
X161000Y430949D02*
X158571D01*
Y428638D01*
X161000D01*
Y430949D01*
D02*
G37*
G36*
X186236Y452184D02*
X185764D01*
X185329Y452004D01*
X184996Y451671D01*
X184816Y451236D01*
Y450764D01*
X184996Y450329D01*
X185329Y449996D01*
X185372Y449978D01*
Y430881D01*
X179204Y424714D01*
X159961D01*
X159671Y425004D01*
X159236Y425184D01*
X158764D01*
X158329Y425004D01*
X157996Y424671D01*
X157816Y424236D01*
Y423764D01*
X157996Y423329D01*
X158329Y422996D01*
X158764Y422816D01*
X159236D01*
X159671Y422996D01*
X159961Y423286D01*
X179500D01*
X179773Y423341D01*
X180005Y423495D01*
X186591Y430081D01*
X186745Y430313D01*
X186800Y430586D01*
Y450125D01*
X187004Y450329D01*
X187184Y450764D01*
Y451236D01*
X187004Y451671D01*
X186671Y452004D01*
X186236Y452184D01*
D02*
G37*
G36*
X164736Y422684D02*
X164264D01*
X163829Y422504D01*
X163496Y422171D01*
X163316Y421736D01*
Y421264D01*
X163496Y420829D01*
X163829Y420496D01*
X164264Y420316D01*
X164736D01*
X165171Y420496D01*
X165504Y420829D01*
X165684Y421264D01*
Y421736D01*
X165504Y422171D01*
X165171Y422504D01*
X164736Y422684D01*
D02*
G37*
G36*
X201000Y420941D02*
Y419500D01*
X202441D01*
X202182Y420124D01*
X201624Y420682D01*
X201000Y420941D01*
D02*
G37*
G36*
X200000D02*
X199376Y420682D01*
X198818Y420124D01*
X198559Y419500D01*
X200000D01*
Y420941D01*
D02*
G37*
G36*
X124736Y421184D02*
X124264D01*
X123829Y421004D01*
X123496Y420671D01*
X123316Y420236D01*
Y419764D01*
X123496Y419329D01*
X123829Y418996D01*
X124264Y418816D01*
X124736D01*
X125171Y418996D01*
X125504Y419329D01*
X125684Y419764D01*
Y420236D01*
X125504Y420671D01*
X125171Y421004D01*
X124736Y421184D01*
D02*
G37*
G36*
X202441Y418500D02*
X201000D01*
Y417059D01*
X201624Y417318D01*
X202182Y417876D01*
X202441Y418500D01*
D02*
G37*
G36*
X200000D02*
X198559D01*
X198818Y417876D01*
X199376Y417318D01*
X200000Y417059D01*
Y418500D01*
D02*
G37*
G36*
X192988Y418629D02*
Y415307D01*
X194973D01*
Y416244D01*
X194784Y417195D01*
X194245Y418001D01*
X193439Y418540D01*
X192988Y418629D01*
D02*
G37*
G36*
X173894D02*
Y415307D01*
X175879D01*
Y416244D01*
X175689Y417195D01*
X175151Y418001D01*
X174345Y418540D01*
X173894Y418629D01*
D02*
G37*
G36*
X191988D02*
X191537Y418540D01*
X190731Y418001D01*
X190193Y417195D01*
X190003Y416244D01*
Y415307D01*
X191988D01*
Y418629D01*
D02*
G37*
G36*
X172894D02*
X172443Y418540D01*
X171637Y418001D01*
X171098Y417195D01*
X170909Y416244D01*
Y415307D01*
X172894D01*
Y418629D01*
D02*
G37*
G36*
X194973Y414307D02*
X192988D01*
Y410985D01*
X193439Y411074D01*
X194245Y411613D01*
X194784Y412419D01*
X194973Y413370D01*
Y414307D01*
D02*
G37*
G36*
X175879D02*
X173894D01*
Y410985D01*
X174345Y411074D01*
X175151Y411613D01*
X175689Y412419D01*
X175879Y413370D01*
Y414307D01*
D02*
G37*
G36*
X191988D02*
X190003D01*
Y413370D01*
X190193Y412419D01*
X190731Y411613D01*
X191537Y411074D01*
X191988Y410985D01*
Y414307D01*
D02*
G37*
G36*
X172894D02*
X170909D01*
Y413370D01*
X171098Y412419D01*
X171637Y411613D01*
X172443Y411074D01*
X172894Y410985D01*
Y414307D01*
D02*
G37*
G36*
X181000Y410941D02*
Y409500D01*
X182441D01*
X182182Y410124D01*
X181624Y410682D01*
X181000Y410941D01*
D02*
G37*
G36*
X180000D02*
X179376Y410682D01*
X178818Y410124D01*
X178559Y409500D01*
X180000D01*
Y410941D01*
D02*
G37*
G36*
X182441Y408500D02*
X181000D01*
Y407059D01*
X181624Y407318D01*
X182182Y407876D01*
X182441Y408500D01*
D02*
G37*
G36*
X180000D02*
X178559D01*
X178818Y407876D01*
X179376Y407318D01*
X180000Y407059D01*
Y408500D01*
D02*
G37*
G36*
X157000Y407441D02*
Y406000D01*
X158441D01*
X158182Y406624D01*
X157624Y407182D01*
X157000Y407441D01*
D02*
G37*
G36*
X156000D02*
X155376Y407182D01*
X154818Y406624D01*
X154559Y406000D01*
X156000D01*
Y407441D01*
D02*
G37*
G36*
X158441Y405000D02*
X157000D01*
Y403559D01*
X157624Y403818D01*
X158182Y404376D01*
X158441Y405000D01*
D02*
G37*
G36*
X156000D02*
X154559D01*
X154818Y404376D01*
X155376Y403818D01*
X156000Y403559D01*
Y405000D01*
D02*
G37*
G36*
X199583Y407183D02*
Y403181D01*
X201878D01*
Y404453D01*
X201783Y405176D01*
X201504Y405851D01*
X201059Y406430D01*
X200480Y406874D01*
X199806Y407153D01*
X199583Y407183D01*
D02*
G37*
G36*
X167299D02*
Y403181D01*
X169595D01*
Y404453D01*
X169500Y405176D01*
X169220Y405851D01*
X168776Y406430D01*
X168197Y406874D01*
X167523Y407153D01*
X167299Y407183D01*
D02*
G37*
G36*
X166299D02*
X166076Y407153D01*
X165401Y406874D01*
X164822Y406430D01*
X164378Y405851D01*
X164099Y405176D01*
X164004Y404453D01*
Y403181D01*
X166299D01*
Y407183D01*
D02*
G37*
G36*
X198583D02*
X198359Y407153D01*
X197685Y406874D01*
X197106Y406430D01*
X196662Y405851D01*
X196382Y405176D01*
X196287Y404453D01*
Y403181D01*
X198583D01*
Y407183D01*
D02*
G37*
G36*
X116500Y403441D02*
Y402000D01*
X117941D01*
X117682Y402624D01*
X117124Y403182D01*
X116500Y403441D01*
D02*
G37*
G36*
X115500D02*
X114876Y403182D01*
X114318Y402624D01*
X114059Y402000D01*
X115500D01*
Y403441D01*
D02*
G37*
G36*
X117941Y401000D02*
X116500D01*
Y399559D01*
X117124Y399818D01*
X117682Y400376D01*
X117941Y401000D01*
D02*
G37*
G36*
X115500D02*
X114059D01*
X114318Y400376D01*
X114876Y399818D01*
X115500Y399559D01*
Y401000D01*
D02*
G37*
G36*
X169595Y402181D02*
X167299D01*
Y398180D01*
X167523Y398209D01*
X168197Y398488D01*
X168776Y398933D01*
X169220Y399512D01*
X169500Y400186D01*
X169595Y400910D01*
Y402181D01*
D02*
G37*
G36*
X201878D02*
X199583D01*
Y398180D01*
X199806Y398209D01*
X200480Y398488D01*
X201059Y398933D01*
X201504Y399512D01*
X201783Y400186D01*
X201878Y400910D01*
Y402181D01*
D02*
G37*
G36*
X198583D02*
X196287D01*
Y400910D01*
X196382Y400186D01*
X196662Y399512D01*
X197106Y398933D01*
X197685Y398488D01*
X198359Y398209D01*
X198583Y398180D01*
Y402181D01*
D02*
G37*
G36*
X166299D02*
X164004D01*
Y400910D01*
X164099Y400186D01*
X164378Y399512D01*
X164822Y398933D01*
X165401Y398488D01*
X166076Y398209D01*
X166299Y398180D01*
Y402181D01*
D02*
G37*
%LPD*%
D40*
X161500Y431449D02*
D03*
Y437551D02*
D03*
D50*
X177008Y463500D02*
D03*
X182992D02*
D03*
D58*
X158000Y449992D02*
D03*
Y444008D02*
D03*
D59*
X186000Y451000D02*
X186086Y450914D01*
Y430586D02*
Y450914D01*
X179500Y424000D02*
X186086Y430586D01*
X182136Y459691D02*
X182992Y460548D01*
Y463500D01*
X112000Y438000D02*
X114000Y436000D01*
X112000Y438000D02*
Y480000D01*
X114000Y436000D02*
X123000D01*
X115500Y441000D02*
Y456500D01*
X116382Y440118D02*
X123047D01*
X115500Y441000D02*
X116382Y440118D01*
X124000Y414500D02*
X147500Y438000D01*
X157500D01*
X115000Y414500D02*
X124000D01*
X112000Y480000D02*
X117500Y485500D01*
X177500Y475500D02*
X181500Y479500D01*
X177500Y469900D02*
Y475500D01*
X157500Y487500D02*
Y492500D01*
Y487500D02*
X161500Y483500D01*
Y431634D02*
X162831Y432965D01*
X162870D02*
X163214Y433309D01*
X165309D02*
X165500Y433500D01*
X161500Y431595D02*
Y431634D01*
X162831Y432965D02*
X162870D01*
X163214Y433309D02*
X165309D01*
X157500Y461000D02*
Y469900D01*
X153500Y457500D02*
X160000D01*
X153500Y442500D02*
X155008Y444008D01*
X158000D01*
X158008Y450000D02*
X163000D01*
X158000Y449992D02*
X158008Y450000D01*
X174000Y463500D02*
X177008D01*
X172000Y461500D02*
X174000Y463500D01*
X159000Y424000D02*
X179500D01*
X160000Y457500D02*
X167500Y465000D01*
Y469900D01*
X157500Y438000D02*
X160906D01*
X161500Y437405D01*
X115500Y456500D02*
X122500Y463500D01*
X164500Y444000D02*
X170000Y449500D01*
Y459000D01*
X122500Y463500D02*
Y480500D01*
X127500Y485500D02*
Y492500D01*
X122500Y480500D02*
X127500Y485500D01*
X107500Y469900D02*
Y479594D01*
X108500Y480594D02*
Y481000D01*
X107500Y479594D02*
X108500Y480594D01*
X117500Y469900D02*
Y479094D01*
X119000Y480594D02*
Y481000D01*
X117500Y479094D02*
X119000Y480594D01*
X117500Y485500D02*
Y492500D01*
X127500Y475500D02*
X131500Y479500D01*
X127500Y469900D02*
Y475500D01*
X137500Y469900D02*
Y475500D01*
X141500Y479500D01*
X137500Y487500D02*
X141500Y483500D01*
X137500Y487500D02*
Y492500D01*
X107500Y487500D02*
Y492500D01*
Y487500D02*
X111500Y483500D01*
X197500Y475500D02*
X201500Y479500D01*
X197500Y469900D02*
Y475500D01*
X187500D02*
X191500Y479500D01*
X187500Y469900D02*
Y475500D01*
X197500Y487500D02*
X201500Y483500D01*
X197500Y487500D02*
Y492500D01*
X187500Y487500D02*
X191500Y483500D01*
X187500Y487500D02*
Y492500D01*
X167500Y487500D02*
Y492500D01*
Y487500D02*
X171500Y483500D01*
X177500Y487500D02*
Y492500D01*
Y487500D02*
X181500Y483500D01*
X147500Y475500D02*
X151500Y479500D01*
X147500Y469900D02*
Y475500D01*
D60*
X134968Y440968D02*
D03*
Y437031D02*
D03*
X131031Y440968D02*
D03*
Y437031D02*
D03*
X186000Y451000D02*
D03*
X182136Y459691D02*
D03*
X199000Y442500D02*
D03*
X198500Y432000D02*
D03*
X115000Y414500D02*
D03*
X105500Y449500D02*
D03*
X123000Y436000D02*
D03*
X200500Y419000D02*
D03*
X191500Y456500D02*
D03*
X124500Y420000D02*
D03*
X105000Y460000D02*
D03*
X156500Y405500D02*
D03*
X180500Y409000D02*
D03*
X165500Y433500D02*
D03*
X148000Y431500D02*
D03*
X164500Y421500D02*
D03*
X116000Y401500D02*
D03*
X144500Y448000D02*
D03*
X121500Y447500D02*
D03*
X128500Y461000D02*
D03*
X157500D02*
D03*
X153500Y457500D02*
D03*
X173500Y447000D02*
D03*
X177500Y451000D02*
D03*
X163000Y450000D02*
D03*
X172000Y461500D02*
D03*
X127500Y447500D02*
D03*
X153500Y442500D02*
D03*
X138000Y446000D02*
D03*
X159000Y424000D02*
D03*
X157500Y438000D02*
D03*
X123047Y440118D02*
D03*
X164500Y444000D02*
D03*
X170000Y459000D02*
D03*
X137500Y461000D02*
D03*
X108500Y481000D02*
D03*
X119000D02*
D03*
X161500Y483500D02*
D03*
X166000Y455000D02*
D03*
X181500Y442000D02*
D03*
X175500Y432500D02*
D03*
X131500Y479500D02*
D03*
X141500D02*
D03*
Y483500D02*
D03*
X111500D02*
D03*
X201500Y479500D02*
D03*
X191500D02*
D03*
X201500Y483500D02*
D03*
X191500D02*
D03*
X181500Y479500D02*
D03*
X173500Y451000D02*
D03*
X177500Y447000D02*
D03*
X171500Y483500D02*
D03*
X181500D02*
D03*
X151500Y479500D02*
D03*
D61*
X166799Y402681D02*
D03*
X199083D02*
D03*
D62*
X173394Y414807D02*
D03*
X192488D02*
D03*
D70*
X197500Y492500D02*
D03*
Y469900D02*
D03*
X187500Y492500D02*
D03*
Y469900D02*
D03*
X177500Y492500D02*
D03*
Y469900D02*
D03*
X167500Y492500D02*
D03*
Y469900D02*
D03*
X157500Y492500D02*
D03*
Y469900D02*
D03*
X147500Y492500D02*
D03*
Y469900D02*
D03*
X137500Y492500D02*
D03*
Y469900D02*
D03*
X127500Y492500D02*
D03*
Y469900D02*
D03*
X117500Y492500D02*
D03*
Y469900D02*
D03*
X107500Y492500D02*
D03*
Y469900D02*
D03*
M02*
