G04*
G04 #@! TF.GenerationSoftware,Altium Limited,Altium Designer,21.4.1 (30)*
G04*
G04 Layer_Physical_Order=3*
G04 Layer_Color=128*
%FSLAX25Y25*%
%MOIN*%
G70*
G04*
G04 #@! TF.SameCoordinates,C40CE6D3-04EA-4A21-B757-E25C397C2047*
G04*
G04*
G04 #@! TF.FilePolarity,Negative*
G04*
G01*
G75*
%ADD59C,0.01000*%
%ADD63C,0.04000*%
G04:AMPARAMS|DCode=64|XSize=71.811mil|YSize=71.811mil|CornerRadius=0mil|HoleSize=0mil|Usage=FLASHONLY|Rotation=0.000|XOffset=0mil|YOffset=0mil|HoleType=Round|Shape=Relief|Width=10mil|Gap=10mil|Entries=4|*
%AMTHD64*
7,0,0,0.07181,0.05181,0.01000,45*
%
%ADD64THD64*%
%ADD67C,0.05181*%
%ADD68O,0.06756X0.09221*%
%ADD69O,0.06559X0.08134*%
D59*
X186000Y447500D02*
X186500Y448000D01*
X186000Y442250D02*
Y447500D01*
Y454500D02*
X186500Y454000D01*
X186000Y454500D02*
Y459875D01*
X186500Y448000D02*
X188000D01*
X186500Y454000D02*
X188000D01*
X186500D02*
X187000D01*
X188000D02*
X189000Y453000D01*
Y449000D02*
Y453000D01*
X188000Y448000D02*
X189000Y449000D01*
Y462875D02*
Y467500D01*
X155500D02*
X205000D01*
X152500Y464500D02*
X155500Y467500D01*
X152500Y463500D02*
Y464500D01*
X186000Y459875D02*
X189000Y462875D01*
X152500Y463000D02*
Y463500D01*
Y461000D02*
Y463000D01*
X165500Y498000D02*
X167500Y500000D01*
X150000Y458500D02*
X152500Y461000D01*
X135000Y458500D02*
X150000D01*
X132500Y456000D02*
X135000Y458500D01*
X132500Y446000D02*
Y456000D01*
X130500Y444000D02*
X132500Y446000D01*
X117000Y444000D02*
X130500D01*
X114500Y446500D02*
X117000Y444000D01*
X114500Y446500D02*
Y448500D01*
X195000Y424500D02*
Y430000D01*
Y424500D02*
X196000Y423500D01*
X205000D01*
X186000Y433000D02*
Y439000D01*
Y433000D02*
X187500Y431500D01*
X193500D01*
X195000Y430000D01*
X114500Y448500D02*
Y454500D01*
X100500D02*
X114500D01*
X186000Y441250D02*
Y442250D01*
Y439000D02*
Y441250D01*
X205000Y459000D02*
Y460500D01*
X204000Y461500D02*
X205000Y460500D01*
D63*
X100500Y395500D02*
X205000D01*
Y500000D01*
X100500D02*
X205000D01*
X100500Y395500D02*
Y500000D01*
D64*
X182136Y459691D02*
D03*
X198500Y432000D02*
D03*
X105500Y449500D02*
D03*
X191500Y456500D02*
D03*
X124500Y420000D02*
D03*
X105000Y460000D02*
D03*
X164500Y421500D02*
D03*
X127500Y447500D02*
D03*
X153500Y442500D02*
D03*
X138000Y446000D02*
D03*
X166000Y455000D02*
D03*
X181500Y442000D02*
D03*
X151500Y479500D02*
D03*
D67*
X134968Y440968D02*
D03*
Y437031D02*
D03*
X131031Y440968D02*
D03*
Y437031D02*
D03*
X186000Y451000D02*
D03*
X199000Y442500D02*
D03*
X115000Y414500D02*
D03*
X123000Y436000D02*
D03*
X200500Y419000D02*
D03*
X156500Y405500D02*
D03*
X180500Y409000D02*
D03*
X165500Y433500D02*
D03*
X148000Y431500D02*
D03*
X116000Y401500D02*
D03*
X144500Y448000D02*
D03*
X121500Y447500D02*
D03*
X128500Y461000D02*
D03*
X157500D02*
D03*
X153500Y457500D02*
D03*
X173500Y447000D02*
D03*
X177500Y451000D02*
D03*
X163000Y450000D02*
D03*
X172000Y461500D02*
D03*
X159000Y424000D02*
D03*
X157500Y438000D02*
D03*
X123047Y440118D02*
D03*
X164500Y444000D02*
D03*
X170000Y459000D02*
D03*
X137500Y461000D02*
D03*
X108500Y481000D02*
D03*
X119000D02*
D03*
X161500Y483500D02*
D03*
X175500Y432500D02*
D03*
X131500Y479500D02*
D03*
X141500D02*
D03*
Y483500D02*
D03*
X111500D02*
D03*
X201500Y479500D02*
D03*
X191500D02*
D03*
X201500Y483500D02*
D03*
X191500D02*
D03*
X181500Y479500D02*
D03*
X173500Y451000D02*
D03*
X177500Y447000D02*
D03*
X171500Y483500D02*
D03*
X181500D02*
D03*
D68*
X166799Y402681D02*
D03*
X199083D02*
D03*
D69*
X173394Y414807D02*
D03*
X192488D02*
D03*
M02*
