M48
;Layer_Color=9474304
;FILE_FORMAT=2:4
INCH,LZ
;TYPE=PLATED
T1F00S00C0.0118
%
T01
X0116Y04015
X0115Y04145
X01245Y042
X0123Y0436
X012305Y044012
X013103Y044097
X013497
Y043703
X013103
X01275Y04475
X01215
X01055Y04495
X0105Y046
X01285Y0461
X01375
X0138Y0446
X01445Y0448
X01535Y04425
Y04575
X0148Y04315
X01575Y0438
X01655Y04335
X01755Y04325
X01815Y0442
X01775Y0447
X01735
Y0451
X01775
X0186
X01915Y04565
X018214Y045969
X0172Y04615
X017Y0459
X0166Y0455
X0163Y045
X01645Y0444
Y04215
X0159Y0424
X01565Y04055
X01805Y0409
X02005Y0419
X01985Y0432
X0199Y04425
X01575Y0461
X01615Y04835
X01715
X01815
Y04795
X01915
Y04835
X02015
Y04795
X01515
X01415
Y04835
X01315Y04795
X0119Y0481
X01115Y04835
X01085Y0481
M30
