G04*
G04 #@! TF.GenerationSoftware,Altium Limited,Altium Designer,21.4.1 (30)*
G04*
G04 Layer_Physical_Order=3*
G04 Layer_Color=128*
%FSLAX25Y25*%
%MOIN*%
G70*
G04*
G04 #@! TF.SameCoordinates,45105DAF-5654-4984-AA32-67A45B9073D8*
G04*
G04*
G04 #@! TF.FilePolarity,Negative*
G04*
G01*
G75*
%ADD15C,0.00800*%
%ADD65C,0.04000*%
%ADD69C,0.02787*%
G04:AMPARAMS|DCode=70|XSize=67.874mil|YSize=67.874mil|CornerRadius=0mil|HoleSize=0mil|Usage=FLASHONLY|Rotation=0.000|XOffset=0mil|YOffset=0mil|HoleType=Round|Shape=Relief|Width=10mil|Gap=10mil|Entries=4|*
%AMTHD70*
7,0,0,0.06787,0.04787,0.01000,45*
%
%ADD70THD70*%
%ADD71C,0.03181*%
%ADD72O,0.04559X0.06134*%
%ADD73O,0.04756X0.07221*%
D15*
X189000Y452900D02*
Y459700D01*
X186000Y447500D02*
X186500Y448000D01*
X186000Y442250D02*
Y447500D01*
X186500Y448000D02*
X188000D01*
X189000Y449000D02*
Y453000D01*
X188000Y448000D02*
X189000Y449000D01*
Y459700D02*
Y467500D01*
X155500D02*
X205000D01*
X152500Y464500D02*
X155500Y467500D01*
X152500Y463500D02*
Y464500D01*
Y463000D02*
Y463500D01*
Y461000D02*
Y463000D01*
X165500Y498000D02*
X167500Y500000D01*
X150000Y458500D02*
X152500Y461000D01*
X135000Y458500D02*
X150000D01*
X132500Y456000D02*
X135000Y458500D01*
X132500Y446000D02*
Y456000D01*
X128600Y442100D02*
X132500Y446000D01*
X118900Y442100D02*
X128600D01*
X114500Y446500D02*
X118900Y442100D01*
X114500Y446500D02*
Y448500D01*
X195000Y424500D02*
Y430000D01*
Y424500D02*
X196000Y423500D01*
X205000D01*
X186000Y433000D02*
Y439000D01*
Y433000D02*
X187500Y431500D01*
X193500D01*
X195000Y430000D01*
X114500Y448500D02*
Y454500D01*
X100500D02*
X114500D01*
X186000Y441250D02*
Y442250D01*
Y439000D02*
Y441250D01*
D65*
X100500Y395500D02*
Y500000D01*
X205000D01*
Y395500D02*
Y500000D01*
X100500Y395500D02*
X205000D01*
D69*
X186100Y454800D02*
D03*
X180400Y429100D02*
D03*
X161500Y431500D02*
D03*
X155300Y430600D02*
D03*
X202600Y449000D02*
D03*
X201000Y445200D02*
D03*
X122900Y447200D02*
D03*
X201000Y417200D02*
D03*
X157700Y436600D02*
D03*
X182800Y432400D02*
D03*
X202600Y409500D02*
D03*
X184800Y424600D02*
D03*
X120700Y422900D02*
D03*
X156600Y452700D02*
D03*
X164100Y450200D02*
D03*
X117200Y404500D02*
D03*
X165800Y425700D02*
D03*
X169700D02*
D03*
X169600Y429500D02*
D03*
X159500Y399600D02*
D03*
X137500Y460400D02*
D03*
X128300Y462100D02*
D03*
X125100Y427400D02*
D03*
X120800D02*
D03*
X122000Y440500D02*
D03*
Y435500D02*
D03*
X170900Y459600D02*
D03*
X174100Y461400D02*
D03*
X186800Y399600D02*
D03*
Y404500D02*
D03*
X179400Y399500D02*
D03*
Y404400D02*
D03*
X177600Y476500D02*
D03*
X157500Y486300D02*
D03*
X177500Y468400D02*
D03*
Y471400D02*
D03*
X157600Y494000D02*
D03*
Y491000D02*
D03*
X173500Y451000D02*
D03*
Y447000D02*
D03*
X175500Y432033D02*
D03*
X167000Y442500D02*
D03*
X159000Y422500D02*
D03*
X155000Y458500D02*
D03*
X159500Y462000D02*
D03*
X141500Y479500D02*
D03*
X108500Y481000D02*
D03*
X115000Y414500D02*
D03*
X177500Y451000D02*
D03*
X119000Y481000D02*
D03*
X131500Y479500D02*
D03*
X201500D02*
D03*
X191500D02*
D03*
X201500Y483500D02*
D03*
X191500D02*
D03*
X177500Y447000D02*
D03*
X171500Y483500D02*
D03*
X181500D02*
D03*
D70*
X126000Y420800D02*
D03*
X130551Y451000D02*
D03*
X122100Y443600D02*
D03*
X147900Y450400D02*
D03*
X147800Y446400D02*
D03*
X187600Y462400D02*
D03*
X191100Y457500D02*
D03*
X199300Y457600D02*
D03*
X195300D02*
D03*
X162800Y453800D02*
D03*
X199400Y432600D02*
D03*
Y437000D02*
D03*
X147600Y476600D02*
D03*
Y471400D02*
D03*
X147500Y468400D02*
D03*
X182400Y441500D02*
D03*
X165000Y456500D02*
D03*
X165500Y419500D02*
D03*
X194300Y437000D02*
D03*
X105500Y449500D02*
D03*
X105000Y460000D02*
D03*
D71*
X131031Y440968D02*
D03*
Y437031D02*
D03*
X134968D02*
D03*
Y440968D02*
D03*
D72*
X192488Y414807D02*
D03*
X173394D02*
D03*
D73*
X199083Y402681D02*
D03*
X166799D02*
D03*
M02*
