G04*
G04 #@! TF.GenerationSoftware,Altium Limited,Altium Designer,21.4.1 (30)*
G04*
G04 Layer_Physical_Order=1*
G04 Layer_Color=255*
%FSLAX25Y25*%
%MOIN*%
G70*
G04*
G04 #@! TF.SameCoordinates,45105DAF-5654-4984-AA32-67A45B9073D8*
G04*
G04*
G04 #@! TF.FilePolarity,Positive*
G04*
G01*
G75*
%ADD15C,0.00800*%
%ADD39R,0.02953X0.02362*%
%ADD40R,0.08071X0.10039*%
G04:AMPARAMS|DCode=41|XSize=35.43mil|YSize=10.24mil|CornerRadius=1.28mil|HoleSize=0mil|Usage=FLASHONLY|Rotation=0.000|XOffset=0mil|YOffset=0mil|HoleType=Round|Shape=RoundedRectangle|*
%AMROUNDEDRECTD41*
21,1,0.03543,0.00768,0,0,0.0*
21,1,0.03287,0.01024,0,0,0.0*
1,1,0.00256,0.01644,-0.00384*
1,1,0.00256,-0.01644,-0.00384*
1,1,0.00256,-0.01644,0.00384*
1,1,0.00256,0.01644,0.00384*
%
%ADD41ROUNDEDRECTD41*%
G04:AMPARAMS|DCode=42|XSize=35.43mil|YSize=10.24mil|CornerRadius=1.28mil|HoleSize=0mil|Usage=FLASHONLY|Rotation=90.000|XOffset=0mil|YOffset=0mil|HoleType=Round|Shape=RoundedRectangle|*
%AMROUNDEDRECTD42*
21,1,0.03543,0.00768,0,0,90.0*
21,1,0.03287,0.01024,0,0,90.0*
1,1,0.00256,0.00384,0.01644*
1,1,0.00256,0.00384,-0.01644*
1,1,0.00256,-0.00384,-0.01644*
1,1,0.00256,-0.00384,0.01644*
%
%ADD42ROUNDEDRECTD42*%
%ADD43R,0.01378X0.02972*%
%ADD44R,0.02775X0.01181*%
%ADD45R,0.02775X0.00984*%
G04:AMPARAMS|DCode=46|XSize=18.11mil|YSize=7.87mil|CornerRadius=0.98mil|HoleSize=0mil|Usage=FLASHONLY|Rotation=90.000|XOffset=0mil|YOffset=0mil|HoleType=Round|Shape=RoundedRectangle|*
%AMROUNDEDRECTD46*
21,1,0.01811,0.00591,0,0,90.0*
21,1,0.01614,0.00787,0,0,90.0*
1,1,0.00197,0.00295,0.00807*
1,1,0.00197,0.00295,-0.00807*
1,1,0.00197,-0.00295,-0.00807*
1,1,0.00197,-0.00295,0.00807*
%
%ADD46ROUNDEDRECTD46*%
G04:AMPARAMS|DCode=47|XSize=31.89mil|YSize=12.6mil|CornerRadius=3.15mil|HoleSize=0mil|Usage=FLASHONLY|Rotation=0.000|XOffset=0mil|YOffset=0mil|HoleType=Round|Shape=RoundedRectangle|*
%AMROUNDEDRECTD47*
21,1,0.03189,0.00630,0,0,0.0*
21,1,0.02559,0.01260,0,0,0.0*
1,1,0.00630,0.01280,-0.00315*
1,1,0.00630,-0.01280,-0.00315*
1,1,0.00630,-0.01280,0.00315*
1,1,0.00630,0.01280,0.00315*
%
%ADD47ROUNDEDRECTD47*%
G04:AMPARAMS|DCode=48|XSize=31.89mil|YSize=12.6mil|CornerRadius=3.15mil|HoleSize=0mil|Usage=FLASHONLY|Rotation=90.000|XOffset=0mil|YOffset=0mil|HoleType=Round|Shape=RoundedRectangle|*
%AMROUNDEDRECTD48*
21,1,0.03189,0.00630,0,0,90.0*
21,1,0.02559,0.01260,0,0,90.0*
1,1,0.00630,0.00315,0.01280*
1,1,0.00630,0.00315,-0.01280*
1,1,0.00630,-0.00315,-0.01280*
1,1,0.00630,-0.00315,0.01280*
%
%ADD48ROUNDEDRECTD48*%
%ADD49R,0.08268X0.08268*%
%ADD50R,0.04331X0.05906*%
%ADD51R,0.03543X0.03819*%
%ADD52R,0.03819X0.03543*%
%ADD53R,0.05413X0.09843*%
%ADD54R,0.01575X0.06890*%
%ADD55R,0.05000X0.14488*%
%ADD56R,0.05059X0.05787*%
%ADD57R,0.03622X0.03858*%
%ADD58R,0.03858X0.03622*%
%ADD59C,0.01000*%
%ADD60C,0.01200*%
%ADD61C,0.00734*%
%ADD62C,0.01968*%
%ADD63O,0.02874X0.05748*%
%ADD64O,0.03543X0.07087*%
G36*
X204600Y396100D02*
X101100D01*
Y499600D01*
X103529D01*
X104200Y499288D01*
X104200Y498800D01*
Y483200D01*
X107131D01*
X107271Y482933D01*
X107377Y482400D01*
X106987Y482011D01*
X106716Y481355D01*
Y480645D01*
X106734Y480600D01*
X106200Y479800D01*
X104200D01*
Y463712D01*
X110800D01*
Y479800D01*
X110800D01*
X110266Y480600D01*
X110284Y480645D01*
Y481355D01*
X110013Y482011D01*
X109623Y482400D01*
X109729Y482933D01*
X109869Y483200D01*
X110800D01*
Y498800D01*
X110800Y499288D01*
X111471Y499600D01*
X113529D01*
X114200Y499288D01*
X114200Y498800D01*
Y483200D01*
X117631D01*
X117771Y482933D01*
X117877Y482400D01*
X117487Y482011D01*
X117216Y481355D01*
Y480645D01*
X117234Y480600D01*
X116700Y479800D01*
X114200D01*
Y463712D01*
X115137D01*
X115936Y463709D01*
X115936Y462223D01*
X114959D01*
X114491Y462130D01*
X114267Y461981D01*
X106860D01*
Y461795D01*
X106060Y461463D01*
X106011Y461513D01*
X105355Y461784D01*
X104645D01*
X103989Y461513D01*
X103487Y461011D01*
X103216Y460355D01*
Y459645D01*
X103487Y458989D01*
X103989Y458487D01*
X104645Y458216D01*
X105355D01*
X106011Y458487D01*
X106060Y458536D01*
X106860Y458205D01*
Y458019D01*
X115940D01*
Y458290D01*
X120183D01*
X120514Y457490D01*
X116682Y453659D01*
X116417Y453262D01*
X116324Y452793D01*
Y435653D01*
X116417Y435185D01*
X116682Y434788D01*
X119219Y432251D01*
X119616Y431985D01*
X120084Y431892D01*
X124143D01*
X124611Y431985D01*
X125008Y432251D01*
X125506Y432749D01*
X128010D01*
X128372Y432821D01*
X128679Y433026D01*
X128884Y433333D01*
X128956Y433695D01*
Y434462D01*
X128884Y434825D01*
X128725Y435063D01*
X128884Y435301D01*
X128956Y435663D01*
Y436431D01*
X128884Y436793D01*
X128725Y437031D01*
X128884Y437270D01*
X128956Y437632D01*
Y438400D01*
X128884Y438762D01*
X128725Y439000D01*
X128884Y439238D01*
X128956Y439600D01*
Y440368D01*
X128884Y440730D01*
X128725Y440968D01*
X128884Y441207D01*
X128956Y441569D01*
Y442337D01*
X128884Y442699D01*
X128679Y443006D01*
X128372Y443211D01*
X128010Y443283D01*
X124722D01*
X124612Y443261D01*
X123999Y443699D01*
X123884Y443855D01*
Y443955D01*
X123613Y444611D01*
X123111Y445113D01*
X122455Y445384D01*
X121745D01*
X121571Y445312D01*
X120771Y445839D01*
Y451611D01*
X123436Y454277D01*
X126757D01*
X126984Y454000D01*
Y445600D01*
X127046Y445288D01*
X127223Y445023D01*
X127488Y444846D01*
X127800Y444784D01*
X128755D01*
X128789Y444612D01*
X128994Y444305D01*
X129301Y444100D01*
X129663Y444028D01*
X130431D01*
X130793Y444100D01*
X131100Y444305D01*
X131305Y444612D01*
X131339Y444784D01*
X133200D01*
X133512Y444846D01*
X133650Y444939D01*
X133788Y444846D01*
X134100Y444784D01*
X134660D01*
X134695Y444612D01*
X134900Y444305D01*
X135207Y444100D01*
X135569Y444028D01*
X136337D01*
X136699Y444100D01*
X137005Y444305D01*
X137211Y444612D01*
X137245Y444784D01*
X141962D01*
X144800Y441947D01*
X144493Y441208D01*
X141691D01*
X141639Y441242D01*
X141278Y441314D01*
X137990D01*
X137628Y441242D01*
X137321Y441037D01*
X137116Y440730D01*
X137044Y440368D01*
Y439600D01*
X137116Y439238D01*
X137275Y439000D01*
X137116Y438762D01*
X137044Y438400D01*
Y437632D01*
X137116Y437270D01*
X137275Y437031D01*
X137116Y436793D01*
X137044Y436431D01*
Y435663D01*
X137116Y435301D01*
X137275Y435063D01*
X137116Y434825D01*
X137044Y434462D01*
Y433695D01*
X137116Y433333D01*
X137321Y433026D01*
X137628Y432821D01*
X137990Y432749D01*
X141278D01*
X141639Y432821D01*
X141644Y432824D01*
X146449D01*
Y432657D01*
X150824D01*
Y434724D01*
X150824D01*
Y438464D01*
X152176D01*
Y434724D01*
X152176D01*
Y432657D01*
X156551D01*
Y432824D01*
X159419D01*
X159887Y432917D01*
X160284Y433182D01*
X163265Y436163D01*
X163530Y436560D01*
X163623Y437028D01*
Y447993D01*
X164046Y448416D01*
X164455D01*
X165111Y448687D01*
X165440Y449016D01*
X165956D01*
X166108Y448914D01*
X166543Y448828D01*
X169102D01*
X169537Y448914D01*
X169906Y449161D01*
X170153Y449530D01*
X170239Y449965D01*
Y450595D01*
X170153Y451029D01*
X170111Y451092D01*
X170177Y451423D01*
X170354Y451688D01*
X170416Y452000D01*
Y453717D01*
X170528Y453860D01*
X171216Y454287D01*
X171346Y454261D01*
X171976D01*
X172411Y454347D01*
X172941Y454536D01*
X173470Y454347D01*
X173906Y454261D01*
X174535D01*
X174970Y454347D01*
X175500Y454536D01*
X176030Y454347D01*
X176465Y454261D01*
X177094D01*
X177530Y454347D01*
X177898Y454594D01*
X178145Y454963D01*
X178231Y455398D01*
Y457957D01*
X178145Y458392D01*
X177898Y458760D01*
X177530Y459007D01*
X177094Y459094D01*
X176465D01*
X176184Y459038D01*
X175638Y459329D01*
X175527Y459420D01*
X175498Y460275D01*
X175613Y460389D01*
X175884Y461045D01*
Y461755D01*
X175613Y462411D01*
X175111Y462913D01*
X174455Y463184D01*
X173745D01*
X173627Y463135D01*
X173184Y463224D01*
X171398D01*
X170800Y463712D01*
X170800Y464023D01*
Y479800D01*
X164200D01*
Y463712D01*
X164262D01*
X164505Y462912D01*
X164435Y462865D01*
X161859Y460289D01*
X161012Y460574D01*
X160961Y460938D01*
X161013Y460989D01*
X161284Y461645D01*
Y462355D01*
X161032Y462965D01*
X160800Y463712D01*
X160800Y463712D01*
X160800Y463712D01*
Y479800D01*
X154200D01*
Y463712D01*
X157557D01*
X157782Y463345D01*
X157946Y462912D01*
X157716Y462355D01*
Y461645D01*
X157987Y460989D01*
X158276Y460700D01*
Y459507D01*
X157584Y458814D01*
X157325Y458828D01*
X156699Y459061D01*
X156513Y459511D01*
X156011Y460013D01*
X155355Y460284D01*
X154645D01*
X153989Y460013D01*
X153515Y459538D01*
X152815D01*
X152347Y459445D01*
X152216Y459358D01*
X152103Y459380D01*
X151495Y459673D01*
X151416Y459759D01*
Y478562D01*
X151477Y478623D01*
X151654Y478888D01*
X151716Y479200D01*
X151654Y479512D01*
X151477Y479777D01*
X151477Y479777D01*
X151277Y479977D01*
X151012Y480154D01*
X150700Y480216D01*
X150700Y480216D01*
X144300D01*
X144298Y480215D01*
X144296Y480216D01*
X144143Y480184D01*
X144023Y480161D01*
X143988Y480154D01*
X143981Y480153D01*
X143375Y480239D01*
X143249Y480285D01*
X143052Y480414D01*
X143013Y480511D01*
X142511Y481013D01*
X141855Y481284D01*
X141145D01*
X140489Y481013D01*
X139987Y480511D01*
X139934Y480381D01*
X139745Y480343D01*
X139348Y480078D01*
X139070Y479800D01*
X134200D01*
Y463712D01*
X140800D01*
Y477485D01*
X141145Y477716D01*
X141855D01*
X142511Y477987D01*
X142690Y478167D01*
X143492Y477837D01*
X143579Y459523D01*
X142882Y458743D01*
X142806Y458723D01*
X122254D01*
X121879Y458649D01*
X121679Y458704D01*
X121080Y459121D01*
Y463028D01*
X121080Y463709D01*
X120800Y464394D01*
Y464509D01*
Y479800D01*
X120800Y479800D01*
X120800D01*
X120766Y480600D01*
X120784Y480645D01*
Y481355D01*
X120513Y482011D01*
X120123Y482400D01*
X120229Y482933D01*
X120369Y483200D01*
X120800D01*
Y498800D01*
X120800Y499288D01*
X121471Y499600D01*
X123529D01*
X124200Y499288D01*
X124200Y498800D01*
Y483200D01*
X130800D01*
Y498800D01*
X130800Y499288D01*
X131471Y499600D01*
X133529D01*
X134200Y499288D01*
X134200Y498800D01*
Y483200D01*
X140800D01*
Y498800D01*
X140800Y499288D01*
X141471Y499600D01*
X143529D01*
X144200Y499288D01*
X144200Y498800D01*
Y483200D01*
X150800D01*
Y498800D01*
X150800Y499288D01*
X151471Y499600D01*
X163529D01*
X164200Y499288D01*
X164200Y498800D01*
Y483200D01*
X169070D01*
X169348Y482922D01*
X169745Y482657D01*
X169934Y482619D01*
X169987Y482489D01*
X170489Y481987D01*
X171145Y481716D01*
X171855D01*
X172511Y481987D01*
X173013Y482489D01*
X173284Y483145D01*
Y483855D01*
X173013Y484511D01*
X172511Y485013D01*
X171855Y485284D01*
X171504D01*
X170800Y485941D01*
Y498800D01*
X170800Y499288D01*
X171471Y499600D01*
X173529D01*
X174200Y499288D01*
X174200Y498800D01*
Y483200D01*
X179070D01*
X179348Y482922D01*
X179745Y482657D01*
X179934Y482619D01*
X179987Y482489D01*
X180489Y481987D01*
X181145Y481716D01*
X181855D01*
X182511Y481987D01*
X183013Y482489D01*
X183284Y483145D01*
Y483855D01*
X183013Y484511D01*
X182511Y485013D01*
X181855Y485284D01*
X181504D01*
X180800Y485941D01*
Y498800D01*
X180800Y499288D01*
X181471Y499600D01*
X183529D01*
X184200Y499288D01*
X184200Y498800D01*
Y483200D01*
X189070D01*
X189348Y482922D01*
X189745Y482657D01*
X189934Y482619D01*
X189987Y482489D01*
X190489Y481987D01*
X190621Y481933D01*
Y481067D01*
X190489Y481013D01*
X189987Y480511D01*
X189934Y480381D01*
X189745Y480343D01*
X189348Y480078D01*
X189070Y479800D01*
X184200D01*
Y463712D01*
X185346D01*
X185881Y462912D01*
X185816Y462755D01*
Y462045D01*
X186087Y461389D01*
X186589Y460887D01*
X187146Y460412D01*
X187084Y460100D01*
X187084Y460100D01*
X187084Y459882D01*
Y457005D01*
X186455Y456584D01*
X185745D01*
X185089Y456313D01*
X184587Y455811D01*
X184316Y455155D01*
Y454445D01*
X184212Y454290D01*
X181898D01*
X181463Y454204D01*
X181094Y453957D01*
X180847Y453589D01*
X180761Y453154D01*
Y452524D01*
X180847Y452089D01*
X181036Y451559D01*
X180847Y451029D01*
X180761Y450595D01*
Y449965D01*
X180847Y449530D01*
X181023Y448977D01*
X180846Y448712D01*
X180784Y448400D01*
Y448153D01*
X180761Y448035D01*
Y447405D01*
X180784Y447287D01*
Y447100D01*
X180846Y446788D01*
X181023Y446523D01*
X180847Y445911D01*
X180761Y445476D01*
Y444846D01*
X180784Y444728D01*
Y444638D01*
X179862Y443716D01*
X179772D01*
X179654Y443739D01*
X179024D01*
X178905Y443716D01*
X178700D01*
X178388Y443654D01*
X178123Y443477D01*
X177530Y443653D01*
X177094Y443739D01*
X176465D01*
X176030Y443653D01*
X175500Y443464D01*
X174970Y443653D01*
X174535Y443739D01*
X173906D01*
X173470Y443653D01*
X172941Y443464D01*
X172411Y443653D01*
X171976Y443739D01*
X171346D01*
X170911Y443653D01*
X170543Y443406D01*
X170296Y443037D01*
X170210Y442602D01*
Y440043D01*
X170296Y439608D01*
X170336Y439549D01*
Y437211D01*
X161951Y428826D01*
X151564D01*
Y430209D01*
X146421D01*
Y424790D01*
Y419791D01*
X151564D01*
Y421174D01*
X157802D01*
X157989Y420987D01*
X158645Y420716D01*
X159355D01*
X160011Y420987D01*
X160513Y421489D01*
X160784Y422145D01*
Y422855D01*
X160513Y423511D01*
X160011Y424013D01*
X159355Y424284D01*
X158645D01*
X157989Y424013D01*
X157802Y423826D01*
X151564D01*
Y426174D01*
X162500D01*
X163007Y426275D01*
X163437Y426563D01*
X171719Y434844D01*
X172587Y434581D01*
X172638Y434321D01*
X172307Y433990D01*
X172049Y433604D01*
X171959Y433149D01*
Y431059D01*
X172049Y430604D01*
X172307Y430218D01*
X172749Y429776D01*
Y428458D01*
X172840Y428003D01*
X172932Y427865D01*
Y426867D01*
X172911Y426760D01*
Y425146D01*
X172932Y425038D01*
Y423282D01*
X173023Y422826D01*
X173281Y422440D01*
X176412Y419309D01*
X176798Y419051D01*
X177253Y418961D01*
X181150D01*
X181353Y418245D01*
X181353D01*
Y409755D01*
X189646D01*
Y411132D01*
X189720Y411146D01*
X189787Y411191D01*
X189861Y411222D01*
X189918Y411279D01*
X189985Y411323D01*
X190030Y411390D01*
X190086Y411447D01*
X190117Y411521D01*
X190162Y411588D01*
X190178Y411667D01*
X190208Y411741D01*
X190208Y411821D01*
X190224Y411900D01*
X190217Y411933D01*
Y417601D01*
X190248Y417753D01*
X190288Y417814D01*
X190349Y417855D01*
X190502Y417885D01*
X192347D01*
X192426Y417901D01*
X192551D01*
X192629Y417885D01*
X193800D01*
X194112Y417947D01*
X194377Y418124D01*
X194554Y418389D01*
X194616Y418701D01*
Y422667D01*
X194656Y422740D01*
X195300Y423284D01*
X201600D01*
X201912Y423346D01*
X202177Y423523D01*
X202354Y423788D01*
X202416Y424100D01*
Y439100D01*
X202354Y439412D01*
X202177Y439677D01*
X201912Y439854D01*
X201600Y439916D01*
X196862D01*
X196716Y439887D01*
X191971D01*
X191971Y439887D01*
X191659Y439824D01*
X191394Y439648D01*
X191394Y439648D01*
X191360Y439613D01*
X191203Y439623D01*
X190560Y439874D01*
Y444271D01*
Y447887D01*
X191959Y449040D01*
X191984Y449070D01*
X192012Y449089D01*
X192032Y449100D01*
X192419Y449419D01*
X192444Y449449D01*
X192477Y449471D01*
X192544Y449572D01*
X192620Y449665D01*
X192631Y449703D01*
X192654Y449736D01*
X192677Y449854D01*
X192712Y449970D01*
X192708Y450009D01*
X192716Y450048D01*
Y454284D01*
X201900D01*
X202212Y454346D01*
X202477Y454523D01*
X202654Y454788D01*
X202716Y455100D01*
Y460100D01*
X202654Y460412D01*
X202477Y460677D01*
X202212Y460854D01*
X201900Y460916D01*
X189684Y460916D01*
X189248Y461716D01*
X189384Y462045D01*
Y462755D01*
X189319Y462912D01*
X189854Y463712D01*
X190800D01*
Y477485D01*
X191145Y477716D01*
X191855D01*
X192511Y477987D01*
X193013Y478489D01*
X193284Y479145D01*
Y479855D01*
X193013Y480511D01*
X192511Y481013D01*
X192379Y481067D01*
Y481933D01*
X192511Y481987D01*
X193013Y482489D01*
X193284Y483145D01*
Y483855D01*
X193013Y484511D01*
X192511Y485013D01*
X191855Y485284D01*
X191505D01*
X190800Y485941D01*
Y498800D01*
X190800Y499288D01*
X191471Y499600D01*
X193529D01*
X194200Y499288D01*
X194200Y498800D01*
Y483200D01*
X199070D01*
X199348Y482922D01*
X199745Y482657D01*
X199934Y482619D01*
X199987Y482489D01*
X200489Y481987D01*
X200621Y481933D01*
Y481067D01*
X200489Y481013D01*
X199987Y480511D01*
X199934Y480381D01*
X199745Y480343D01*
X199348Y480078D01*
X199070Y479800D01*
X194200D01*
Y463712D01*
X200800D01*
Y477485D01*
X201145Y477716D01*
X201855D01*
X202511Y477987D01*
X203013Y478489D01*
X203284Y479145D01*
Y479855D01*
X203013Y480511D01*
X202511Y481013D01*
X202379Y481067D01*
Y481933D01*
X202511Y481987D01*
X203013Y482489D01*
X203284Y483145D01*
Y483855D01*
X203013Y484511D01*
X202511Y485013D01*
X201855Y485284D01*
X201504D01*
X200800Y485941D01*
Y498800D01*
X200800Y499288D01*
X201471Y499600D01*
X204600D01*
Y396100D01*
D02*
G37*
G36*
X150900Y479200D02*
X150600Y478900D01*
Y458927D01*
X144397D01*
X144300Y479400D01*
X150700D01*
X150900Y479200D01*
D02*
G37*
G36*
X169600Y458094D02*
Y452000D01*
X161000D01*
Y455681D01*
X163519Y458200D01*
X169494D01*
X169600Y458094D01*
D02*
G37*
G36*
X201900Y455100D02*
X191900D01*
Y450048D01*
X191513Y449729D01*
X191440D01*
Y449669D01*
X189900Y448400D01*
X186500D01*
X186400Y448300D01*
Y447100D01*
X181600D01*
Y448400D01*
X185200D01*
X187900Y451259D01*
X187900Y460100D01*
X201900Y460100D01*
Y455100D01*
D02*
G37*
G36*
X133200Y445600D02*
X127800D01*
Y454000D01*
X133200D01*
Y445600D01*
D02*
G37*
G36*
X158177Y454901D02*
Y443407D01*
X157255Y442485D01*
X156516Y442791D01*
Y448800D01*
X156454Y449112D01*
X156277Y449377D01*
X156012Y449554D01*
X155700Y449616D01*
X152302D01*
X152100Y449656D01*
X150687D01*
Y452600D01*
X150625Y452912D01*
X150448Y453177D01*
X150183Y453354D01*
X149871Y453416D01*
X145862D01*
X145550Y453354D01*
X145285Y453177D01*
X145109Y452912D01*
X145046Y452600D01*
Y448886D01*
X141216D01*
Y454000D01*
X141443Y454277D01*
X156000D01*
X156468Y454370D01*
X156865Y454635D01*
X157437Y455207D01*
X158177Y454901D01*
D02*
G37*
G36*
X140400Y452600D02*
Y448886D01*
X140440Y448685D01*
Y448271D01*
X140697D01*
X140903Y448133D01*
X141216Y448071D01*
X145046D01*
X145359Y448133D01*
X145565Y448271D01*
X145662D01*
Y448368D01*
X145800Y448574D01*
X145862Y448886D01*
Y452520D01*
X145876Y452587D01*
X145943Y452600D01*
X149791D01*
X149857Y452587D01*
X149871Y452520D01*
Y449656D01*
X149933Y449344D01*
X150071Y449137D01*
Y449040D01*
X150168D01*
X150374Y448902D01*
X150687Y448840D01*
X152020D01*
X152100Y448824D01*
Y448800D01*
X155620D01*
X155687Y448787D01*
X155700Y448720D01*
Y442791D01*
Y441400D01*
X146500D01*
X142539Y445361D01*
X142539Y445361D01*
X142539Y445361D01*
X142300Y445600D01*
X141962D01*
X141962Y445600D01*
X141962Y445600D01*
X134100D01*
Y454000D01*
X140400D01*
Y452600D01*
D02*
G37*
G36*
X184700Y444300D02*
X185100Y443900D01*
X187100D01*
Y440200D01*
X184200D01*
X183200Y439200D01*
Y437500D01*
X180000D01*
X178700Y438800D01*
Y442900D01*
X180200D01*
X181600Y444300D01*
Y445100D01*
X181800Y445300D01*
X184700D01*
Y444300D01*
D02*
G37*
G36*
X201600Y424100D02*
X195300D01*
Y430800D01*
X194605Y431495D01*
X194521Y431621D01*
X194395Y431705D01*
X193600Y432500D01*
X191900D01*
Y439000D01*
X191971Y439071D01*
X196862D01*
Y439100D01*
X201600D01*
Y424100D01*
D02*
G37*
G36*
X185338Y439271D02*
X190322D01*
X190672Y439147D01*
X191084Y438688D01*
Y432500D01*
X190640Y431818D01*
X190500Y431716D01*
X187300D01*
X186988Y431654D01*
X186723Y431477D01*
X186546Y431212D01*
X186484Y430900D01*
Y422313D01*
X185684Y421982D01*
X184440Y423226D01*
X184054Y423484D01*
X183599Y423575D01*
X178671D01*
X178068Y424178D01*
Y425038D01*
X178089Y425146D01*
Y426760D01*
X178068Y426867D01*
Y427730D01*
X178160Y427868D01*
X178251Y428324D01*
Y429507D01*
X178693Y429949D01*
X178951Y430335D01*
X179041Y430791D01*
Y433208D01*
X178989Y433471D01*
X179320Y434067D01*
X179507Y434271D01*
X184060D01*
Y438906D01*
X184538Y439384D01*
X185338D01*
Y439271D01*
D02*
G37*
G36*
X193800Y422667D02*
Y418781D01*
X193787Y418714D01*
X193720Y418701D01*
X192629D01*
X192551Y418716D01*
X192426D01*
X192347Y418701D01*
X192347D01*
X190502D01*
X190423Y418685D01*
X190342D01*
X190190Y418655D01*
X189896Y418533D01*
X189896Y418533D01*
X189835Y418492D01*
X189835Y418492D01*
D01*
X189610Y418267D01*
X189569Y418206D01*
X189489Y418013D01*
X189448Y417912D01*
X189417Y417760D01*
Y417680D01*
X189402Y417601D01*
Y411933D01*
X189408Y411900D01*
Y411900D01*
X189408D01*
X187300D01*
Y430820D01*
X187313Y430887D01*
X187380Y430900D01*
X193800D01*
Y422667D01*
D02*
G37*
%LPC*%
G36*
X131855Y481284D02*
X131145D01*
X130489Y481013D01*
X129987Y480511D01*
X129934Y480381D01*
X129745Y480343D01*
X129348Y480078D01*
X129070Y479800D01*
X124200D01*
Y463712D01*
X130800D01*
Y477485D01*
X131145Y477716D01*
X131855D01*
X132511Y477987D01*
X133013Y478489D01*
X133284Y479145D01*
Y479855D01*
X133013Y480511D01*
X132511Y481013D01*
X131855Y481284D01*
D02*
G37*
G36*
X113465Y451772D02*
X107535D01*
Y450881D01*
X106735Y450789D01*
X106511Y451013D01*
X105855Y451284D01*
X105145D01*
X104489Y451013D01*
X103987Y450511D01*
X103716Y449855D01*
Y449145D01*
X103987Y448489D01*
X104489Y447987D01*
X105145Y447716D01*
X105855D01*
X106511Y447987D01*
X106735Y448211D01*
X107535Y448119D01*
Y444267D01*
X113465D01*
Y451772D01*
D02*
G37*
G36*
X169102Y446613D02*
X166543D01*
X166108Y446527D01*
X165740Y446280D01*
X165493Y445911D01*
X165407Y445476D01*
Y444846D01*
X165493Y444411D01*
X165740Y444043D01*
X165765Y443788D01*
X165487Y443511D01*
X165216Y442855D01*
Y442145D01*
X165487Y441489D01*
X165989Y440987D01*
X166645Y440716D01*
X167355D01*
X168011Y440987D01*
X168513Y441489D01*
X168784Y442145D01*
Y442812D01*
X168953Y443065D01*
X169046Y443533D01*
Y443710D01*
X169102D01*
X169537Y443796D01*
X169906Y444043D01*
X170153Y444411D01*
X170239Y444846D01*
Y445476D01*
X170153Y445911D01*
X169906Y446280D01*
X169537Y446527D01*
X169102Y446613D01*
D02*
G37*
G36*
X145580Y430209D02*
X140436D01*
Y429500D01*
X140240Y428781D01*
X131160D01*
Y424819D01*
X132213D01*
Y423981D01*
X131160D01*
Y423223D01*
X127516D01*
X127048Y423130D01*
X126651Y422865D01*
X126366Y422580D01*
X126355Y422584D01*
X125645D01*
X124989Y422313D01*
X124487Y421811D01*
X124216Y421155D01*
Y420445D01*
X124487Y419789D01*
X124989Y419287D01*
X125645Y419016D01*
X126355D01*
X127011Y419287D01*
X127513Y419789D01*
X127784Y420445D01*
Y420538D01*
X128023Y420777D01*
X131160D01*
Y420019D01*
X140240D01*
X140436Y419791D01*
Y419791D01*
X145580D01*
Y424790D01*
Y430209D01*
D02*
G37*
G36*
X113465Y416733D02*
X107535D01*
Y409228D01*
X109276D01*
Y408137D01*
X108349Y407209D01*
X104936D01*
Y401791D01*
X110080D01*
Y405479D01*
X111365Y406765D01*
X111630Y407162D01*
X111723Y407630D01*
Y409228D01*
X113465D01*
Y412404D01*
X113567Y412518D01*
X114265Y412873D01*
X114645Y412716D01*
X115355D01*
X116011Y412987D01*
X116513Y413489D01*
X116784Y414145D01*
Y414855D01*
X116513Y415511D01*
X116011Y416013D01*
X115355Y416284D01*
X114645D01*
X114265Y416127D01*
X113567Y416482D01*
X113465Y416596D01*
Y416733D01*
D02*
G37*
G36*
X165855Y421284D02*
X165145D01*
X164489Y421013D01*
X163987Y420511D01*
X163716Y419855D01*
Y419590D01*
X162354Y418229D01*
X162067Y417799D01*
X161966Y417291D01*
Y416381D01*
X156560D01*
Y412419D01*
X156560D01*
X156791Y412064D01*
Y406920D01*
X162209D01*
Y412064D01*
X162862Y412419D01*
X165640D01*
Y416381D01*
X165387D01*
X165056Y417181D01*
X165590Y417716D01*
X165855D01*
X166511Y417987D01*
X167013Y418489D01*
X167284Y419145D01*
Y419855D01*
X167013Y420511D01*
X166511Y421013D01*
X165855Y421284D01*
D02*
G37*
%LPD*%
D15*
X126316Y420800D02*
X127516Y422000D01*
X126000Y420800D02*
X126316D01*
X133436Y422000D02*
Y426800D01*
X127516Y422000D02*
X133436D01*
X105000Y460000D02*
X109136D01*
X113959D02*
X114959Y461000D01*
X118508D01*
X113664Y460000D02*
X113959D01*
X164100Y450200D02*
X164140Y450240D01*
X162400Y448500D02*
X164100Y450200D01*
X154364Y436038D02*
X154434Y436108D01*
X156892D02*
X157384Y436600D01*
X154434Y436108D02*
X156892D01*
X157384Y436600D02*
X157700D01*
X162400Y437028D02*
Y448500D01*
X159419Y434047D02*
X162400Y437028D01*
X159400Y456100D02*
X165300Y462000D01*
X159400Y442900D02*
Y456100D01*
X156458Y439958D02*
X159400Y442900D01*
X164140Y450240D02*
X167783D01*
X167823Y450280D01*
X122100Y443489D02*
Y443600D01*
Y443489D02*
X123636Y441953D01*
X119547Y439581D02*
Y452118D01*
Y439581D02*
X121113Y438016D01*
X119547Y452118D02*
X122929Y455500D01*
X117547Y435653D02*
X120084Y433116D01*
X117547Y452793D02*
X122254Y457500D01*
X117547Y435653D02*
Y452793D01*
X122316Y440500D02*
X122832Y439984D01*
X126366D01*
X123636Y441953D02*
X126366D01*
X122000Y440500D02*
X122316D01*
X121113Y438016D02*
X126366D01*
X120084Y433116D02*
X124143D01*
X122863Y436047D02*
X126366D01*
X122316Y435500D02*
X122863Y436047D01*
X122000Y435500D02*
X122316D01*
X125106Y434079D02*
X126366D01*
X124143Y433116D02*
X125106Y434079D01*
X154364Y439953D02*
X154369Y439958D01*
X156458D01*
X126478Y443809D02*
X128791D01*
X129200Y443400D01*
X126366Y443921D02*
X126478Y443809D01*
X165300Y462000D02*
X173184D01*
X173784Y461400D02*
X174100D01*
X173184Y462000D02*
X173784Y461400D01*
X171432Y457872D02*
X171661Y457642D01*
X171432Y457872D02*
Y458752D01*
X170900Y459284D02*
Y459600D01*
Y459284D02*
X171432Y458752D01*
X174100Y461400D02*
X174160Y461340D01*
Y456738D02*
X174221Y456677D01*
X174160Y456738D02*
Y461340D01*
X177352Y451148D02*
X177648D01*
X171661Y456677D02*
Y457642D01*
X139649Y438000D02*
X148620D01*
X148636Y437984D01*
X139634Y438016D02*
X139649Y438000D01*
X175500Y430553D02*
Y432033D01*
X154364Y437892D02*
X154434Y437962D01*
X154364Y437892D02*
Y437984D01*
Y436016D02*
Y436038D01*
X167000Y442710D02*
X167823Y443533D01*
X167000Y442500D02*
Y442710D01*
X167823Y443533D02*
Y445161D01*
X139634Y439984D02*
X148605D01*
X148636Y439953D01*
X154364Y437984D02*
X155335D01*
X154434Y437962D02*
X154500D01*
X154364Y434047D02*
X159419D01*
X155335Y437984D02*
X155351Y438000D01*
X152815Y458315D02*
X154815D01*
X155000Y458500D01*
X156000Y455500D02*
X159500Y459000D01*
X122929Y455500D02*
X156000D01*
X159500Y459000D02*
Y462000D01*
X152000Y457500D02*
X152815Y458315D01*
X122254Y457500D02*
X152000D01*
X137500Y471756D02*
Y476500D01*
X140213Y479213D02*
X141213D01*
X141500Y479500D01*
X137500Y476500D02*
X140213Y479213D01*
X108500Y472756D02*
Y481000D01*
X107500Y471756D02*
X108500Y472756D01*
X110500Y412980D02*
X112020Y414500D01*
X105500Y449500D02*
X109020D01*
X112020Y414500D02*
X115000D01*
X109020Y449500D02*
X110500Y448020D01*
X142008Y426500D02*
X143008Y427500D01*
X142008Y421500D02*
X143008Y422500D01*
X159500Y409492D02*
X159709Y409701D01*
X105000Y460000D02*
X105000Y460000D01*
X113492Y404362D02*
Y404500D01*
X107508D02*
Y404638D01*
X110500Y407630D02*
Y412980D01*
X107508Y404638D02*
X110500Y407630D01*
X148992Y422500D02*
X148992Y422500D01*
X140894Y436047D02*
X140925Y436016D01*
X140894Y434079D02*
X140925Y434047D01*
X139634Y436047D02*
X140894D01*
X139634Y434079D02*
X140894D01*
X140925Y436016D02*
X148636D01*
X140925Y434047D02*
X148636D01*
X117500Y471756D02*
X119000Y473256D01*
Y481000D01*
X130213Y479213D02*
X131213D01*
X127500Y471756D02*
Y476500D01*
X131213Y479213D02*
X131500Y479500D01*
X127500Y476500D02*
X130213Y479213D01*
X201213D02*
X201500Y479500D01*
X200213Y479213D02*
X201213D01*
X197500Y471756D02*
Y476500D01*
X200213Y479213D01*
X187500Y476500D02*
X190213Y479213D01*
X187500Y471756D02*
Y476500D01*
X191213Y479213D02*
X191500Y479500D01*
X190213Y479213D02*
X191213D01*
X197500Y486500D02*
Y491244D01*
Y486500D02*
X200213Y483787D01*
X201213D02*
X201500Y483500D01*
X200213Y483787D02*
X201213D01*
X187500Y486500D02*
Y491244D01*
X191213Y483787D02*
X191500Y483500D01*
X187500Y486500D02*
X190213Y483787D01*
X191213D01*
X167500Y486500D02*
Y491244D01*
X170213Y483787D02*
X171213D01*
X167500Y486500D02*
X170213Y483787D01*
X171213D02*
X171500Y483500D01*
X177500Y486500D02*
Y491244D01*
X181213Y483787D02*
X181500Y483500D01*
X177500Y486500D02*
X180213Y483787D01*
X181213D01*
D39*
X109136Y460000D02*
D03*
X113664D02*
D03*
X133436Y422000D02*
D03*
X137964D02*
D03*
X133436Y426800D02*
D03*
X137964D02*
D03*
X163364Y414400D02*
D03*
X158836D02*
D03*
D40*
X133000Y439000D02*
D03*
D41*
X139634Y443921D02*
D03*
Y441953D02*
D03*
Y439984D02*
D03*
Y438016D02*
D03*
Y436047D02*
D03*
Y434079D02*
D03*
X126366D02*
D03*
Y436047D02*
D03*
Y438016D02*
D03*
Y439984D02*
D03*
Y441953D02*
D03*
Y443921D02*
D03*
D42*
X130047Y446618D02*
D03*
X135953D02*
D03*
Y431382D02*
D03*
X130047D02*
D03*
D43*
X151500Y440750D02*
D03*
Y433250D02*
D03*
D44*
X154364Y439953D02*
D03*
Y434047D02*
D03*
X148636D02*
D03*
Y439953D02*
D03*
D45*
X154364Y437984D02*
D03*
Y436016D02*
D03*
X148636D02*
D03*
Y437984D02*
D03*
D46*
X174122Y425953D02*
D03*
X176878D02*
D03*
X175500Y430047D02*
D03*
D47*
X167823Y452839D02*
D03*
Y450280D02*
D03*
Y447720D02*
D03*
Y445161D02*
D03*
X183177D02*
D03*
Y447720D02*
D03*
Y450280D02*
D03*
Y452839D02*
D03*
D48*
X171661Y441323D02*
D03*
X174221D02*
D03*
X176779D02*
D03*
X179339D02*
D03*
Y456677D02*
D03*
X176779D02*
D03*
X174221D02*
D03*
X171661D02*
D03*
D49*
X175500Y449000D02*
D03*
D50*
X110500Y448020D02*
D03*
Y412980D02*
D03*
D51*
X143008Y427500D02*
D03*
X148992D02*
D03*
X143008Y422500D02*
D03*
X148992D02*
D03*
X113492Y404500D02*
D03*
X107508D02*
D03*
X124492Y461000D02*
D03*
X118508D02*
D03*
D52*
X159500Y403508D02*
D03*
Y409492D02*
D03*
D53*
X186632Y401894D02*
D03*
X179250D02*
D03*
D54*
X177823Y414000D02*
D03*
X180382D02*
D03*
X182941D02*
D03*
X185500D02*
D03*
X188059D02*
D03*
D55*
X107500Y471756D02*
D03*
Y491244D02*
D03*
X117500Y471756D02*
D03*
Y491244D02*
D03*
X127500Y471756D02*
D03*
Y491244D02*
D03*
X137500Y471756D02*
D03*
Y491244D02*
D03*
X147500Y471756D02*
D03*
Y491244D02*
D03*
X157500Y471756D02*
D03*
Y491244D02*
D03*
X167500Y471756D02*
D03*
Y491244D02*
D03*
X177500Y471756D02*
D03*
Y491244D02*
D03*
X187500Y471756D02*
D03*
Y491244D02*
D03*
X197500Y471756D02*
D03*
Y491244D02*
D03*
D56*
X190839Y427500D02*
D03*
X198500D02*
D03*
D57*
X187949Y442000D02*
D03*
X194051D02*
D03*
X124449Y451000D02*
D03*
X130551D02*
D03*
X190543Y421000D02*
D03*
X196646D02*
D03*
X187949Y447000D02*
D03*
X194051D02*
D03*
X181449Y437000D02*
D03*
X187551D02*
D03*
X189549Y452100D02*
D03*
X195651D02*
D03*
X136949Y451000D02*
D03*
X143051D02*
D03*
X147551Y461000D02*
D03*
X141449D02*
D03*
D58*
X152800Y445549D02*
D03*
Y451651D02*
D03*
D59*
X126000Y420800D02*
X126262D01*
X183177Y450280D02*
X183806Y450909D01*
X185126D01*
X186100Y451883D01*
Y454800D01*
X154364Y436038D02*
Y437892D01*
X163291Y414500D02*
Y417291D01*
X165500Y419500D01*
X148992Y422500D02*
X159000D01*
X137791Y426500D02*
X142008D01*
X137791Y421500D02*
X142008D01*
X159709Y409701D02*
Y414500D01*
X148992Y427500D02*
X162500D01*
X171661Y436661D02*
Y441323D01*
X162500Y427500D02*
X171661Y436661D01*
D60*
X167823Y447720D02*
X172000D01*
D61*
X174122Y425953D02*
Y428275D01*
X173939Y428458D02*
X174122Y428275D01*
X173149Y431059D02*
X173939Y430268D01*
Y428458D02*
Y430268D01*
X174122Y423282D02*
Y425953D01*
X177851Y430791D02*
Y433208D01*
X176779Y434279D02*
X177851Y433208D01*
X176779Y434279D02*
Y441323D01*
X173149Y433149D02*
X174221Y434221D01*
X173149Y431059D02*
Y433149D01*
X174221Y434221D02*
Y441323D01*
X177061Y428324D02*
Y430000D01*
X177851Y430791D01*
X176878Y423685D02*
Y425953D01*
Y428141D01*
X177061Y428324D01*
X176878Y423685D02*
X178179Y422385D01*
X174122Y423282D02*
X177253Y420151D01*
X178179Y422385D02*
X183599D01*
X185338Y420646D01*
Y414162D02*
X185500Y414000D01*
X185338Y414162D02*
Y420646D01*
X177253Y420151D02*
X182673D01*
X183103Y419720D01*
X182941Y414000D02*
X183103Y414162D01*
Y419720D01*
D62*
X131031Y440968D02*
D03*
Y437031D02*
D03*
X134968D02*
D03*
Y440968D02*
D03*
X126000Y420800D02*
D03*
X186100Y454800D02*
D03*
X180400Y429100D02*
D03*
X161500Y431500D02*
D03*
X155300Y430600D02*
D03*
X202600Y449000D02*
D03*
X201000Y445200D02*
D03*
X122900Y447200D02*
D03*
X201000Y417200D02*
D03*
X157700Y436600D02*
D03*
X182800Y432400D02*
D03*
X202600Y409500D02*
D03*
X184800Y424600D02*
D03*
X120700Y422900D02*
D03*
X156600Y452700D02*
D03*
X164100Y450200D02*
D03*
X117200Y404500D02*
D03*
X165800Y425700D02*
D03*
X169700D02*
D03*
X169600Y429500D02*
D03*
X159500Y399600D02*
D03*
X137500Y460400D02*
D03*
X128300Y462100D02*
D03*
X125100Y427400D02*
D03*
X120800D02*
D03*
X130551Y451000D02*
D03*
X122100Y443600D02*
D03*
X122000Y440500D02*
D03*
Y435500D02*
D03*
X147900Y450400D02*
D03*
X147800Y446400D02*
D03*
X187600Y462400D02*
D03*
X191100Y457500D02*
D03*
X199300Y457600D02*
D03*
X195300D02*
D03*
X162800Y453800D02*
D03*
X170900Y459600D02*
D03*
X174100Y461400D02*
D03*
X199400Y432600D02*
D03*
X186800Y399600D02*
D03*
Y404500D02*
D03*
X179400Y399500D02*
D03*
Y404400D02*
D03*
X199400Y437000D02*
D03*
X147600Y476600D02*
D03*
X177600Y476500D02*
D03*
X157500Y486300D02*
D03*
X177500Y468400D02*
D03*
Y471400D02*
D03*
X157600Y494000D02*
D03*
Y491000D02*
D03*
X147600Y471400D02*
D03*
X147500Y468400D02*
D03*
X182400Y441500D02*
D03*
X173500Y451000D02*
D03*
Y447000D02*
D03*
X165000Y456500D02*
D03*
X175500Y432033D02*
D03*
X165500Y419500D02*
D03*
X167000Y442500D02*
D03*
X159000Y422500D02*
D03*
X155000Y458500D02*
D03*
X159500Y462000D02*
D03*
X194300Y437000D02*
D03*
X141500Y479500D02*
D03*
X108500Y481000D02*
D03*
X115000Y414500D02*
D03*
X105500Y449500D02*
D03*
X105000Y460000D02*
D03*
X177500Y451000D02*
D03*
X119000Y481000D02*
D03*
X131500Y479500D02*
D03*
X201500D02*
D03*
X191500D02*
D03*
X201500Y483500D02*
D03*
X191500D02*
D03*
X177500Y447000D02*
D03*
X171500Y483500D02*
D03*
X181500D02*
D03*
D63*
X192488Y414807D02*
D03*
X173394D02*
D03*
D64*
X199083Y402681D02*
D03*
X166799D02*
D03*
M02*
