G04*
G04 #@! TF.GenerationSoftware,Altium Limited,Altium Designer,21.4.1 (30)*
G04*
G04 Layer_Physical_Order=2*
G04 Layer_Color=32768*
%FSLAX25Y25*%
%MOIN*%
G70*
G04*
G04 #@! TF.SameCoordinates,45105DAF-5654-4984-AA32-67A45B9073D8*
G04*
G04*
G04 #@! TF.FilePolarity,Negative*
G04*
G01*
G75*
%ADD65C,0.04000*%
G04:AMPARAMS|DCode=66|XSize=71.811mil|YSize=71.811mil|CornerRadius=0mil|HoleSize=0mil|Usage=FLASHONLY|Rotation=0.000|XOffset=0mil|YOffset=0mil|HoleType=Round|Shape=Relief|Width=10mil|Gap=10mil|Entries=4|*
%AMTHD66*
7,0,0,0.07181,0.05181,0.01000,45*
%
%ADD66THD66*%
%AMTHOVALD67*
21,1,0.01575,0.08559,0,0,90.0*
1,1,0.08559,0.00000,-0.00787*
1,1,0.08559,0.00000,0.00787*
21,0,0.01575,0.06559,0,0,90.0*
1,0,0.06559,0.00000,-0.00787*
1,0,0.06559,0.00000,0.00787*
4,0,4,0.00354,-0.00434,0.03380,-0.03460,0.02673,-0.04167,-0.00354,-0.01141,0.00354,-0.00434,0.0*
4,0,4,0.00354,0.01141,-0.02673,0.04167,-0.03380,0.03460,-0.00354,0.00434,0.00354,0.01141,0.0*
4,0,4,0.00354,-0.01141,-0.02673,-0.04167,-0.03380,-0.03460,-0.00354,-0.00434,0.00354,-0.01141,0.0*
4,0,4,0.00354,0.00434,0.03380,0.03460,0.02673,0.04167,-0.00354,0.01141,0.00354,0.00434,0.0*
%
%ADD67THOVALD67*%

%AMTHOVALD68*
21,1,0.02465,0.08756,0,0,90.0*
1,1,0.08756,0.00000,-0.01232*
1,1,0.08756,0.00000,0.01232*
21,0,0.02465,0.06756,0,0,90.0*
1,0,0.06756,0.00000,-0.01232*
1,0,0.06756,0.00000,0.01232*
4,0,4,0.00354,-0.00879,0.03449,-0.03974,0.02742,-0.04682,-0.00354,-0.01586,0.00354,-0.00879,0.0*
4,0,4,0.00354,0.01586,-0.02742,0.04682,-0.03449,0.03974,-0.00354,0.00879,0.00354,0.01586,0.0*
4,0,4,0.00354,-0.01586,-0.02742,-0.04682,-0.03449,-0.03974,-0.00354,-0.00879,0.00354,-0.01586,0.0*
4,0,4,0.00354,0.00879,0.03449,0.03974,0.02742,0.04682,-0.00354,0.01586,0.00354,0.00879,0.0*
%
%ADD68THOVALD68*%

%ADD69C,0.02787*%
G04:AMPARAMS|DCode=70|XSize=67.874mil|YSize=67.874mil|CornerRadius=0mil|HoleSize=0mil|Usage=FLASHONLY|Rotation=0.000|XOffset=0mil|YOffset=0mil|HoleType=Round|Shape=Relief|Width=10mil|Gap=10mil|Entries=4|*
%AMTHD70*
7,0,0,0.06787,0.04787,0.01000,45*
%
%ADD70THD70*%
D65*
X100500Y395500D02*
Y500000D01*
X205000D01*
Y395500D02*
Y500000D01*
X100500Y395500D02*
X205000D01*
D66*
X131031Y440968D02*
D03*
Y437031D02*
D03*
X134968D02*
D03*
Y440968D02*
D03*
D67*
X192488Y414807D02*
D03*
X173394D02*
D03*
D68*
X199083Y402681D02*
D03*
X166799D02*
D03*
D69*
X126000Y420800D02*
D03*
X186100Y454800D02*
D03*
X157700Y436600D02*
D03*
X164100Y450200D02*
D03*
X130551Y451000D02*
D03*
X122100Y443600D02*
D03*
X122000Y440500D02*
D03*
Y435500D02*
D03*
X147900Y450400D02*
D03*
X147800Y446400D02*
D03*
X187600Y462400D02*
D03*
X191100Y457500D02*
D03*
X199300Y457600D02*
D03*
X195300D02*
D03*
X162800Y453800D02*
D03*
X170900Y459600D02*
D03*
X174100Y461400D02*
D03*
X199400Y432600D02*
D03*
Y437000D02*
D03*
X147600Y476600D02*
D03*
Y471400D02*
D03*
X147500Y468400D02*
D03*
X182400Y441500D02*
D03*
X165000Y456500D02*
D03*
X165500Y419500D02*
D03*
X167000Y442500D02*
D03*
X159000Y422500D02*
D03*
X155000Y458500D02*
D03*
X159500Y462000D02*
D03*
X194300Y437000D02*
D03*
X141500Y479500D02*
D03*
X108500Y481000D02*
D03*
X115000Y414500D02*
D03*
X105500Y449500D02*
D03*
X105000Y460000D02*
D03*
X119000Y481000D02*
D03*
X131500Y479500D02*
D03*
X201500D02*
D03*
X191500D02*
D03*
X201500Y483500D02*
D03*
X191500D02*
D03*
X171500D02*
D03*
X181500D02*
D03*
D70*
X180400Y429100D02*
D03*
X161500Y431500D02*
D03*
X155300Y430600D02*
D03*
X202600Y449000D02*
D03*
X201000Y445200D02*
D03*
X122900Y447200D02*
D03*
X201000Y417200D02*
D03*
X182800Y432400D02*
D03*
X202600Y409500D02*
D03*
X184800Y424600D02*
D03*
X120700Y422900D02*
D03*
X156600Y452700D02*
D03*
X117200Y404500D02*
D03*
X165800Y425700D02*
D03*
X169700D02*
D03*
X169600Y429500D02*
D03*
X159500Y399600D02*
D03*
X137500Y460400D02*
D03*
X128300Y462100D02*
D03*
X125100Y427400D02*
D03*
X120800D02*
D03*
X186800Y399600D02*
D03*
Y404500D02*
D03*
X179400Y399500D02*
D03*
Y404400D02*
D03*
X177600Y476500D02*
D03*
X157500Y486300D02*
D03*
X177500Y468400D02*
D03*
Y471400D02*
D03*
X157600Y494000D02*
D03*
Y491000D02*
D03*
X173500Y451000D02*
D03*
Y447000D02*
D03*
X175500Y432033D02*
D03*
X177500Y451000D02*
D03*
Y447000D02*
D03*
M02*
