G04*
G04 #@! TF.GenerationSoftware,Altium Limited,Altium Designer,21.4.1 (30)*
G04*
G04 Layer_Color=16711935*
%FSLAX25Y25*%
%MOIN*%
G70*
G04*
G04 #@! TF.SameCoordinates,45105DAF-5654-4984-AA32-67A45B9073D8*
G04*
G04*
G04 #@! TF.FilePolarity,Negative*
G04*
G01*
G75*
%ADD29R,0.04343X0.04619*%
%ADD30R,0.04619X0.04343*%
%ADD35R,0.04422X0.04658*%
%ADD37O,0.03674X0.06548*%
%ADD38O,0.04343X0.07887*%
%ADD74R,0.03900X0.06100*%
D29*
X178008Y461500D02*
D03*
X183992D02*
D03*
D30*
X159800Y448992D02*
D03*
Y443008D02*
D03*
D35*
X167951Y436400D02*
D03*
X161849D02*
D03*
D37*
X192488Y414807D02*
D03*
X173394D02*
D03*
D38*
X199083Y402681D02*
D03*
X166799D02*
D03*
D74*
X197500Y492500D02*
D03*
Y469900D02*
D03*
X187500Y492500D02*
D03*
Y469900D02*
D03*
X177500Y492500D02*
D03*
Y469900D02*
D03*
X167500Y492500D02*
D03*
Y469900D02*
D03*
X157500Y492500D02*
D03*
Y469900D02*
D03*
X147500Y492500D02*
D03*
Y469900D02*
D03*
X137500Y492500D02*
D03*
Y469900D02*
D03*
X127500Y492500D02*
D03*
Y469900D02*
D03*
X117500Y492500D02*
D03*
Y469900D02*
D03*
X107500Y492500D02*
D03*
Y469900D02*
D03*
M02*
