G04*
G04 #@! TF.GenerationSoftware,Altium Limited,Altium Designer,21.4.1 (30)*
G04*
G04 Layer_Color=65535*
%FSLAX25Y25*%
%MOIN*%
G70*
G04*
G04 #@! TF.SameCoordinates,45105DAF-5654-4984-AA32-67A45B9073D8*
G04*
G04*
G04 #@! TF.FilePolarity,Positive*
G04*
G01*
G75*
%ADD10C,0.00787*%
%ADD11C,0.02000*%
%ADD12C,0.00600*%
%ADD13C,0.00591*%
%ADD14C,0.00500*%
%ADD15C,0.00800*%
%ADD16C,0.00300*%
G36*
X152250Y443235D02*
X150750D01*
Y444235D01*
X152250D01*
Y443235D01*
D02*
G37*
D10*
X130244Y450417D02*
X129457D01*
X130244D01*
X173728Y423079D02*
X172941D01*
X173728D01*
X163689Y453134D02*
X162902D01*
X163689D01*
X110894Y407862D02*
X110106D01*
X110894D01*
X188453Y420398D02*
X187665D01*
X188453D01*
X107894Y462209D02*
X107106D01*
X107894D01*
X102500Y471500D02*
Y491500D01*
X202500Y471500D02*
Y491500D01*
D11*
X101000Y469900D02*
X100649Y470864D01*
X99761Y471377D01*
X98750Y471199D01*
X98090Y470413D01*
Y469387D01*
X98750Y468601D01*
X99761Y468423D01*
X100649Y468936D01*
X101000Y469900D01*
D12*
X120000Y398500D02*
X155100D01*
X120000Y418100D02*
X155100D01*
Y398500D02*
Y418100D01*
X120000Y398500D02*
Y418100D01*
X103600Y446133D02*
X103867Y446400D01*
X104400D01*
X104666Y446133D01*
Y445067D01*
X104400Y444801D01*
X103867D01*
X103600Y445067D01*
Y446133D01*
X156568Y417350D02*
Y419850D01*
X157817D01*
X158234Y419433D01*
Y418600D01*
X157817Y418184D01*
X156568D01*
X159067Y419850D02*
Y417350D01*
X159900Y418184D01*
X160733Y417350D01*
Y419850D01*
X161566Y417350D02*
Y419850D01*
X162816D01*
X163232Y419433D01*
Y418600D01*
X162816Y418184D01*
X161566D01*
X162399D02*
X163232Y417350D01*
X126317Y423350D02*
X127983D01*
X127150D01*
Y420850D01*
X128816Y423350D02*
X130483Y420850D01*
Y423350D02*
X128816Y420850D01*
X105618Y457250D02*
Y455583D01*
X106451Y454750D01*
X107284Y455583D01*
Y457250D01*
X108117D02*
Y454750D01*
X109367D01*
X109783Y455167D01*
Y455583D01*
X109367Y456000D01*
X108117D01*
X109367D01*
X109783Y456417D01*
Y456833D01*
X109367Y457250D01*
X108117D01*
X110617Y454750D02*
Y457250D01*
X111866D01*
X112283Y456833D01*
Y456000D01*
X111866Y455583D01*
X110617D01*
X111450D02*
X112283Y454750D01*
X113116Y457250D02*
Y454750D01*
X114365D01*
X114782Y455167D01*
Y456833D01*
X114365Y457250D01*
X113116D01*
X126517Y425350D02*
Y427850D01*
X127767D01*
X128183Y427433D01*
Y426600D01*
X127767Y426184D01*
X126517D01*
X127350D02*
X128183Y425350D01*
X129016Y427850D02*
X130683Y425350D01*
Y427850D02*
X129016Y425350D01*
X124536Y455715D02*
X124120Y456132D01*
X123287D01*
X122870Y455715D01*
Y454049D01*
X123287Y453632D01*
X124120D01*
X124536Y454049D01*
X125369D02*
X125786Y453632D01*
X126619D01*
X127035Y454049D01*
Y455715D01*
X126619Y456132D01*
X125786D01*
X125369Y455715D01*
Y455299D01*
X125786Y454882D01*
X127035D01*
X166334Y440250D02*
Y438167D01*
X166750Y437750D01*
X167584D01*
X168000Y438167D01*
Y440250D01*
X168833Y437750D02*
X169666D01*
X169250D01*
Y440250D01*
X168833Y439833D01*
X143036Y455715D02*
X142620Y456132D01*
X141787D01*
X141370Y455715D01*
Y454049D01*
X141787Y453632D01*
X142620D01*
X143036Y454049D01*
X145119Y453632D02*
Y456132D01*
X143869Y454882D01*
X145536D01*
X198342Y442833D02*
X197926Y443250D01*
X197092D01*
X196676Y442833D01*
Y441167D01*
X197092Y440750D01*
X197926D01*
X198342Y441167D01*
X199175Y440750D02*
X200008D01*
X199592D01*
Y443250D01*
X199175Y442833D01*
X201258D02*
X201674Y443250D01*
X202507D01*
X202924Y442833D01*
Y441167D01*
X202507Y440750D01*
X201674D01*
X201258Y441167D01*
Y442833D01*
X120917Y432250D02*
Y430167D01*
X121334Y429750D01*
X122167D01*
X122583Y430167D01*
Y432250D01*
X124666Y429750D02*
Y432250D01*
X123416Y431000D01*
X125083D01*
X145517Y432750D02*
Y430667D01*
X145934Y430250D01*
X146767D01*
X147184Y430667D01*
Y432750D01*
X148017Y432333D02*
X148433Y432750D01*
X149266D01*
X149683Y432333D01*
Y431917D01*
X149266Y431500D01*
X148850D01*
X149266D01*
X149683Y431083D01*
Y430667D01*
X149266Y430250D01*
X148433D01*
X148017Y430667D01*
X169617Y433950D02*
Y431867D01*
X170034Y431450D01*
X170867D01*
X171283Y431867D01*
Y433950D01*
X173783Y431450D02*
X172116D01*
X173783Y433116D01*
Y433533D01*
X173366Y433950D01*
X172533D01*
X172116Y433533D01*
X104500Y416833D02*
X104084Y417250D01*
X103250D01*
X102834Y416833D01*
Y416417D01*
X103250Y416000D01*
X104084D01*
X104500Y415584D01*
Y415167D01*
X104084Y414750D01*
X103250D01*
X102834Y415167D01*
X105333Y414750D02*
X106166D01*
X105750D01*
Y417250D01*
X105333Y416833D01*
X151917Y426250D02*
Y428750D01*
X153167D01*
X153584Y428333D01*
Y427500D01*
X153167Y427083D01*
X151917D01*
X152750D02*
X153584Y426250D01*
X156083Y428750D02*
X155250Y428333D01*
X154417Y427500D01*
Y426667D01*
X154833Y426250D01*
X155666D01*
X156083Y426667D01*
Y427083D01*
X155666Y427500D01*
X154417D01*
X151917Y421250D02*
Y423750D01*
X153167D01*
X153584Y423333D01*
Y422500D01*
X153167Y422084D01*
X151917D01*
X152750D02*
X153584Y421250D01*
X156083Y423750D02*
X154417D01*
Y422500D01*
X155250Y422917D01*
X155666D01*
X156083Y422500D01*
Y421667D01*
X155666Y421250D01*
X154833D01*
X154417Y421667D01*
X105917Y399250D02*
Y401750D01*
X107167D01*
X107583Y401333D01*
Y400500D01*
X107167Y400083D01*
X105917D01*
X106750D02*
X107583Y399250D01*
X108416Y401333D02*
X108833Y401750D01*
X109666D01*
X110083Y401333D01*
Y400916D01*
X109666Y400500D01*
X109250D01*
X109666D01*
X110083Y400083D01*
Y399667D01*
X109666Y399250D01*
X108833D01*
X108416Y399667D01*
X117417Y455150D02*
Y457650D01*
X118667D01*
X119083Y457233D01*
Y456400D01*
X118667Y455983D01*
X117417D01*
X118250D02*
X119083Y455150D01*
X121583D02*
X119916D01*
X121583Y456816D01*
Y457233D01*
X121166Y457650D01*
X120333D01*
X119916Y457233D01*
X162334Y408250D02*
Y410750D01*
X163584D01*
X164000Y410333D01*
Y409500D01*
X163584Y409084D01*
X162334D01*
X163167D02*
X164000Y408250D01*
X164833D02*
X165666D01*
X165250D01*
Y410750D01*
X164833Y410333D01*
X169583Y421250D02*
X168750D01*
X169167D01*
Y419167D01*
X168750Y418750D01*
X168334D01*
X167917Y419167D01*
X170416Y420833D02*
X170833Y421250D01*
X171666D01*
X172083Y420833D01*
Y420416D01*
X171666Y420000D01*
X171250D01*
X171666D01*
X172083Y419584D01*
Y419167D01*
X171666Y418750D01*
X170833D01*
X170416Y419167D01*
X200083Y463750D02*
X199250D01*
X199667D01*
Y461667D01*
X199250Y461250D01*
X198834D01*
X198417Y461667D01*
X202583Y461250D02*
X200917D01*
X202583Y462917D01*
Y463333D01*
X202166Y463750D01*
X201333D01*
X200917Y463333D01*
X194600Y433950D02*
X192934D01*
Y431450D01*
X194600D01*
X192934Y432700D02*
X193767D01*
X195433Y431450D02*
X196266D01*
X195850D01*
Y433950D01*
X195433Y433533D01*
X200884Y421933D02*
X200467Y422350D01*
X199634D01*
X199217Y421933D01*
Y420267D01*
X199634Y419850D01*
X200467D01*
X200884Y420267D01*
X201716Y421933D02*
X202133Y422350D01*
X202966D01*
X203383Y421933D01*
Y421517D01*
X202966Y421100D01*
X203383Y420683D01*
Y420267D01*
X202966Y419850D01*
X202133D01*
X201716Y420267D01*
Y420683D01*
X202133Y421100D01*
X201716Y421517D01*
Y421933D01*
X202133Y421100D02*
X202966D01*
X198284Y447933D02*
X197867Y448350D01*
X197034D01*
X196617Y447933D01*
Y446267D01*
X197034Y445850D01*
X197867D01*
X198284Y446267D01*
X199117Y448350D02*
X200783D01*
Y447933D01*
X199117Y446267D01*
Y445850D01*
X187284Y433633D02*
X186867Y434050D01*
X186034D01*
X185617Y433633D01*
Y431967D01*
X186034Y431550D01*
X186867D01*
X187284Y431967D01*
X189783Y434050D02*
X188950Y433633D01*
X188117Y432800D01*
Y431967D01*
X188533Y431550D01*
X189366D01*
X189783Y431967D01*
Y432383D01*
X189366Y432800D01*
X188117D01*
X199883Y452733D02*
X199467Y453150D01*
X198634D01*
X198217Y452733D01*
Y451067D01*
X198634Y450650D01*
X199467D01*
X199883Y451067D01*
X202383Y453150D02*
X200716D01*
Y451900D01*
X201550Y452317D01*
X201966D01*
X202383Y451900D01*
Y451067D01*
X201966Y450650D01*
X201133D01*
X200716Y451067D01*
X158233Y448716D02*
X158650Y449133D01*
Y449966D01*
X158233Y450383D01*
X156567D01*
X156150Y449966D01*
Y449133D01*
X156567Y448716D01*
X158233Y447884D02*
X158650Y447467D01*
Y446634D01*
X158233Y446217D01*
X157817D01*
X157400Y446634D01*
Y447050D01*
Y446634D01*
X156983Y446217D01*
X156567D01*
X156150Y446634D01*
Y447467D01*
X156567Y447884D01*
X152000Y462333D02*
X151584Y462750D01*
X150750D01*
X150334Y462333D01*
Y460667D01*
X150750Y460250D01*
X151584D01*
X152000Y460667D01*
X152833Y460250D02*
X153666D01*
X153250D01*
Y462750D01*
X152833Y462333D01*
D13*
X116124Y458819D02*
Y461181D01*
X140424Y420819D02*
Y423181D01*
Y425619D02*
Y427981D01*
X156376Y413219D02*
Y415581D01*
D14*
X126110Y445693D02*
Y446874D01*
Y431126D02*
Y432307D01*
X139890Y445693D02*
Y446874D01*
Y431126D02*
Y432307D01*
X126110Y446874D02*
X127882D01*
X126110Y431126D02*
X127882D01*
X138118Y446874D02*
X139890D01*
X138118Y431126D02*
X139890D01*
X173531Y428118D02*
Y429575D01*
X177469Y428118D02*
Y429575D01*
X177154D02*
X177469D01*
X173531D02*
X173846D01*
X167626Y454787D02*
Y456874D01*
X169713D01*
X181287D02*
X183374D01*
Y454787D02*
Y456874D01*
Y441126D02*
Y443213D01*
X181287Y441126D02*
X183374D01*
X167626D02*
X169713D01*
X167626D02*
Y443213D01*
X103532Y418295D02*
X117469D01*
Y442705D01*
X103532D02*
X117469D01*
X103532Y418295D02*
Y442705D01*
X168177Y396185D02*
Y397287D01*
X190598Y396185D02*
X197705D01*
X168177D02*
X175284D01*
X197705D02*
Y397287D01*
D15*
X125000Y398500D02*
Y418000D01*
X147000Y398500D02*
Y418000D01*
D16*
X120800Y416950D02*
X121050Y417200D01*
X121550D01*
X121800Y416950D01*
Y415950D01*
X121550Y415700D01*
X121050D01*
X120800Y415950D01*
Y416950D01*
Y408142D02*
X121300D01*
X121050D01*
Y409642D01*
X120800Y409392D01*
X125800Y417200D02*
Y415700D01*
X126550D01*
X126800Y415950D01*
Y416950D01*
X126550Y417200D01*
X125800D01*
X127299Y415700D02*
Y416700D01*
X127799Y417200D01*
X128299Y416700D01*
Y415700D01*
Y416450D01*
X127299D01*
X128799Y415700D02*
Y417200D01*
X129549D01*
X129799Y416950D01*
Y416450D01*
X129549Y416200D01*
X128799D01*
X129299D02*
X129799Y415700D01*
X130299Y417200D02*
X131298D01*
X130798D01*
Y415700D01*
X131798Y416450D02*
X132798D01*
X133298Y415700D02*
Y417200D01*
X133797Y416700D01*
X134297Y417200D01*
Y415700D01*
X134797Y417200D02*
X135797Y415700D01*
Y417200D02*
X134797Y415700D01*
X136297Y416950D02*
X136547Y417200D01*
X137046D01*
X137296Y416950D01*
Y416700D01*
X137046Y416450D01*
X137296Y416200D01*
Y415950D01*
X137046Y415700D01*
X136547D01*
X136297Y415950D01*
Y416200D01*
X136547Y416450D01*
X136297Y416700D01*
Y416950D01*
X136547Y416450D02*
X137046D01*
X137796Y415700D02*
Y417200D01*
X138296Y416700D01*
X138796Y417200D01*
Y415700D01*
X125800Y414681D02*
Y413181D01*
X126550D01*
X126800Y413431D01*
Y414431D01*
X126550Y414681D01*
X125800D01*
X127299Y413181D02*
Y414181D01*
X127799Y414681D01*
X128299Y414181D01*
Y413181D01*
Y413931D01*
X127299D01*
X128799Y413181D02*
Y414681D01*
X129549D01*
X129799Y414431D01*
Y413931D01*
X129549Y413681D01*
X128799D01*
X129299D02*
X129799Y413181D01*
X130299Y414681D02*
X131298D01*
X130798D01*
Y413181D01*
X131798Y413931D02*
X132798D01*
X133298Y413181D02*
Y414681D01*
X133797Y414181D01*
X134297Y414681D01*
Y413181D01*
X134797Y414681D02*
X135797Y413181D01*
Y414681D02*
X134797Y413181D01*
X136297Y413431D02*
X136547Y413181D01*
X137046D01*
X137296Y413431D01*
Y414431D01*
X137046Y414681D01*
X136547D01*
X136297Y414431D01*
Y414181D01*
X136547Y413931D01*
X137296D01*
X138796Y414681D02*
X137796D01*
Y413931D01*
X138296Y414181D01*
X138546D01*
X138796Y413931D01*
Y413431D01*
X138546Y413181D01*
X138046D01*
X137796Y413431D01*
X125800Y409642D02*
Y408142D01*
X126550D01*
X126800Y408392D01*
Y409392D01*
X126550Y409642D01*
X125800D01*
X127299Y408142D02*
Y409142D01*
X127799Y409642D01*
X128299Y409142D01*
Y408142D01*
Y408892D01*
X127299D01*
X128799Y408142D02*
Y409642D01*
X129549D01*
X129799Y409392D01*
Y408892D01*
X129549Y408642D01*
X128799D01*
X129299D02*
X129799Y408142D01*
X130299Y409642D02*
X131298D01*
X130798D01*
Y408142D01*
X131798Y408892D02*
X132798D01*
X133298Y408142D02*
Y409642D01*
X133797Y409142D01*
X134297Y409642D01*
Y408142D01*
X134797Y409642D02*
X135797Y408142D01*
Y409642D02*
X134797Y408142D01*
X136297Y409392D02*
X136547Y409642D01*
X137046D01*
X137296Y409392D01*
Y409142D01*
X137046Y408892D01*
X137296Y408642D01*
Y408392D01*
X137046Y408142D01*
X136547D01*
X136297Y408392D01*
Y408642D01*
X136547Y408892D01*
X136297Y409142D01*
Y409392D01*
X136547Y408892D02*
X137046D01*
X137796Y408142D02*
Y409642D01*
X138296Y409142D01*
X138796Y409642D01*
Y408142D01*
X139296Y408892D02*
X140295D01*
X140795Y408142D02*
Y409642D01*
X141295Y409142D01*
X141795Y409642D01*
Y408142D01*
X142295Y409642D02*
X142795D01*
X142545D01*
Y408142D01*
X142295D01*
X142795D01*
X143544D02*
Y409642D01*
X144544Y408142D01*
Y409642D01*
X145044D02*
X145544D01*
X145294D01*
Y408142D01*
X145044D01*
X145544D01*
X125800Y407122D02*
Y405623D01*
X126550D01*
X126800Y405873D01*
Y406872D01*
X126550Y407122D01*
X125800D01*
X127299Y405623D02*
Y406623D01*
X127799Y407122D01*
X128299Y406623D01*
Y405623D01*
Y406373D01*
X127299D01*
X128799Y405623D02*
Y407122D01*
X129549D01*
X129799Y406872D01*
Y406373D01*
X129549Y406123D01*
X128799D01*
X129299D02*
X129799Y405623D01*
X130299Y407122D02*
X131298D01*
X130798D01*
Y405623D01*
X131798Y406373D02*
X132798D01*
X133298Y405623D02*
Y407122D01*
X133797Y406623D01*
X134297Y407122D01*
Y405623D01*
X134797Y407122D02*
X135797Y405623D01*
Y407122D02*
X134797Y405623D01*
X136297Y406872D02*
X136547Y407122D01*
X137046D01*
X137296Y406872D01*
Y406623D01*
X137046Y406373D01*
X137296Y406123D01*
Y405873D01*
X137046Y405623D01*
X136547D01*
X136297Y405873D01*
Y406123D01*
X136547Y406373D01*
X136297Y406623D01*
Y406872D01*
X136547Y406373D02*
X137046D01*
X137796Y405623D02*
Y407122D01*
X138296Y406623D01*
X138796Y407122D01*
Y405623D01*
X139296Y406373D02*
X140295D01*
X140795Y405623D02*
Y407122D01*
X141545D01*
X141795Y406872D01*
Y406373D01*
X141545Y406123D01*
X140795D01*
X142295Y407122D02*
Y405623D01*
X143294D01*
X143794Y407122D02*
Y405873D01*
X144044Y405623D01*
X144544D01*
X144794Y405873D01*
Y407122D01*
X146293Y406872D02*
X146044Y407122D01*
X145544D01*
X145294Y406872D01*
Y406623D01*
X145544Y406373D01*
X146044D01*
X146293Y406123D01*
Y405873D01*
X146044Y405623D01*
X145544D01*
X145294Y405873D01*
X125800Y404603D02*
Y403103D01*
X126550D01*
X126800Y403353D01*
Y404353D01*
X126550Y404603D01*
X125800D01*
X127299Y403103D02*
Y404103D01*
X127799Y404603D01*
X128299Y404103D01*
Y403103D01*
Y403853D01*
X127299D01*
X128799Y403103D02*
Y404603D01*
X129549D01*
X129799Y404353D01*
Y403853D01*
X129549Y403603D01*
X128799D01*
X129299D02*
X129799Y403103D01*
X130299Y404603D02*
X131298D01*
X130798D01*
Y403103D01*
X131798Y403853D02*
X132798D01*
X133298Y403103D02*
Y404603D01*
X133797Y404103D01*
X134297Y404603D01*
Y403103D01*
X134797Y404603D02*
X135797Y403103D01*
Y404603D02*
X134797Y403103D01*
X136297Y403353D02*
X136547Y403103D01*
X137046D01*
X137296Y403353D01*
Y404353D01*
X137046Y404603D01*
X136547D01*
X136297Y404353D01*
Y404103D01*
X136547Y403853D01*
X137296D01*
X137796Y404353D02*
X138046Y404603D01*
X138546D01*
X138796Y404353D01*
Y404103D01*
X138546Y403853D01*
X138296D01*
X138546D01*
X138796Y403603D01*
Y403353D01*
X138546Y403103D01*
X138046D01*
X137796Y403353D01*
X125800Y402083D02*
Y400584D01*
X126550D01*
X126800Y400834D01*
Y401834D01*
X126550Y402083D01*
X125800D01*
X127299Y400584D02*
Y401584D01*
X127799Y402083D01*
X128299Y401584D01*
Y400584D01*
Y401334D01*
X127299D01*
X128799Y400584D02*
Y402083D01*
X129549D01*
X129799Y401834D01*
Y401334D01*
X129549Y401084D01*
X128799D01*
X129299D02*
X129799Y400584D01*
X130299Y402083D02*
X131298D01*
X130798D01*
Y400584D01*
X131798Y401334D02*
X132798D01*
X133298Y400584D02*
Y402083D01*
X133797Y401584D01*
X134297Y402083D01*
Y400584D01*
X134797Y402083D02*
X135797Y400584D01*
Y402083D02*
X134797Y400584D01*
X136297Y400834D02*
X136547Y400584D01*
X137046D01*
X137296Y400834D01*
Y401834D01*
X137046Y402083D01*
X136547D01*
X136297Y401834D01*
Y401584D01*
X136547Y401334D01*
X137296D01*
X138796Y402083D02*
X137796D01*
Y401334D01*
X138296Y401584D01*
X138546D01*
X138796Y401334D01*
Y400834D01*
X138546Y400584D01*
X138046D01*
X137796Y400834D01*
X148800Y416950D02*
X148550Y417200D01*
X148050D01*
X147800Y416950D01*
Y415950D01*
X148050Y415700D01*
X148550D01*
X148800Y415950D01*
X149300Y415700D02*
Y417200D01*
X149799Y416700D01*
X150299Y417200D01*
Y415700D01*
X151549D02*
Y417200D01*
X150799Y416450D01*
X151799D01*
X148800Y414431D02*
X148550Y414681D01*
X148050D01*
X147800Y414431D01*
Y413431D01*
X148050Y413181D01*
X148550D01*
X148800Y413431D01*
X149300Y413181D02*
Y414681D01*
X149799Y414181D01*
X150299Y414681D01*
Y413181D01*
X150799Y414431D02*
X151049Y414681D01*
X151549D01*
X151799Y414431D01*
Y414181D01*
X151549Y413931D01*
X151299D01*
X151549D01*
X151799Y413681D01*
Y413431D01*
X151549Y413181D01*
X151049D01*
X150799Y413431D01*
X152299Y414431D02*
X152549Y414681D01*
X153048D01*
X153298Y414431D01*
Y414181D01*
X153048Y413931D01*
X152798D01*
X153048D01*
X153298Y413681D01*
Y413431D01*
X153048Y413181D01*
X152549D01*
X152299Y413431D01*
X148800Y409392D02*
X148550Y409642D01*
X148050D01*
X147800Y409392D01*
Y408392D01*
X148050Y408142D01*
X148550D01*
X148800Y408392D01*
X149300Y408142D02*
Y409642D01*
X149799Y409142D01*
X150299Y409642D01*
Y408142D01*
X151549D02*
Y409642D01*
X150799Y408892D01*
X151799D01*
X148800Y406872D02*
X148550Y407122D01*
X148050D01*
X147800Y406872D01*
Y405873D01*
X148050Y405623D01*
X148550D01*
X148800Y405873D01*
X149300Y405623D02*
Y407122D01*
X149799Y406623D01*
X150299Y407122D01*
Y405623D01*
X150799Y407122D02*
X151799D01*
Y406872D01*
X150799Y405873D01*
Y405623D01*
X148800Y404353D02*
X148550Y404603D01*
X148050D01*
X147800Y404353D01*
Y403353D01*
X148050Y403103D01*
X148550D01*
X148800Y403353D01*
X149300Y403103D02*
Y404603D01*
X149799Y404103D01*
X150299Y404603D01*
Y403103D01*
X150799Y404353D02*
X151049Y404603D01*
X151549D01*
X151799Y404353D01*
Y404103D01*
X151549Y403853D01*
X151299D01*
X151549D01*
X151799Y403603D01*
Y403353D01*
X151549Y403103D01*
X151049D01*
X150799Y403353D01*
X152299Y404353D02*
X152549Y404603D01*
X153048D01*
X153298Y404353D01*
Y404103D01*
X153048Y403853D01*
X152798D01*
X153048D01*
X153298Y403603D01*
Y403353D01*
X153048Y403103D01*
X152549D01*
X152299Y403353D01*
X148800Y401834D02*
X148550Y402083D01*
X148050D01*
X147800Y401834D01*
Y400834D01*
X148050Y400584D01*
X148550D01*
X148800Y400834D01*
X149300Y400584D02*
Y402083D01*
X149799Y401584D01*
X150299Y402083D01*
Y400584D01*
X150799Y402083D02*
X151799D01*
Y401834D01*
X150799Y400834D01*
Y400584D01*
X143499Y442602D02*
X146831Y439270D01*
X143499D02*
X146831Y442602D01*
X143499Y440936D02*
X146831D01*
X145165Y439270D02*
Y442602D01*
M02*
