G04*
G04 #@! TF.GenerationSoftware,Altium Limited,Altium Designer,21.4.1 (30)*
G04*
G04 Layer_Color=32768*
%FSLAX25Y25*%
%MOIN*%
G70*
G04*
G04 #@! TF.SameCoordinates,45105DAF-5654-4984-AA32-67A45B9073D8*
G04*
G04*
G04 #@! TF.FilePolarity,Positive*
G04*
G01*
G75*
%ADD12C,0.00600*%
%ADD77C,0.00394*%
%ADD79C,0.00197*%
G36*
X203500Y496550D02*
X101500D01*
Y465850D01*
X203500D01*
Y496550D01*
D02*
G37*
D12*
X147449Y431965D02*
X150516D01*
Y431177D02*
Y431965D01*
Y431177D02*
X152484D01*
Y431965D01*
X155551D01*
Y433063D01*
X156339D01*
Y440937D01*
X155551D02*
X156339D01*
X155551D02*
Y442035D01*
X152484D02*
X155551D01*
X152484D02*
Y442823D01*
X150516D02*
X152484D01*
X150516Y442035D02*
Y442823D01*
X147449Y442035D02*
X150516D01*
X147449Y440937D02*
Y442035D01*
X146661Y440937D02*
X147449D01*
X146661Y433063D02*
Y440937D01*
Y433063D02*
X147449D01*
Y431965D02*
Y433063D01*
X101500Y496550D02*
X203500D01*
Y465850D02*
Y496550D01*
X101500Y465850D02*
X203500D01*
X101500D02*
Y496550D01*
D77*
X111400Y458917D02*
Y461083D01*
X110317Y460000D02*
X112483D01*
X106577Y462165D02*
X116223D01*
X106577Y457835D02*
X116223D01*
X106577D02*
Y462165D01*
X116223Y457835D02*
Y462165D01*
X135700Y420917D02*
Y423083D01*
X134617Y422000D02*
X136783D01*
X130877Y424165D02*
X140523D01*
X130877Y419835D02*
X140523D01*
X130877D02*
Y424165D01*
X140523Y419835D02*
Y424165D01*
X135700Y425717D02*
Y427883D01*
X134617Y426800D02*
X136783D01*
X130877Y428965D02*
X140523D01*
X130877Y424635D02*
X140523D01*
X130877D02*
Y428965D01*
X140523Y424635D02*
Y428965D01*
X161100Y413317D02*
Y415483D01*
X160017Y414400D02*
X162183D01*
X156277Y412235D02*
X165923D01*
X156277Y416565D02*
X165923D01*
Y412235D02*
Y416565D01*
X156277Y412235D02*
Y416565D01*
D79*
X142390Y428626D02*
Y449374D01*
X123610Y428626D02*
Y449374D01*
X142390D01*
X123610Y428626D02*
X142390D01*
X172547Y424063D02*
Y431937D01*
X178453D01*
Y424063D02*
Y431937D01*
X172547Y424063D02*
X178453D01*
X165224Y459276D02*
X185776D01*
Y438724D02*
Y459276D01*
X165224Y438724D02*
X185776D01*
X165224D02*
Y459276D01*
X102547Y409043D02*
Y451957D01*
X118453D01*
Y409043D02*
Y451957D01*
X102547Y409043D02*
X118453D01*
X175252Y464394D02*
X186748D01*
X175252Y458606D02*
X186748D01*
X175252D02*
Y464394D01*
X186748Y458606D02*
Y464394D01*
X162694Y440252D02*
Y451748D01*
X156906Y440252D02*
Y451748D01*
X162694D01*
X156906Y440252D02*
X162694D01*
X140252Y424606D02*
X151748D01*
X140252Y430394D02*
X151748D01*
X140252Y424606D02*
Y430394D01*
X151748Y424606D02*
Y430394D01*
X140252Y419606D02*
X151748D01*
X140252Y425394D02*
X151748D01*
X140252Y419606D02*
Y425394D01*
X151748Y419606D02*
Y425394D01*
X104752Y407394D02*
X116248D01*
X104752Y401606D02*
X116248D01*
Y407394D01*
X104752Y401606D02*
Y407394D01*
X115752Y463894D02*
X127248D01*
X115752Y458106D02*
X127248D01*
Y463894D01*
X115752Y458106D02*
Y463894D01*
X162394Y400752D02*
Y412248D01*
X156606Y400752D02*
Y412248D01*
Y400752D02*
X162394D01*
X156606Y412248D02*
X162394D01*
X163256Y418665D02*
X202626D01*
Y390752D02*
Y418665D01*
X163256Y390752D02*
X202626D01*
X163256D02*
Y418665D01*
X203484Y463528D02*
Y499472D01*
X101516Y463528D02*
X203484D01*
X101516D02*
Y499472D01*
X203484D01*
X187327Y423622D02*
X202012D01*
X187327D02*
Y431378D01*
X202012D01*
Y423622D02*
Y431378D01*
X185153Y439087D02*
Y444913D01*
X196846Y439087D02*
Y444913D01*
X185153Y439087D02*
X196846D01*
X185153Y444913D02*
X196846D01*
X121653Y448087D02*
Y453913D01*
X133346Y448087D02*
Y453913D01*
X121653Y448087D02*
X133346D01*
X121653Y453913D02*
X133346D01*
X187748Y418087D02*
Y423913D01*
X199441Y418087D02*
Y423913D01*
X187748Y418087D02*
X199441D01*
X187748Y423913D02*
X199441D01*
X185153Y444087D02*
Y449913D01*
X196846Y444087D02*
Y449913D01*
X185153Y444087D02*
X196846D01*
X185153Y449913D02*
X196846D01*
X178654Y434087D02*
Y439913D01*
X190347Y434087D02*
Y439913D01*
X178654Y434087D02*
X190347D01*
X178654Y439913D02*
X190347D01*
X186753Y449187D02*
Y455013D01*
X198447Y449187D02*
Y455013D01*
X186753Y449187D02*
X198447D01*
X186753Y455013D02*
X198447D01*
X134153Y448087D02*
Y453913D01*
X145846Y448087D02*
Y453913D01*
X134153Y448087D02*
X145846D01*
X134153Y453913D02*
X145846D01*
X149887Y442754D02*
X155713D01*
X149887Y454447D02*
X155713D01*
Y442754D02*
Y454447D01*
X149887Y442754D02*
Y454447D01*
X170747Y433487D02*
Y439313D01*
X159054Y433487D02*
Y439313D01*
Y433487D02*
X170747D01*
X159054Y439313D02*
X170747D01*
X150347Y458087D02*
Y463913D01*
X138654Y458087D02*
Y463913D01*
X150347D01*
X138654Y458087D02*
X150347D01*
M02*
