G04*
G04 #@! TF.GenerationSoftware,Altium Limited,Altium Designer,21.4.1 (30)*
G04*
G04 Layer_Color=2752767*
%FSLAX25Y25*%
%MOIN*%
G70*
G04*
G04 #@! TF.SameCoordinates,45105DAF-5654-4984-AA32-67A45B9073D8*
G04*
G04*
G04 #@! TF.FilePolarity,Positive*
G04*
G01*
G75*
%ADD80C,0.00200*%
%ADD81C,0.00267*%
D80*
X130231Y440168D02*
Y441768D01*
X131831D01*
Y440168D01*
X130231D01*
Y436231D02*
Y437831D01*
X131831D01*
Y436231D01*
X130231D01*
X134168D02*
Y437831D01*
X135768D01*
Y436231D01*
X134168D01*
Y440168D02*
Y441768D01*
X135768D01*
Y440168D01*
X134168D01*
X199083Y401881D02*
X198283Y403481D01*
X199883D01*
X199083Y401881D01*
X166799D02*
X165999Y403481D01*
X167599D01*
X166799Y401881D01*
X126000Y420000D02*
X126400Y420400D01*
X126800D01*
X126400Y420800D01*
X126800Y421200D01*
X126400D01*
X126000Y421600D01*
X125600Y421200D01*
X125200D01*
X125600Y420800D01*
X125200Y420400D01*
X125600D01*
X126000Y420000D01*
X186100Y454000D02*
X186500Y454400D01*
X186900D01*
X186500Y454800D01*
X186900Y455200D01*
X186500D01*
X186100Y455600D01*
X185700Y455200D01*
X185300D01*
X185700Y454800D01*
X185300Y454400D01*
X185700D01*
X186100Y454000D01*
X180400Y428300D02*
X180800Y428700D01*
X181200D01*
X180800Y429100D01*
X181200Y429500D01*
X180800D01*
X180400Y429900D01*
X180000Y429500D01*
X179600D01*
X180000Y429100D01*
X179600Y428700D01*
X180000D01*
X180400Y428300D01*
X161500Y430700D02*
X161900Y431100D01*
X162300D01*
X161900Y431500D01*
X162300Y431900D01*
X161900D01*
X161500Y432300D01*
X161100Y431900D01*
X160700D01*
X161100Y431500D01*
X160700Y431100D01*
X161100D01*
X161500Y430700D01*
X155300Y429800D02*
X155700Y430200D01*
X156100D01*
X155700Y430600D01*
X156100Y431000D01*
X155700D01*
X155300Y431400D01*
X154900Y431000D01*
X154500D01*
X154900Y430600D01*
X154500Y430200D01*
X154900D01*
X155300Y429800D01*
X202600Y448200D02*
X203000Y448600D01*
X203400D01*
X203000Y449000D01*
X203400Y449400D01*
X203000D01*
X202600Y449800D01*
X202200Y449400D01*
X201800D01*
X202200Y449000D01*
X201800Y448600D01*
X202200D01*
X202600Y448200D01*
X201000Y444400D02*
X201400Y444800D01*
X201800D01*
X201400Y445200D01*
X201800Y445600D01*
X201400D01*
X201000Y446000D01*
X200600Y445600D01*
X200200D01*
X200600Y445200D01*
X200200Y444800D01*
X200600D01*
X201000Y444400D01*
X122900Y446400D02*
X123300Y446800D01*
X123700D01*
X123300Y447200D01*
X123700Y447600D01*
X123300D01*
X122900Y448000D01*
X122500Y447600D01*
X122100D01*
X122500Y447200D01*
X122100Y446800D01*
X122500D01*
X122900Y446400D01*
X201000Y416400D02*
X201400Y416800D01*
X201800D01*
X201400Y417200D01*
X201800Y417600D01*
X201400D01*
X201000Y418000D01*
X200600Y417600D01*
X200200D01*
X200600Y417200D01*
X200200Y416800D01*
X200600D01*
X201000Y416400D01*
X157700Y435800D02*
X158100Y436200D01*
X158500D01*
X158100Y436600D01*
X158500Y437000D01*
X158100D01*
X157700Y437400D01*
X157300Y437000D01*
X156900D01*
X157300Y436600D01*
X156900Y436200D01*
X157300D01*
X157700Y435800D01*
X182800Y431600D02*
X183200Y432000D01*
X183600D01*
X183200Y432400D01*
X183600Y432800D01*
X183200D01*
X182800Y433200D01*
X182400Y432800D01*
X182000D01*
X182400Y432400D01*
X182000Y432000D01*
X182400D01*
X182800Y431600D01*
X202600Y408700D02*
X203000Y409100D01*
X203400D01*
X203000Y409500D01*
X203400Y409900D01*
X203000D01*
X202600Y410300D01*
X202200Y409900D01*
X201800D01*
X202200Y409500D01*
X201800Y409100D01*
X202200D01*
X202600Y408700D01*
X184800Y423800D02*
X185200Y424200D01*
X185600D01*
X185200Y424600D01*
X185600Y425000D01*
X185200D01*
X184800Y425400D01*
X184400Y425000D01*
X184000D01*
X184400Y424600D01*
X184000Y424200D01*
X184400D01*
X184800Y423800D01*
X120700Y422100D02*
X121100Y422500D01*
X121500D01*
X121100Y422900D01*
X121500Y423300D01*
X121100D01*
X120700Y423700D01*
X120300Y423300D01*
X119900D01*
X120300Y422900D01*
X119900Y422500D01*
X120300D01*
X120700Y422100D01*
X156600Y451900D02*
X157000Y452300D01*
X157400D01*
X157000Y452700D01*
X157400Y453100D01*
X157000D01*
X156600Y453500D01*
X156200Y453100D01*
X155800D01*
X156200Y452700D01*
X155800Y452300D01*
X156200D01*
X156600Y451900D01*
X164100Y449400D02*
X164500Y449800D01*
X164900D01*
X164500Y450200D01*
X164900Y450600D01*
X164500D01*
X164100Y451000D01*
X163700Y450600D01*
X163300D01*
X163700Y450200D01*
X163300Y449800D01*
X163700D01*
X164100Y449400D01*
X117200Y403700D02*
X117600Y404100D01*
X118000D01*
X117600Y404500D01*
X118000Y404900D01*
X117600D01*
X117200Y405300D01*
X116800Y404900D01*
X116400D01*
X116800Y404500D01*
X116400Y404100D01*
X116800D01*
X117200Y403700D01*
X165800Y424900D02*
X166200Y425300D01*
X166600D01*
X166200Y425700D01*
X166600Y426100D01*
X166200D01*
X165800Y426500D01*
X165400Y426100D01*
X165000D01*
X165400Y425700D01*
X165000Y425300D01*
X165400D01*
X165800Y424900D01*
X169700D02*
X170100Y425300D01*
X170500D01*
X170100Y425700D01*
X170500Y426100D01*
X170100D01*
X169700Y426500D01*
X169300Y426100D01*
X168900D01*
X169300Y425700D01*
X168900Y425300D01*
X169300D01*
X169700Y424900D01*
X169600Y428700D02*
X170000Y429100D01*
X170400D01*
X170000Y429500D01*
X170400Y429900D01*
X170000D01*
X169600Y430300D01*
X169200Y429900D01*
X168800D01*
X169200Y429500D01*
X168800Y429100D01*
X169200D01*
X169600Y428700D01*
X159500Y398800D02*
X159900Y399200D01*
X160300D01*
X159900Y399600D01*
X160300Y400000D01*
X159900D01*
X159500Y400400D01*
X159100Y400000D01*
X158700D01*
X159100Y399600D01*
X158700Y399200D01*
X159100D01*
X159500Y398800D01*
X137500Y459600D02*
X137900Y460000D01*
X138300D01*
X137900Y460400D01*
X138300Y460800D01*
X137900D01*
X137500Y461200D01*
X137100Y460800D01*
X136700D01*
X137100Y460400D01*
X136700Y460000D01*
X137100D01*
X137500Y459600D01*
X128300Y461300D02*
X128700Y461700D01*
X129100D01*
X128700Y462100D01*
X129100Y462500D01*
X128700D01*
X128300Y462900D01*
X127900Y462500D01*
X127500D01*
X127900Y462100D01*
X127500Y461700D01*
X127900D01*
X128300Y461300D01*
X125100Y426600D02*
X125500Y427000D01*
X125900D01*
X125500Y427400D01*
X125900Y427800D01*
X125500D01*
X125100Y428200D01*
X124700Y427800D01*
X124300D01*
X124700Y427400D01*
X124300Y427000D01*
X124700D01*
X125100Y426600D01*
X120800D02*
X121200Y427000D01*
X121600D01*
X121200Y427400D01*
X121600Y427800D01*
X121200D01*
X120800Y428200D01*
X120400Y427800D01*
X120000D01*
X120400Y427400D01*
X120000Y427000D01*
X120400D01*
X120800Y426600D01*
X130551Y450200D02*
X130951Y450600D01*
X131351D01*
X130951Y451000D01*
X131351Y451400D01*
X130951D01*
X130551Y451800D01*
X130151Y451400D01*
X129751D01*
X130151Y451000D01*
X129751Y450600D01*
X130151D01*
X130551Y450200D01*
X122100Y442800D02*
X122500Y443200D01*
X122900D01*
X122500Y443600D01*
X122900Y444000D01*
X122500D01*
X122100Y444400D01*
X121700Y444000D01*
X121300D01*
X121700Y443600D01*
X121300Y443200D01*
X121700D01*
X122100Y442800D01*
X122000Y439700D02*
X122400Y440100D01*
X122800D01*
X122400Y440500D01*
X122800Y440900D01*
X122400D01*
X122000Y441300D01*
X121600Y440900D01*
X121200D01*
X121600Y440500D01*
X121200Y440100D01*
X121600D01*
X122000Y439700D01*
Y434700D02*
X122400Y435100D01*
X122800D01*
X122400Y435500D01*
X122800Y435900D01*
X122400D01*
X122000Y436300D01*
X121600Y435900D01*
X121200D01*
X121600Y435500D01*
X121200Y435100D01*
X121600D01*
X122000Y434700D01*
X147900Y449600D02*
X148300Y450000D01*
X148700D01*
X148300Y450400D01*
X148700Y450800D01*
X148300D01*
X147900Y451200D01*
X147500Y450800D01*
X147100D01*
X147500Y450400D01*
X147100Y450000D01*
X147500D01*
X147900Y449600D01*
X147800Y445600D02*
X148200Y446000D01*
X148600D01*
X148200Y446400D01*
X148600Y446800D01*
X148200D01*
X147800Y447200D01*
X147400Y446800D01*
X147000D01*
X147400Y446400D01*
X147000Y446000D01*
X147400D01*
X147800Y445600D01*
X187600Y461600D02*
X188000Y462000D01*
X188400D01*
X188000Y462400D01*
X188400Y462800D01*
X188000D01*
X187600Y463200D01*
X187200Y462800D01*
X186800D01*
X187200Y462400D01*
X186800Y462000D01*
X187200D01*
X187600Y461600D01*
X191100Y456700D02*
X191500Y457100D01*
X191900D01*
X191500Y457500D01*
X191900Y457900D01*
X191500D01*
X191100Y458300D01*
X190700Y457900D01*
X190300D01*
X190700Y457500D01*
X190300Y457100D01*
X190700D01*
X191100Y456700D01*
X199300Y456800D02*
X199700Y457200D01*
X200100D01*
X199700Y457600D01*
X200100Y458000D01*
X199700D01*
X199300Y458400D01*
X198900Y458000D01*
X198500D01*
X198900Y457600D01*
X198500Y457200D01*
X198900D01*
X199300Y456800D01*
X195300D02*
X195700Y457200D01*
X196100D01*
X195700Y457600D01*
X196100Y458000D01*
X195700D01*
X195300Y458400D01*
X194900Y458000D01*
X194500D01*
X194900Y457600D01*
X194500Y457200D01*
X194900D01*
X195300Y456800D01*
X162800Y453000D02*
X163200Y453400D01*
X163600D01*
X163200Y453800D01*
X163600Y454200D01*
X163200D01*
X162800Y454600D01*
X162400Y454200D01*
X162000D01*
X162400Y453800D01*
X162000Y453400D01*
X162400D01*
X162800Y453000D01*
X170900Y458800D02*
X171300Y459200D01*
X171700D01*
X171300Y459600D01*
X171700Y460000D01*
X171300D01*
X170900Y460400D01*
X170500Y460000D01*
X170100D01*
X170500Y459600D01*
X170100Y459200D01*
X170500D01*
X170900Y458800D01*
X174100Y460600D02*
X174500Y461000D01*
X174900D01*
X174500Y461400D01*
X174900Y461800D01*
X174500D01*
X174100Y462200D01*
X173700Y461800D01*
X173300D01*
X173700Y461400D01*
X173300Y461000D01*
X173700D01*
X174100Y460600D01*
X199400Y431800D02*
X199800Y432200D01*
X200200D01*
X199800Y432600D01*
X200200Y433000D01*
X199800D01*
X199400Y433400D01*
X199000Y433000D01*
X198600D01*
X199000Y432600D01*
X198600Y432200D01*
X199000D01*
X199400Y431800D01*
X186800Y398800D02*
X187200Y399200D01*
X187600D01*
X187200Y399600D01*
X187600Y400000D01*
X187200D01*
X186800Y400400D01*
X186400Y400000D01*
X186000D01*
X186400Y399600D01*
X186000Y399200D01*
X186400D01*
X186800Y398800D01*
Y403700D02*
X187200Y404100D01*
X187600D01*
X187200Y404500D01*
X187600Y404900D01*
X187200D01*
X186800Y405300D01*
X186400Y404900D01*
X186000D01*
X186400Y404500D01*
X186000Y404100D01*
X186400D01*
X186800Y403700D01*
X179400Y398700D02*
X179800Y399100D01*
X180200D01*
X179800Y399500D01*
X180200Y399900D01*
X179800D01*
X179400Y400300D01*
X179000Y399900D01*
X178600D01*
X179000Y399500D01*
X178600Y399100D01*
X179000D01*
X179400Y398700D01*
Y403600D02*
X179800Y404000D01*
X180200D01*
X179800Y404400D01*
X180200Y404800D01*
X179800D01*
X179400Y405200D01*
X179000Y404800D01*
X178600D01*
X179000Y404400D01*
X178600Y404000D01*
X179000D01*
X179400Y403600D01*
X199400Y436200D02*
X199800Y436600D01*
X200200D01*
X199800Y437000D01*
X200200Y437400D01*
X199800D01*
X199400Y437800D01*
X199000Y437400D01*
X198600D01*
X199000Y437000D01*
X198600Y436600D01*
X199000D01*
X199400Y436200D01*
X147600Y475800D02*
X148000Y476200D01*
X148400D01*
X148000Y476600D01*
X148400Y477000D01*
X148000D01*
X147600Y477400D01*
X147200Y477000D01*
X146800D01*
X147200Y476600D01*
X146800Y476200D01*
X147200D01*
X147600Y475800D01*
X177600Y475700D02*
X178000Y476100D01*
X178400D01*
X178000Y476500D01*
X178400Y476900D01*
X178000D01*
X177600Y477300D01*
X177200Y476900D01*
X176800D01*
X177200Y476500D01*
X176800Y476100D01*
X177200D01*
X177600Y475700D01*
X157500Y485500D02*
X157900Y485900D01*
X158300D01*
X157900Y486300D01*
X158300Y486700D01*
X157900D01*
X157500Y487100D01*
X157100Y486700D01*
X156700D01*
X157100Y486300D01*
X156700Y485900D01*
X157100D01*
X157500Y485500D01*
X177500Y467600D02*
X177900Y468000D01*
X178300D01*
X177900Y468400D01*
X178300Y468800D01*
X177900D01*
X177500Y469200D01*
X177100Y468800D01*
X176700D01*
X177100Y468400D01*
X176700Y468000D01*
X177100D01*
X177500Y467600D01*
Y470600D02*
X177900Y471000D01*
X178300D01*
X177900Y471400D01*
X178300Y471800D01*
X177900D01*
X177500Y472200D01*
X177100Y471800D01*
X176700D01*
X177100Y471400D01*
X176700Y471000D01*
X177100D01*
X177500Y470600D01*
X157600Y493200D02*
X158000Y493600D01*
X158400D01*
X158000Y494000D01*
X158400Y494400D01*
X158000D01*
X157600Y494800D01*
X157200Y494400D01*
X156800D01*
X157200Y494000D01*
X156800Y493600D01*
X157200D01*
X157600Y493200D01*
Y490200D02*
X158000Y490600D01*
X158400D01*
X158000Y491000D01*
X158400Y491400D01*
X158000D01*
X157600Y491800D01*
X157200Y491400D01*
X156800D01*
X157200Y491000D01*
X156800Y490600D01*
X157200D01*
X157600Y490200D01*
X147600Y470600D02*
X148000Y471000D01*
X148400D01*
X148000Y471400D01*
X148400Y471800D01*
X148000D01*
X147600Y472200D01*
X147200Y471800D01*
X146800D01*
X147200Y471400D01*
X146800Y471000D01*
X147200D01*
X147600Y470600D01*
X147500Y467600D02*
X147900Y468000D01*
X148300D01*
X147900Y468400D01*
X148300Y468800D01*
X147900D01*
X147500Y469200D01*
X147100Y468800D01*
X146700D01*
X147100Y468400D01*
X146700Y468000D01*
X147100D01*
X147500Y467600D01*
X182400Y440700D02*
X182800Y441100D01*
X183200D01*
X182800Y441500D01*
X183200Y441900D01*
X182800D01*
X182400Y442300D01*
X182000Y441900D01*
X181600D01*
X182000Y441500D01*
X181600Y441100D01*
X182000D01*
X182400Y440700D01*
X173500Y450200D02*
X173900Y450600D01*
X174300D01*
X173900Y451000D01*
X174300Y451400D01*
X173900D01*
X173500Y451800D01*
X173100Y451400D01*
X172700D01*
X173100Y451000D01*
X172700Y450600D01*
X173100D01*
X173500Y450200D01*
Y446200D02*
X173900Y446600D01*
X174300D01*
X173900Y447000D01*
X174300Y447400D01*
X173900D01*
X173500Y447800D01*
X173100Y447400D01*
X172700D01*
X173100Y447000D01*
X172700Y446600D01*
X173100D01*
X173500Y446200D01*
X165000Y455700D02*
X165400Y456100D01*
X165800D01*
X165400Y456500D01*
X165800Y456900D01*
X165400D01*
X165000Y457300D01*
X164600Y456900D01*
X164200D01*
X164600Y456500D01*
X164200Y456100D01*
X164600D01*
X165000Y455700D01*
X175500Y431233D02*
X175900Y431633D01*
X176300D01*
X175900Y432033D01*
X176300Y432433D01*
X175900D01*
X175500Y432833D01*
X175100Y432433D01*
X174700D01*
X175100Y432033D01*
X174700Y431633D01*
X175100D01*
X175500Y431233D01*
X165500Y418700D02*
X165900Y419100D01*
X166300D01*
X165900Y419500D01*
X166300Y419900D01*
X165900D01*
X165500Y420300D01*
X165100Y419900D01*
X164700D01*
X165100Y419500D01*
X164700Y419100D01*
X165100D01*
X165500Y418700D01*
X167000Y441700D02*
X167400Y442100D01*
X167800D01*
X167400Y442500D01*
X167800Y442900D01*
X167400D01*
X167000Y443300D01*
X166600Y442900D01*
X166200D01*
X166600Y442500D01*
X166200Y442100D01*
X166600D01*
X167000Y441700D01*
X159000Y421700D02*
X159400Y422100D01*
X159800D01*
X159400Y422500D01*
X159800Y422900D01*
X159400D01*
X159000Y423300D01*
X158600Y422900D01*
X158200D01*
X158600Y422500D01*
X158200Y422100D01*
X158600D01*
X159000Y421700D01*
X155000Y457700D02*
X155400Y458100D01*
X155800D01*
X155400Y458500D01*
X155800Y458900D01*
X155400D01*
X155000Y459300D01*
X154600Y458900D01*
X154200D01*
X154600Y458500D01*
X154200Y458100D01*
X154600D01*
X155000Y457700D01*
X159500Y461200D02*
X159900Y461600D01*
X160300D01*
X159900Y462000D01*
X160300Y462400D01*
X159900D01*
X159500Y462800D01*
X159100Y462400D01*
X158700D01*
X159100Y462000D01*
X158700Y461600D01*
X159100D01*
X159500Y461200D01*
X194300Y436200D02*
X194700Y436600D01*
X195100D01*
X194700Y437000D01*
X195100Y437400D01*
X194700D01*
X194300Y437800D01*
X193900Y437400D01*
X193500D01*
X193900Y437000D01*
X193500Y436600D01*
X193900D01*
X194300Y436200D01*
X141500Y478700D02*
X141900Y479100D01*
X142300D01*
X141900Y479500D01*
X142300Y479900D01*
X141900D01*
X141500Y480300D01*
X141100Y479900D01*
X140700D01*
X141100Y479500D01*
X140700Y479100D01*
X141100D01*
X141500Y478700D01*
X108500Y480200D02*
X108900Y480600D01*
X109300D01*
X108900Y481000D01*
X109300Y481400D01*
X108900D01*
X108500Y481800D01*
X108100Y481400D01*
X107700D01*
X108100Y481000D01*
X107700Y480600D01*
X108100D01*
X108500Y480200D01*
X115000Y413700D02*
X115400Y414100D01*
X115800D01*
X115400Y414500D01*
X115800Y414900D01*
X115400D01*
X115000Y415300D01*
X114600Y414900D01*
X114200D01*
X114600Y414500D01*
X114200Y414100D01*
X114600D01*
X115000Y413700D01*
X105500Y448700D02*
X105900Y449100D01*
X106300D01*
X105900Y449500D01*
X106300Y449900D01*
X105900D01*
X105500Y450300D01*
X105100Y449900D01*
X104700D01*
X105100Y449500D01*
X104700Y449100D01*
X105100D01*
X105500Y448700D01*
X105000Y459200D02*
X105400Y459600D01*
X105800D01*
X105400Y460000D01*
X105800Y460400D01*
X105400D01*
X105000Y460800D01*
X104600Y460400D01*
X104200D01*
X104600Y460000D01*
X104200Y459600D01*
X104600D01*
X105000Y459200D01*
X177500Y450200D02*
X177900Y450600D01*
X178300D01*
X177900Y451000D01*
X178300Y451400D01*
X177900D01*
X177500Y451800D01*
X177100Y451400D01*
X176700D01*
X177100Y451000D01*
X176700Y450600D01*
X177100D01*
X177500Y450200D01*
X119000Y480200D02*
X119400Y480600D01*
X119800D01*
X119400Y481000D01*
X119800Y481400D01*
X119400D01*
X119000Y481800D01*
X118600Y481400D01*
X118200D01*
X118600Y481000D01*
X118200Y480600D01*
X118600D01*
X119000Y480200D01*
X131500Y478700D02*
X131900Y479100D01*
X132300D01*
X131900Y479500D01*
X132300Y479900D01*
X131900D01*
X131500Y480300D01*
X131100Y479900D01*
X130700D01*
X131100Y479500D01*
X130700Y479100D01*
X131100D01*
X131500Y478700D01*
X201500D02*
X201900Y479100D01*
X202300D01*
X201900Y479500D01*
X202300Y479900D01*
X201900D01*
X201500Y480300D01*
X201100Y479900D01*
X200700D01*
X201100Y479500D01*
X200700Y479100D01*
X201100D01*
X201500Y478700D01*
X191500D02*
X191900Y479100D01*
X192300D01*
X191900Y479500D01*
X192300Y479900D01*
X191900D01*
X191500Y480300D01*
X191100Y479900D01*
X190700D01*
X191100Y479500D01*
X190700Y479100D01*
X191100D01*
X191500Y478700D01*
X201500Y482700D02*
X201900Y483100D01*
X202300D01*
X201900Y483500D01*
X202300Y483900D01*
X201900D01*
X201500Y484300D01*
X201100Y483900D01*
X200700D01*
X201100Y483500D01*
X200700Y483100D01*
X201100D01*
X201500Y482700D01*
X191500D02*
X191900Y483100D01*
X192300D01*
X191900Y483500D01*
X192300Y483900D01*
X191900D01*
X191500Y484300D01*
X191100Y483900D01*
X190700D01*
X191100Y483500D01*
X190700Y483100D01*
X191100D01*
X191500Y482700D01*
X177500Y446200D02*
X177900Y446600D01*
X178300D01*
X177900Y447000D01*
X178300Y447400D01*
X177900D01*
X177500Y447800D01*
X177100Y447400D01*
X176700D01*
X177100Y447000D01*
X176700Y446600D01*
X177100D01*
X177500Y446200D01*
X171500Y482700D02*
X171900Y483100D01*
X172300D01*
X171900Y483500D01*
X172300Y483900D01*
X171900D01*
X171500Y484300D01*
X171100Y483900D01*
X170700D01*
X171100Y483500D01*
X170700Y483100D01*
X171100D01*
X171500Y482700D01*
X181500D02*
X181900Y483100D01*
X182300D01*
X181900Y483500D01*
X182300Y483900D01*
X181900D01*
X181500Y484300D01*
X181100Y483900D01*
X180700D01*
X181100Y483500D01*
X180700Y483100D01*
X181100D01*
X181500Y482700D01*
D81*
X193288Y414807D02*
X192735Y415568D01*
X191841Y415277D01*
Y414337D01*
X192735Y414046D01*
X193288Y414807D01*
X174194D02*
X173641Y415568D01*
X172747Y415277D01*
Y414337D01*
X173641Y414046D01*
X174194Y414807D01*
M02*
