G04*
G04 #@! TF.GenerationSoftware,Altium Limited,Altium Designer,21.4.1 (30)*
G04*
G04 Layer_Physical_Order=4*
G04 Layer_Color=16711680*
%FSLAX25Y25*%
%MOIN*%
G70*
G04*
G04 #@! TF.SameCoordinates,45105DAF-5654-4984-AA32-67A45B9073D8*
G04*
G04*
G04 #@! TF.FilePolarity,Positive*
G04*
G01*
G75*
%ADD15C,0.00800*%
%ADD51R,0.03543X0.03819*%
%ADD52R,0.03819X0.03543*%
%ADD57R,0.03622X0.03858*%
%ADD59C,0.01000*%
%ADD62C,0.01968*%
%ADD63O,0.02874X0.05748*%
%ADD64O,0.03543X0.07087*%
%ADD74R,0.03900X0.06100*%
G36*
X204500Y396000D02*
X101500D01*
X101000Y396500D01*
Y499500D01*
X204500D01*
Y396000D01*
D02*
G37*
%LPC*%
G36*
X150250Y496350D02*
X144750D01*
Y488650D01*
X150250D01*
Y496350D01*
D02*
G37*
G36*
X140250D02*
X134750D01*
Y488650D01*
X140250D01*
Y496350D01*
D02*
G37*
G36*
X110250D02*
X104750D01*
Y488650D01*
X110250D01*
Y496350D01*
D02*
G37*
G36*
X180250D02*
X174750D01*
Y488650D01*
X176277D01*
Y487500D01*
X176370Y487032D01*
X176635Y486635D01*
X179716Y483554D01*
Y483145D01*
X179987Y482489D01*
X180489Y481987D01*
X181145Y481716D01*
X181855D01*
X182511Y481987D01*
X183013Y482489D01*
X183284Y483145D01*
Y483855D01*
X183013Y484511D01*
X182511Y485013D01*
X181855Y485284D01*
X181446D01*
X178724Y488007D01*
Y488650D01*
X180250D01*
Y496350D01*
D02*
G37*
G36*
X170250D02*
X164750D01*
Y488650D01*
X166277D01*
Y487500D01*
X166370Y487032D01*
X166635Y486635D01*
X169716Y483554D01*
Y483145D01*
X169987Y482489D01*
X170489Y481987D01*
X171145Y481716D01*
X171855D01*
X172511Y481987D01*
X173013Y482489D01*
X173284Y483145D01*
Y483855D01*
X173013Y484511D01*
X172511Y485013D01*
X171855Y485284D01*
X171446D01*
X168723Y488007D01*
Y488650D01*
X170250D01*
Y496350D01*
D02*
G37*
G36*
X147955Y478384D02*
X147245D01*
X146589Y478113D01*
X146087Y477611D01*
X145816Y476955D01*
Y476245D01*
X146087Y475589D01*
X146589Y475087D01*
X147245Y474816D01*
X147955D01*
X148611Y475087D01*
X149113Y475589D01*
X149384Y476245D01*
Y476955D01*
X149113Y477611D01*
X148611Y478113D01*
X147955Y478384D01*
D02*
G37*
G36*
X200250Y496350D02*
X194750D01*
Y488650D01*
X196276D01*
Y487500D01*
X196370Y487032D01*
X196635Y486635D01*
X199716Y483554D01*
Y483145D01*
X199987Y482489D01*
X200489Y481987D01*
X201062Y481750D01*
X201072Y481698D01*
Y481302D01*
X201062Y481250D01*
X200489Y481013D01*
X199987Y480511D01*
X199716Y479855D01*
Y479446D01*
X196635Y476365D01*
X196370Y475968D01*
X196276Y475500D01*
Y473750D01*
X194750D01*
Y466050D01*
X200250D01*
Y473750D01*
X198723D01*
Y474993D01*
X201446Y477716D01*
X201855D01*
X202511Y477987D01*
X203013Y478489D01*
X203284Y479145D01*
Y479855D01*
X203013Y480511D01*
X202511Y481013D01*
X201938Y481250D01*
X201928Y481302D01*
Y481698D01*
X201938Y481750D01*
X202511Y481987D01*
X203013Y482489D01*
X203284Y483145D01*
Y483855D01*
X203013Y484511D01*
X202511Y485013D01*
X201855Y485284D01*
X201446D01*
X198723Y488007D01*
Y488650D01*
X200250D01*
Y496350D01*
D02*
G37*
G36*
X190250D02*
X184750D01*
Y488650D01*
X186276D01*
Y487500D01*
X186370Y487032D01*
X186635Y486635D01*
X189716Y483554D01*
Y483145D01*
X189987Y482489D01*
X190489Y481987D01*
X191062Y481750D01*
X191072Y481698D01*
Y481302D01*
X191062Y481250D01*
X190489Y481013D01*
X189987Y480511D01*
X189716Y479855D01*
Y479446D01*
X186635Y476365D01*
X186370Y475968D01*
X186276Y475500D01*
Y473750D01*
X184750D01*
Y466050D01*
X190250D01*
Y473750D01*
X188724D01*
Y474993D01*
X191446Y477716D01*
X191855D01*
X192511Y477987D01*
X193013Y478489D01*
X193284Y479145D01*
Y479855D01*
X193013Y480511D01*
X192511Y481013D01*
X191938Y481250D01*
X191928Y481302D01*
Y481698D01*
X191938Y481750D01*
X192511Y481987D01*
X193013Y482489D01*
X193284Y483145D01*
Y483855D01*
X193013Y484511D01*
X192511Y485013D01*
X191855Y485284D01*
X191446D01*
X188724Y488007D01*
Y488650D01*
X190250D01*
Y496350D01*
D02*
G37*
G36*
X150250Y473750D02*
X144750D01*
Y466050D01*
X150250D01*
Y473750D01*
D02*
G37*
G36*
X141855Y481284D02*
X141145D01*
X140489Y481013D01*
X139987Y480511D01*
X139716Y479855D01*
Y479446D01*
X136635Y476365D01*
X136370Y475968D01*
X136276Y475500D01*
Y473750D01*
X134750D01*
Y466050D01*
X140250D01*
Y473750D01*
X138724D01*
Y474993D01*
X141446Y477716D01*
X141855D01*
X142511Y477987D01*
X143013Y478489D01*
X143284Y479145D01*
Y479855D01*
X143013Y480511D01*
X142511Y481013D01*
X141855Y481284D01*
D02*
G37*
G36*
X131855D02*
X131145D01*
X130489Y481013D01*
X129987Y480511D01*
X129716Y479855D01*
Y479446D01*
X126635Y476365D01*
X126370Y475968D01*
X126277Y475500D01*
Y473750D01*
X124750D01*
Y466050D01*
X130250D01*
Y473750D01*
X128724D01*
Y474993D01*
X131446Y477716D01*
X131855D01*
X132511Y477987D01*
X133013Y478489D01*
X133284Y479145D01*
Y479855D01*
X133013Y480511D01*
X132511Y481013D01*
X131855Y481284D01*
D02*
G37*
G36*
X119355Y482784D02*
X118645D01*
X117989Y482513D01*
X117487Y482011D01*
X117216Y481355D01*
Y480645D01*
X117246Y480571D01*
X116635Y479959D01*
X116370Y479562D01*
X116277Y479094D01*
Y473750D01*
X114750D01*
Y466050D01*
X120250D01*
Y473750D01*
X118723D01*
Y478587D01*
X119352Y479216D01*
X119355D01*
X120011Y479487D01*
X120513Y479989D01*
X120784Y480645D01*
Y481355D01*
X120513Y482011D01*
X120011Y482513D01*
X119355Y482784D01*
D02*
G37*
G36*
X108855D02*
X108145D01*
X107489Y482513D01*
X106987Y482011D01*
X106716Y481355D01*
Y480645D01*
X106746Y480571D01*
X106635Y480459D01*
X106370Y480062D01*
X106277Y479594D01*
Y473750D01*
X104750D01*
Y466050D01*
X110250D01*
Y473750D01*
X108723D01*
Y479087D01*
X108852Y479216D01*
X108855D01*
X109511Y479487D01*
X110013Y479989D01*
X110284Y480645D01*
Y481355D01*
X110013Y482011D01*
X109511Y482513D01*
X108855Y482784D01*
D02*
G37*
G36*
X180579Y464210D02*
X175436D01*
Y463278D01*
X175375Y463209D01*
X174936Y462985D01*
X174455Y463184D01*
X173745D01*
X173089Y462913D01*
X172587Y462411D01*
X172316Y461755D01*
Y461415D01*
X172152Y461292D01*
X171816Y461152D01*
X171255Y461384D01*
X170545D01*
X169889Y461113D01*
X169387Y460611D01*
X169116Y459955D01*
Y459245D01*
X169387Y458589D01*
X169676Y458300D01*
Y446907D01*
X167054Y444284D01*
X166645D01*
X165989Y444013D01*
X165487Y443511D01*
X165216Y442855D01*
Y442145D01*
X165487Y441489D01*
X165989Y440987D01*
X166645Y440716D01*
X167355D01*
X168011Y440987D01*
X168513Y441489D01*
X168784Y442145D01*
Y442554D01*
X171765Y445535D01*
X172030Y445932D01*
X172124Y446400D01*
Y458300D01*
X172413Y458589D01*
X172684Y459245D01*
Y459585D01*
X172848Y459708D01*
X173184Y459848D01*
X173745Y459616D01*
X174455D01*
X174936Y459815D01*
X175375Y459591D01*
X175436Y459522D01*
Y458790D01*
X180579D01*
Y464210D01*
D02*
G37*
G36*
X186564Y464210D02*
X186564Y464210D01*
X181421D01*
Y458790D01*
X186564D01*
Y460357D01*
X187064Y460691D01*
X187245Y460616D01*
X187955D01*
X188611Y460887D01*
X189113Y461389D01*
X189384Y462045D01*
Y462755D01*
X189113Y463411D01*
X188611Y463913D01*
X187955Y464184D01*
X187245D01*
X187064Y464109D01*
X186564Y464210D01*
Y464210D01*
D02*
G37*
G36*
X170250Y473750D02*
X164750D01*
Y466050D01*
X166277D01*
Y465507D01*
X160493Y459724D01*
X159874D01*
X159855Y460216D01*
X160511Y460487D01*
X161013Y460989D01*
X161284Y461645D01*
Y462355D01*
X161013Y463011D01*
X160511Y463513D01*
X159855Y463784D01*
X159446D01*
X158723Y464507D01*
Y466050D01*
X160250D01*
Y473750D01*
X154750D01*
Y466050D01*
X156277D01*
Y464000D01*
X156370Y463532D01*
X156635Y463135D01*
X157716Y462054D01*
Y461645D01*
X157987Y460989D01*
X158489Y460487D01*
X159145Y460216D01*
X159126Y459724D01*
X156300D01*
X156011Y460013D01*
X155355Y460284D01*
X154645D01*
X153989Y460013D01*
X153487Y459511D01*
X153216Y458855D01*
Y458145D01*
X153487Y457489D01*
X153989Y456987D01*
X154645Y456716D01*
X155355D01*
X156011Y456987D01*
X156300Y457276D01*
X161000D01*
X161468Y457370D01*
X161865Y457635D01*
X168365Y464135D01*
X168630Y464532D01*
X168723Y465000D01*
Y466050D01*
X170250D01*
Y473750D01*
D02*
G37*
G36*
X105355Y461784D02*
X104645D01*
X103989Y461513D01*
X103487Y461011D01*
X103216Y460355D01*
Y459645D01*
X103487Y458989D01*
X103989Y458487D01*
X104645Y458216D01*
X105355D01*
X106011Y458487D01*
X106513Y458989D01*
X106784Y459645D01*
Y460355D01*
X106513Y461011D01*
X106011Y461513D01*
X105355Y461784D01*
D02*
G37*
G36*
X199655Y459384D02*
X198945D01*
X198289Y459113D01*
X197787Y458611D01*
X197550Y458038D01*
X197498Y458028D01*
X197102D01*
X197050Y458038D01*
X196813Y458611D01*
X196311Y459113D01*
X195655Y459384D01*
X194945D01*
X194289Y459113D01*
X193787Y458611D01*
X193516Y457955D01*
Y457245D01*
X193787Y456589D01*
X194289Y456087D01*
X194945Y455816D01*
X195655D01*
X196311Y456087D01*
X196813Y456589D01*
X197050Y457162D01*
X197102Y457172D01*
X197498D01*
X197550Y457162D01*
X197787Y456589D01*
X198289Y456087D01*
X198945Y455816D01*
X199655D01*
X200311Y456087D01*
X200813Y456589D01*
X201084Y457245D01*
Y457955D01*
X200813Y458611D01*
X200311Y459113D01*
X199655Y459384D01*
D02*
G37*
G36*
X191455Y459284D02*
X190745D01*
X190089Y459013D01*
X189587Y458511D01*
X189316Y457855D01*
Y457145D01*
X189587Y456489D01*
X190089Y455987D01*
X190745Y455716D01*
X191455D01*
X192111Y455987D01*
X192613Y456489D01*
X192884Y457145D01*
Y457855D01*
X192613Y458511D01*
X192111Y459013D01*
X191455Y459284D01*
D02*
G37*
G36*
X130906Y452784D02*
X130196D01*
X129541Y452513D01*
X129039Y452011D01*
X128767Y451355D01*
Y450645D01*
X129039Y449989D01*
X129541Y449487D01*
X130196Y449216D01*
X130906D01*
X131562Y449487D01*
X132064Y449989D01*
X132335Y450645D01*
Y451355D01*
X132064Y452011D01*
X131562Y452513D01*
X130906Y452784D01*
D02*
G37*
G36*
X165355Y458284D02*
X164645D01*
X163989Y458013D01*
X163487Y457511D01*
X163216Y456855D01*
Y456145D01*
X163257Y456046D01*
X163254Y456036D01*
X162907Y455584D01*
X162445D01*
X161789Y455313D01*
X161287Y454811D01*
X161016Y454155D01*
Y453445D01*
X161287Y452789D01*
X161789Y452287D01*
X162329Y452064D01*
X162230Y451564D01*
X157091D01*
Y446420D01*
X162509D01*
Y448560D01*
X163009Y448767D01*
X163089Y448687D01*
X163745Y448416D01*
X164455D01*
X165111Y448687D01*
X165613Y449189D01*
X165884Y449845D01*
Y450555D01*
X165613Y451211D01*
X165111Y451713D01*
X164455Y451984D01*
X164215D01*
X164008Y452484D01*
X164313Y452789D01*
X164584Y453445D01*
Y454155D01*
X164543Y454254D01*
X164546Y454264D01*
X164893Y454716D01*
X165355D01*
X166011Y454987D01*
X166513Y455489D01*
X166784Y456145D01*
Y456855D01*
X166513Y457511D01*
X166011Y458013D01*
X165355Y458284D01*
D02*
G37*
G36*
X105855Y451284D02*
X105145D01*
X104489Y451013D01*
X103987Y450511D01*
X103716Y449855D01*
Y449145D01*
X103987Y448489D01*
X104489Y447987D01*
X105145Y447716D01*
X105855D01*
X106511Y447987D01*
X107013Y448489D01*
X107284Y449145D01*
Y449855D01*
X107013Y450511D01*
X106511Y451013D01*
X105855Y451284D01*
D02*
G37*
G36*
X148255Y452184D02*
X147545D01*
X146889Y451913D01*
X146387Y451411D01*
X146116Y450755D01*
Y450045D01*
X146387Y449389D01*
X146889Y448887D01*
X147412Y448671D01*
X147428Y448433D01*
X147372Y448154D01*
X146789Y447913D01*
X146287Y447411D01*
X146016Y446755D01*
Y446045D01*
X146287Y445389D01*
X146789Y444887D01*
X147445Y444616D01*
X147854D01*
X149327Y443143D01*
X149724Y442877D01*
X150192Y442784D01*
X157091D01*
Y440436D01*
X162509D01*
Y445579D01*
X157091D01*
Y445231D01*
X150699D01*
X149584Y446346D01*
Y446755D01*
X149313Y447411D01*
X148811Y447913D01*
X148288Y448129D01*
X148272Y448367D01*
X148328Y448646D01*
X148911Y448887D01*
X149413Y449389D01*
X149684Y450045D01*
Y450755D01*
X149413Y451411D01*
X148911Y451913D01*
X148255Y452184D01*
D02*
G37*
G36*
X182755Y443284D02*
X182045D01*
X181389Y443013D01*
X180887Y442511D01*
X180616Y441855D01*
Y441145D01*
X180887Y440489D01*
X181389Y439987D01*
X182045Y439716D01*
X182755D01*
X183411Y439987D01*
X183913Y440489D01*
X184184Y441145D01*
Y441855D01*
X183913Y442511D01*
X183411Y443013D01*
X182755Y443284D01*
D02*
G37*
G36*
X130250Y496350D02*
X124750D01*
Y488650D01*
X126277D01*
Y486007D01*
X121635Y481365D01*
X121370Y480968D01*
X121276Y480500D01*
Y461007D01*
X115135Y454865D01*
X114870Y454468D01*
X114777Y454000D01*
Y445000D01*
X114870Y444532D01*
X115135Y444135D01*
X119635Y439635D01*
X120032Y439370D01*
X120500Y439277D01*
X120700D01*
X120989Y438987D01*
X121645Y438716D01*
X122355D01*
X123011Y438987D01*
X123513Y439489D01*
X123784Y440145D01*
Y440855D01*
X123513Y441511D01*
X123350Y441673D01*
X123111Y442087D01*
X123350Y442327D01*
X123613Y442589D01*
X123884Y443245D01*
Y443955D01*
X123613Y444611D01*
X123111Y445113D01*
X122455Y445384D01*
X121745D01*
X121089Y445113D01*
X120587Y444611D01*
X120316Y443955D01*
Y443245D01*
X120403Y443034D01*
X119979Y442751D01*
X117224Y445507D01*
Y453493D01*
X123365Y459635D01*
X123630Y460032D01*
X123723Y460500D01*
Y479993D01*
X128365Y484635D01*
X128630Y485032D01*
X128724Y485500D01*
Y488650D01*
X130250D01*
Y496350D01*
D02*
G37*
G36*
X164460Y439129D02*
X159238D01*
Y438293D01*
X158738Y438086D01*
X158711Y438113D01*
X158055Y438384D01*
X157345D01*
X156689Y438113D01*
X156400Y437823D01*
X146100D01*
X145632Y437730D01*
X145235Y437465D01*
X128284Y420514D01*
X127784Y420722D01*
Y421155D01*
X127513Y421811D01*
X127011Y422313D01*
X126355Y422584D01*
X125645D01*
X124989Y422313D01*
X124487Y421811D01*
X124216Y421155D01*
Y420445D01*
X124487Y419789D01*
X124989Y419287D01*
X125645Y419016D01*
X126078D01*
X126285Y418516D01*
X123493Y415724D01*
X116300D01*
X116011Y416013D01*
X115355Y416284D01*
X114645D01*
X113989Y416013D01*
X113487Y415511D01*
X113216Y414855D01*
Y414145D01*
X113487Y413489D01*
X113989Y412987D01*
X114645Y412716D01*
X115355D01*
X116011Y412987D01*
X116300Y413276D01*
X124000D01*
X124468Y413370D01*
X124865Y413635D01*
X146607Y435377D01*
X156400D01*
X156689Y435087D01*
X157345Y434816D01*
X158055D01*
X158711Y435087D01*
X158738Y435114D01*
X159238Y434907D01*
Y433671D01*
X164460D01*
Y439129D01*
D02*
G37*
G36*
X199755Y438784D02*
X199045D01*
X198389Y438513D01*
X197887Y438011D01*
X197616Y437355D01*
Y436645D01*
X197887Y435989D01*
X198389Y435487D01*
X199045Y435216D01*
X199755D01*
X200411Y435487D01*
X200913Y435989D01*
X201184Y436645D01*
Y437355D01*
X200913Y438011D01*
X200411Y438513D01*
X199755Y438784D01*
D02*
G37*
G36*
X194655D02*
X193945D01*
X193289Y438513D01*
X192787Y438011D01*
X192516Y437355D01*
Y436645D01*
X192787Y435989D01*
X193289Y435487D01*
X193945Y435216D01*
X194655D01*
X195311Y435487D01*
X195813Y435989D01*
X196084Y436645D01*
Y437355D01*
X195813Y438011D01*
X195311Y438513D01*
X194655Y438784D01*
D02*
G37*
G36*
X120250Y496350D02*
X114750D01*
Y488650D01*
X116277D01*
Y486007D01*
X112135Y481865D01*
X111870Y481468D01*
X111776Y481000D01*
Y443500D01*
X111870Y443032D01*
X112135Y442635D01*
X119911Y434858D01*
X120308Y434593D01*
X120457Y434564D01*
X120487Y434489D01*
X120989Y433987D01*
X121645Y433716D01*
X122355D01*
X123011Y433987D01*
X123513Y434489D01*
X123784Y435145D01*
Y435855D01*
X123513Y436511D01*
X123011Y437013D01*
X122355Y437284D01*
X121645D01*
X121151Y437079D01*
X114224Y444007D01*
Y480493D01*
X118365Y484635D01*
X118630Y485032D01*
X118723Y485500D01*
Y488650D01*
X120250D01*
Y496350D01*
D02*
G37*
G36*
X199755Y434384D02*
X199045D01*
X198389Y434113D01*
X197887Y433611D01*
X197616Y432955D01*
Y432245D01*
X197887Y431589D01*
X198389Y431087D01*
X199045Y430816D01*
X199755D01*
X200411Y431087D01*
X200913Y431589D01*
X201184Y432245D01*
Y432955D01*
X200913Y433611D01*
X200411Y434113D01*
X199755Y434384D01*
D02*
G37*
G36*
X186455Y456584D02*
X185745D01*
X185089Y456313D01*
X184587Y455811D01*
X184316Y455155D01*
Y454445D01*
X184587Y453789D01*
X184774Y453602D01*
Y452834D01*
X182363Y450422D01*
X182075Y449992D01*
X181974Y449485D01*
Y445848D01*
X182075Y445340D01*
X182363Y444910D01*
X184830Y442443D01*
Y430805D01*
X177851Y423826D01*
X160198D01*
X160011Y424013D01*
X159355Y424284D01*
X158645D01*
X157989Y424013D01*
X157487Y423511D01*
X157216Y422855D01*
Y422145D01*
X157487Y421489D01*
X157989Y420987D01*
X158645Y420716D01*
X159355D01*
X160011Y420987D01*
X160198Y421174D01*
X163944D01*
X164151Y420675D01*
X163987Y420511D01*
X163716Y419855D01*
Y419145D01*
X163987Y418489D01*
X164489Y417987D01*
X165145Y417716D01*
X165855D01*
X166511Y417987D01*
X167013Y418489D01*
X167284Y419145D01*
Y419855D01*
X167013Y420511D01*
X166849Y420675D01*
X167056Y421174D01*
X178400D01*
X178907Y421275D01*
X179337Y421563D01*
X187093Y429319D01*
X187380Y429749D01*
X187481Y430256D01*
Y442992D01*
X187380Y443499D01*
X187093Y443929D01*
X184625Y446397D01*
Y448936D01*
X187037Y451348D01*
X187325Y451778D01*
X187425Y452285D01*
Y453602D01*
X187613Y453789D01*
X187884Y454445D01*
Y455155D01*
X187613Y455811D01*
X187111Y456313D01*
X186455Y456584D01*
D02*
G37*
%LPD*%
D15*
X161008Y450200D02*
X164100D01*
X159800Y448992D02*
X161008Y450200D01*
X157700Y436600D02*
X161249D01*
X161600Y436951D01*
X124000Y414500D02*
X146100Y436600D01*
X157700D01*
X115000Y414500D02*
X124000D01*
X147800Y446400D02*
X150192Y444008D01*
X159400D01*
X116000Y445000D02*
X120500Y440500D01*
X122000D01*
X113000Y443500D02*
X120776Y435724D01*
X121776D02*
X122000Y435500D01*
X120776Y435724D02*
X121776D01*
X183992Y461500D02*
X184892Y462400D01*
X187600D01*
X113000Y443500D02*
Y481000D01*
X170900Y446400D02*
Y459600D01*
X174100Y461400D02*
X176880D01*
X176908Y461372D01*
X167000Y442500D02*
X170900Y446400D01*
X116000Y445000D02*
Y454000D01*
X122500Y460500D01*
X155000Y458500D02*
X161000D01*
X167500Y465000D01*
X157500Y464000D02*
X159500Y462000D01*
X157500Y464000D02*
Y469900D01*
X113000Y481000D02*
X117500Y485500D01*
X122500Y460500D02*
Y480500D01*
X137500Y469900D02*
Y475500D01*
X141500Y479500D01*
X107500Y479594D02*
X108500Y480594D01*
X107500Y469900D02*
Y479594D01*
X108500Y480594D02*
Y481000D01*
X167500Y465000D02*
Y469900D01*
X127500Y485500D02*
Y492500D01*
X122500Y480500D02*
X127500Y485500D01*
X117500Y469900D02*
Y479094D01*
X119000Y480594D02*
Y481000D01*
X117500Y479094D02*
X119000Y480594D01*
X117500Y485500D02*
Y492500D01*
X127500Y475500D02*
X131500Y479500D01*
X127500Y469900D02*
Y475500D01*
X197500D02*
X201500Y479500D01*
X197500Y469900D02*
Y475500D01*
X187500D02*
X191500Y479500D01*
X187500Y469900D02*
Y475500D01*
X197500Y487500D02*
X201500Y483500D01*
X197500Y487500D02*
Y492500D01*
X187500Y487500D02*
X191500Y483500D01*
X187500Y487500D02*
Y492500D01*
X167500Y487500D02*
Y492500D01*
Y487500D02*
X171500Y483500D01*
X177500Y487500D02*
Y492500D01*
Y487500D02*
X181500Y483500D01*
D51*
X178008Y461500D02*
D03*
X183992D02*
D03*
D52*
X159800Y448992D02*
D03*
Y443008D02*
D03*
D57*
X167951Y436400D02*
D03*
X161849D02*
D03*
D59*
X186100Y452285D02*
Y454800D01*
X183300Y449485D02*
X186100Y452285D01*
X183300Y445848D02*
Y449485D01*
X159000Y422500D02*
X178400D01*
X186156Y430256D02*
Y442992D01*
X178400Y422500D02*
X186156Y430256D01*
X183300Y445848D02*
X186156Y442992D01*
D62*
X131031Y440968D02*
D03*
Y437031D02*
D03*
X134968D02*
D03*
Y440968D02*
D03*
X126000Y420800D02*
D03*
X186100Y454800D02*
D03*
X180400Y429100D02*
D03*
X161500Y431500D02*
D03*
X155300Y430600D02*
D03*
X202600Y449000D02*
D03*
X201000Y445200D02*
D03*
X122900Y447200D02*
D03*
X201000Y417200D02*
D03*
X157700Y436600D02*
D03*
X182800Y432400D02*
D03*
X202600Y409500D02*
D03*
X184800Y424600D02*
D03*
X120700Y422900D02*
D03*
X156600Y452700D02*
D03*
X164100Y450200D02*
D03*
X117200Y404500D02*
D03*
X165800Y425700D02*
D03*
X169700D02*
D03*
X169600Y429500D02*
D03*
X159500Y399600D02*
D03*
X137500Y460400D02*
D03*
X128300Y462100D02*
D03*
X125100Y427400D02*
D03*
X120800D02*
D03*
X130551Y451000D02*
D03*
X122100Y443600D02*
D03*
X122000Y440500D02*
D03*
Y435500D02*
D03*
X147900Y450400D02*
D03*
X147800Y446400D02*
D03*
X187600Y462400D02*
D03*
X191100Y457500D02*
D03*
X199300Y457600D02*
D03*
X195300D02*
D03*
X162800Y453800D02*
D03*
X170900Y459600D02*
D03*
X174100Y461400D02*
D03*
X199400Y432600D02*
D03*
X186800Y399600D02*
D03*
Y404500D02*
D03*
X179400Y399500D02*
D03*
Y404400D02*
D03*
X199400Y437000D02*
D03*
X147600Y476600D02*
D03*
X177600Y476500D02*
D03*
X157500Y486300D02*
D03*
X177500Y468400D02*
D03*
Y471400D02*
D03*
X157600Y494000D02*
D03*
Y491000D02*
D03*
X147600Y471400D02*
D03*
X147500Y468400D02*
D03*
X182400Y441500D02*
D03*
X173500Y451000D02*
D03*
Y447000D02*
D03*
X165000Y456500D02*
D03*
X175500Y432033D02*
D03*
X165500Y419500D02*
D03*
X167000Y442500D02*
D03*
X159000Y422500D02*
D03*
X155000Y458500D02*
D03*
X159500Y462000D02*
D03*
X194300Y437000D02*
D03*
X141500Y479500D02*
D03*
X108500Y481000D02*
D03*
X115000Y414500D02*
D03*
X105500Y449500D02*
D03*
X105000Y460000D02*
D03*
X177500Y451000D02*
D03*
X119000Y481000D02*
D03*
X131500Y479500D02*
D03*
X201500D02*
D03*
X191500D02*
D03*
X201500Y483500D02*
D03*
X191500D02*
D03*
X177500Y447000D02*
D03*
X171500Y483500D02*
D03*
X181500D02*
D03*
D63*
X192488Y414807D02*
D03*
X173394D02*
D03*
D64*
X199083Y402681D02*
D03*
X166799D02*
D03*
D74*
X197500Y492500D02*
D03*
Y469900D02*
D03*
X187500Y492500D02*
D03*
Y469900D02*
D03*
X177500Y492500D02*
D03*
Y469900D02*
D03*
X167500Y492500D02*
D03*
Y469900D02*
D03*
X157500Y492500D02*
D03*
Y469900D02*
D03*
X147500Y492500D02*
D03*
Y469900D02*
D03*
X137500Y492500D02*
D03*
Y469900D02*
D03*
X127500Y492500D02*
D03*
Y469900D02*
D03*
X117500Y492500D02*
D03*
Y469900D02*
D03*
X107500Y492500D02*
D03*
Y469900D02*
D03*
M02*
